<svg width="116" height="60" viewBox="0 0 116 60" fill="none" xmlns="http://www.w3.org/2000/svg">
<path fill-rule="evenodd" clip-rule="evenodd" d="M74.1297 6.75109C73.6232 6.75109 73.1374 6.94994 72.7793 7.3039C72.4212 7.65785 72.22 8.13792 72.22 8.63848C72.22 9.29539 72.5455 9.87142 73.0601 10.2097L66.5839 23.9466L67.9368 5.6542C68.4279 5.61309 68.8839 5.38606 69.2096 5.02053C69.5353 4.655 69.7056 4.17923 69.6848 3.69259C69.6639 3.20596 69.4537 2.74608 69.098 2.40901C68.7422 2.07194 68.2685 1.88374 67.7756 1.88371C67.2692 1.88371 66.7834 2.08256 66.4253 2.43652C66.0672 2.79047 65.866 3.27054 65.866 3.7711C65.866 4.59163 66.3955 5.27611 67.1364 5.53655L62.692 23.3969L60.4934 3.6945C60.8973 3.58977 61.2547 3.35551 61.5094 3.02847C61.7641 2.70143 61.9018 2.3001 61.9009 1.88739C61.9009 1.38682 61.6997 0.906758 61.3416 0.552804C60.9834 0.198849 60.4977 0 59.9912 0C59.4847 0 58.999 0.198849 58.6409 0.552804C58.2827 0.906758 58.0815 1.38682 58.0815 1.88739C58.0815 2.82925 58.7846 3.5891 59.6979 3.73066L57.9259 22.9257L52.776 5.59231C53.0843 5.4342 53.3427 5.19541 53.523 4.902C53.7033 4.6086 53.7986 4.27187 53.7984 3.92859C53.7984 3.5553 53.6864 3.19039 53.4766 2.88001C53.2667 2.56963 52.9685 2.32772 52.6195 2.18487C52.2706 2.04202 51.8866 2.00464 51.5162 2.07746C51.1457 2.15029 50.8054 2.33005 50.5384 2.594C50.2713 2.85796 50.0894 3.19426 50.0157 3.56038C49.942 3.92649 49.9799 4.30599 50.1244 4.65086C50.2689 4.99574 50.5137 5.29051 50.8278 5.4979C51.1418 5.70528 51.511 5.81598 51.8887 5.81598C51.916 5.81598 51.9458 5.81353 51.9724 5.8123L54.1921 23.9472L46.7127 10.752C47.082 10.4658 47.3317 10.0552 47.4142 9.59862C47.4967 9.14203 47.4062 8.67141 47.16 8.27657C46.9138 7.88173 46.5291 7.59031 46.0793 7.45793C45.6296 7.32556 45.1462 7.3615 44.7216 7.55889C44.2969 7.75628 43.9606 8.1013 43.777 8.52811C43.5933 8.95492 43.5751 9.43362 43.7257 9.87287C43.8764 10.3121 44.1855 10.6812 44.5939 10.9095C45.0024 11.1379 45.4816 11.2097 45.9402 11.1111L52.2062 29.6768C53.6359 33.9945 66.344 34.0729 68.25 29.6768L73.9089 10.502C73.9877 10.5118 74.0472 10.5253 74.1284 10.5253C74.6289 10.5165 75.1058 10.3139 75.4567 9.96111C75.8075 9.6083 76.0042 9.13346 76.0043 8.63878C76.0045 8.1441 75.8081 7.66913 75.4575 7.31609C75.1069 6.96305 74.6301 6.76017 74.1297 6.75109ZM60.0712 31.6622C56.8328 31.6622 54.2076 30.6977 54.2076 29.5076C54.2076 28.3176 56.8328 27.7587 60.0712 27.7587C63.3096 27.7587 65.5907 28.3176 65.5907 29.5076C65.5907 30.6977 63.309 31.6622 60.0712 31.6622ZM69.2767 42.7194H71.1672C72.3142 42.7194 72.716 42.9749 72.716 43.9664V56.1805C72.716 57.1444 72.3142 57.5127 71.1672 57.5127H69.2767V59.4871H88.6017V51.3781H86.7745C86.7745 55.3759 85.1723 57.4784 82.4752 57.4784H77.0525V50.981H78.1171C79.8668 50.981 80.8662 51.7476 80.8662 53.1637V54.2986H82.9625V45.2808H80.8662V46.2735C80.8662 47.6652 79.8103 48.5133 78.1171 48.5133H77.0525V42.7194H82.1026C85.8047 42.7194 86.5736 44.8261 86.7745 47.974H88.6017V40.5734H69.2767V42.7194ZM60.7755 57.4784H56.196V44.0522C56.196 43.0601 56.5978 42.72 57.7455 42.72H59.4667V40.6212H48.7818V42.72H50.2742C51.4218 42.72 51.8236 43.0601 51.8236 44.0522V56.1805C51.8236 57.1444 51.4218 57.5133 50.2742 57.5133H48.7818V59.5355H66.8915V51.2273H64.8268C64.7685 54.4874 64.7915 57.4784 60.7755 57.4784ZM35.2292 40.0445C28.6297 40.0445 24.5214 45.0743 24.4985 49.8063C24.4687 55.9311 28.5726 59.7874 35.0284 59.7874C41.8852 59.7874 45.8738 55.9881 45.8738 49.4937C45.8738 44.6815 41.5696 40.0445 35.2292 40.0445ZM35.0854 57.5562C31.6424 57.5562 29.6627 54.5131 29.6627 49.6641C29.6627 44.9285 31.7286 42.4834 35.2578 42.4834C38.6431 42.4834 40.6228 44.9854 40.6228 49.8626C40.6235 54.6265 38.6152 57.5562 35.0854 57.5562ZM113.989 42.7194H115.999V40.5948H106.285V42.7194H107.555C108.033 42.7917 108.35 43.2752 107.874 43.7464L105.174 46.8079L103.029 44.217C102.552 43.6679 102.632 42.7249 103.505 42.7249L104.486 42.7187V40.5942H93.4168V42.7187C96.197 42.7972 96.8914 43.1177 97.8952 44.3935L102.393 49.7903L96.2764 56.1486C95.1864 57.3681 95.0822 57.4771 93.4174 57.4771V59.5073H103.108V57.4771H100.789C100.101 57.4771 99.9568 56.9838 99.9568 56.6162C99.9568 56.2473 100.445 55.822 100.646 55.5665L104.061 51.747L107.477 55.7656C107.649 55.9924 107.935 56.2479 107.935 56.5316C107.935 56.9005 107.62 57.4778 106.96 57.4778H105.039V59.5079H116V57.4778C114.268 57.4778 114.113 57.3969 112.559 55.5217L106.841 48.8491L110.733 44.6882C112.166 43.1857 112.728 42.7194 113.989 42.7194ZM19.9413 54.0743V55.0456C19.9413 56.2081 19.2543 56.8031 18.6808 56.8031C17.7625 56.8031 17.7055 55.6976 17.6478 55.0456V54.2606C17.6478 51.6697 16.4567 50.6488 14.9476 49.8639C17.7594 49.2125 19.6251 47.5524 19.6251 45.2551C19.6251 42.2775 17.5591 40.5758 13.8873 40.5758H0V42.72H1.88054C3.02821 42.72 3.42998 42.9822 3.42998 43.9743V56.1462C3.42998 57.1101 3.02821 57.4784 1.88054 57.4784H0V59.4895H10.817V57.4784H9.32457C8.1769 57.4784 7.77512 57.1101 7.77512 56.1462V50.7273H9.70464C11.7706 50.7273 13.2841 51.8689 13.3988 54.0241L13.5711 56.5126C13.6858 58.7812 15.2353 60 17.9609 60C20.8589 60 21.5397 58.6108 21.5397 55.6614V54.0737H19.9413V54.0743ZM11.135 48.2657H7.7776V42.7034H10.7612C13.6306 42.7034 14.663 43.6441 14.663 45.4867C14.6636 47.3864 13.5451 48.2657 11.135 48.2657Z" fill="white"/>
</svg>
