<svg width="165" height="30" viewBox="0 0 165 30" fill="none" xmlns="http://www.w3.org/2000/svg">
<g clip-path="url(#clip0_475_26532)">
<path fill-rule="evenodd" clip-rule="evenodd" d="M70.5855 0V2.29909H61.5597V27.7568H56.8692V2.29909H47.8208V0H70.5855ZM142.371 0H144.937L162.733 19.815V0H164.995V27.7555H163.938L144.636 5.76136V27.8523L142.374 27.9055V0H142.371ZM118.105 17.0141H128.003L123.212 6.24136L118.105 17.0141ZM124.823 0L137.73 27.8673H133.049L128.86 18.7732H117.303L112.967 27.8673H110.48L123.682 0H124.821H124.823ZM110.951 0H88.1872V2.29909H97.2356V27.7568H101.922V2.29909H110.948V0H110.951ZM77.0391 0H81.7296V27.7568H77.0391V0Z" fill="white"/>
<path fill-rule="evenodd" clip-rule="evenodd" d="M28.5623 10.0636C31.0905 16.1891 27.4206 25.1414 21.5099 27.2795V4.00091H30.8909L33.3739 0H17.4807V27.9355V30C25.7147 29.4641 33.2555 22.7359 33.2555 14.2091C33.2527 12.8096 33.0738 11.4163 32.7232 10.0636H28.5623ZM15.8852 0H0L2.47234 4.00091H11.856V27.2782C6.00121 25.1618 2.18359 16.065 4.82226 10.0636H0.634718C0.28427 11.4163 0.105377 12.8096 0.10246 14.2091C0.10246 22.7359 7.64323 29.4641 15.8773 30V27.9355V0H15.8852Z" fill="white"/>
</g>
<defs>
<clipPath id="clip0_475_26532">
<rect width="165" height="30" fill="white"/>
</clipPath>
</defs>
</svg>
