<svg width="214" height="33" viewBox="0 0 214 33" fill="none" xmlns="http://www.w3.org/2000/svg">
<path d="M106.438 0L97.4366 21.6635L88.2987 0H82.5344L77.3149 33H83.0339L86.544 10.6959L95.8552 33H99.0389L108.301 10.704L111.864 33H117.657L111.996 0H106.443H106.438Z" fill="white"/>
<path d="M13.6058 33L13.6182 4.43567H0V0H33.4963V4.43567H19.6055L19.589 33H13.6016H13.6058Z" fill="white"/>
<path d="M137.66 33L137.681 0H165.487V4.906H143.354V13.7003H162.576V18.1117H143.35L143.342 28.1913H165.334V33H137.664H137.66Z" fill="white"/>
<path d="M50.8552 33L50.8717 0H56.7063L56.6525 33H50.8591H50.8552Z" fill="white"/>
<path d="M180.954 33L193.631 15.6303L182.197 0H189.522L197.487 11.0446L205.449 0H212.794L201.286 15.6303L214 32.9959H206.671L197.483 19.178L188.283 32.9959H180.95L180.954 33Z" fill="white"/>
</svg>
