<svg width="214" height="50" viewBox="0 0 214 50" fill="none" xmlns="http://www.w3.org/2000/svg">
<g clip-path="url(#clip0_475_26526)">
<path d="M55.5497 29.7877C54.2201 31.1975 52.4984 32.17 50.6103 32.5777C46.2484 33.3406 41.8453 33.8234 37.4877 34.6106C34.395 35.0664 31.3497 35.8037 28.3893 36.8134C23.8834 38.632 19.862 41.4855 16.6459 45.1463C15.4892 46.4938 14.1588 47.6796 12.6898 48.672C11.255 49.3999 9.69672 49.8487 8.09664 49.9949C9.67691 49.4595 11.1154 48.5689 12.3031 47.3908C13.4908 46.2126 14.3965 44.7777 14.9517 43.1949C15.5533 41.5788 15.7815 39.8459 15.6187 38.1278C15.4559 36.4098 14.9066 34.7516 14.0123 33.2791C13.3699 32.0595 12.4518 31.009 11.3321 30.2122C10.2123 29.4154 8.92227 28.8947 7.56593 28.692C6.25374 28.4299 4.90132 28.45 3.59741 28.7512C2.2935 29.0523 1.06756 29.6275 0 30.4391C0.562817 29.557 1.29446 28.7965 2.15225 28.2019C3.01003 27.6074 3.97679 27.1908 4.99618 26.9763C6.90412 26.5755 8.8362 26.3016 10.7799 26.1563C12.8375 25.8795 14.8087 25.1477 16.5523 24.0134C20.0348 21.8779 23.1466 19.1827 25.7642 16.0349C28.7582 12.5563 31.6912 9.012 34.7789 5.63628C36.6103 3.49557 38.9388 1.84374 41.5573 0.827714C46.0639 -0.763715 52.2605 -0.219429 55.9442 3.86057C53.3321 2.46733 50.3046 2.08226 47.4304 2.77771C44.5097 3.32288 41.9122 4.98525 40.1823 7.41629C38.1203 10.0189 36.9848 13.2425 36.9575 16.5716C36.9303 19.9006 38.0128 23.1427 40.0319 25.7791C41.7648 28.1437 44.255 29.8337 47.0821 30.564C49.9093 31.2944 52.9001 31.0201 55.5497 29.7877Z" fill="#FF721D"/>
<path d="M112.169 34.6939C111.874 34.749 111.571 34.7445 111.277 34.6808C110.984 34.617 110.705 34.4952 110.459 34.3225C110.212 34.1498 110.002 33.9295 109.841 33.6745C109.68 33.4194 109.57 33.1347 109.519 32.8367H120.196C121.63 32.8367 121.973 32.521 121.986 31.2767C121.986 30.3753 121.394 29.8567 120.172 29.8481C117.831 29.8253 115.49 29.8739 113.153 29.8739C111.461 29.8739 110.882 29.1596 111.251 27.4796C111.481 26.4239 111.762 25.371 112.067 24.3267C112.253 23.3613 112.78 22.4964 113.55 21.8914C114.321 21.2865 115.282 20.9824 116.257 21.0353C120.364 20.9839 124.487 21.0253 128.612 21.0253C128.5 22.3667 127.876 23.0353 126.585 23.0581C124.895 23.0867 123.205 23.0867 121.518 23.0867H119.247C118.932 23.0867 118.619 23.071 118.302 23.0996C117.593 23.1624 116.848 23.2267 116.773 24.1696C116.69 25.1924 117.417 25.541 118.218 25.5981C119.087 25.6653 119.961 25.6596 120.835 25.6553H121.791C123.155 25.6553 124.519 25.6253 125.877 25.6553C127.764 25.7124 128.32 26.4239 127.882 28.2624C127.608 29.4181 127.271 30.5596 126.888 31.6824C126.614 32.5871 126.048 33.3734 125.278 33.9158C124.509 34.4582 123.581 34.7256 122.643 34.6753C121.017 34.7024 119.391 34.711 117.763 34.711C115.903 34.7196 114.037 34.7039 112.169 34.6939ZM182.752 34.7053C180.447 34.7053 179.607 33.7453 180.056 31.4767C180.504 29.2081 181.026 26.9624 181.616 24.7296C181.864 23.5872 182.513 22.5735 183.445 21.8758C184.377 21.1781 185.529 20.8435 186.686 20.9339C190.164 21.0539 193.652 20.9653 197.151 20.9653C196.653 22.7853 196.286 23.0739 194.547 23.0739H189.419C187.951 23.0739 187.63 23.2996 187.291 24.6981C186.784 26.7724 186.298 28.8496 185.853 30.9353C185.592 32.1653 185.761 32.4424 187.026 32.6239C188.168 32.7523 189.316 32.8148 190.465 32.811C191.458 32.8524 192.426 32.8296 193.5 32.8296C192.909 34.4381 192.575 34.701 191.136 34.7024C189.739 34.7024 188.342 34.7024 186.945 34.7024L182.752 34.7053ZM144.957 34.7053C145.312 33.2081 145.614 31.8967 145.931 30.5881C146.575 27.9367 147.224 25.2848 147.876 22.6324C148.203 21.3139 148.623 20.9781 149.991 20.9724C151.041 20.9724 152.088 20.991 153.135 21.0081C153.287 21.0346 153.437 21.0748 153.582 21.1281C153.023 23.5167 152.492 25.8239 151.947 28.1281C151.568 29.7281 151.195 31.331 150.778 32.9224C150.395 34.3867 149.968 34.6953 148.495 34.7039L144.957 34.7053ZM209.52 34.6639C209.269 34.6639 208.906 34.2639 208.811 33.9796C208.039 31.5881 207.317 29.1824 206.541 26.631C205.386 27.3639 204.304 28.0267 203.254 28.7381C203.069 28.9395 202.952 29.1944 202.919 29.4667C202.569 30.931 202.21 32.3881 201.913 33.8653C201.907 33.9927 201.874 34.1173 201.816 34.2306C201.758 34.344 201.676 34.4435 201.577 34.5223C201.477 34.6012 201.362 34.6575 201.239 34.6876C201.116 34.7177 200.988 34.7208 200.863 34.6967C199.302 34.651 197.742 34.681 196.039 34.681C197.631 28.1096 199.183 21.7396 200.736 15.3224H206.352C205.535 18.6081 204.75 21.8524 203.924 25.2696L213.254 19.8039C213.029 21.1359 212.3 22.3284 211.22 23.131C211.098 23.1897 210.989 23.2733 210.901 23.3765C210.812 23.4797 210.746 23.6003 210.706 23.7306C210.666 23.861 210.653 23.9983 210.668 24.1338C210.683 24.2693 210.727 24.4002 210.795 24.5181C211.788 27.5439 212.736 30.5839 213.702 33.621C213.806 33.9481 213.882 34.281 213.996 34.7024C213.234 34.7024 212.493 34.711 211.76 34.711C211.002 34.711 210.258 34.711 209.516 34.671L209.52 34.6639ZM171.015 34.6953C171.583 32.3039 172.118 30.0367 172.653 27.741C170.675 27.741 168.822 27.6481 166.991 27.7981C166.672 27.8869 166.374 28.0413 166.117 28.2515C165.859 28.4617 165.648 28.7232 165.496 29.0196C165.204 29.7304 165.025 30.4829 164.965 31.2496C164.902 31.4352 164.885 31.6337 164.916 31.8273C164.948 32.021 165.027 32.2038 165.145 32.3594C165.264 32.515 165.419 32.6386 165.597 32.7192C165.775 32.7997 165.969 32.8347 166.164 32.821C167.408 32.8867 168.658 32.8353 169.936 32.8353C169.376 34.311 168.844 34.711 167.452 34.7067C165.324 34.7067 163.195 34.7253 161.067 34.6539C159.123 34.5867 158.797 34.2039 159.119 32.2653C159.362 30.961 159.694 29.6751 160.112 28.4167C160.76 26.3539 162.548 26.1767 164.27 26.1153C165.731 26.061 167.193 26.0753 168.654 26.0896C169.497 26.0981 170.341 26.1081 171.187 26.1024C171.564 26.1024 172.097 26.1596 172.285 25.9481C172.735 25.3663 173.135 24.7475 173.482 24.0981C172.914 23.7896 172.346 23.241 171.762 23.2139C169.875 23.1011 167.983 23.1278 166.1 23.2939C165.39 23.3999 164.667 23.2332 164.073 22.8269C163.48 22.4207 163.06 21.8046 162.897 21.101C163.22 21.0753 163.508 21.031 163.793 21.031H175.743C178.913 21.031 179.531 21.781 178.855 24.9153C178.204 27.9253 177.474 30.9153 176.741 33.9153C176.67 34.2139 176.339 34.6624 176.115 34.6724C175.252 34.7053 174.387 34.7124 173.51 34.7124C172.694 34.7124 171.871 34.7039 171.025 34.7039L171.015 34.6953ZM133.661 34.6953C131.802 34.6953 131.033 33.8981 131.391 32.0767C131.93 29.3353 132.621 26.6196 133.242 23.8881C133.288 23.6781 133.311 23.4796 133.363 23.1439C131.894 23.221 131.174 22.3239 130.636 20.941C131.568 20.941 132.387 20.9124 133.208 20.941C133.317 20.9656 133.43 20.9662 133.539 20.9428C133.648 20.9195 133.75 20.8727 133.84 20.8056C133.929 20.7386 134.003 20.653 134.056 20.5545C134.11 20.4561 134.141 20.3472 134.149 20.2353C134.346 19.3596 134.385 18.1596 134.955 17.7367C135.519 17.4826 136.149 17.417 136.753 17.5496C137.045 17.5739 137.336 17.5967 137.604 17.5953H140.347C140.082 18.721 139.841 19.751 139.564 20.9339H145.282C145.072 22.4481 144.525 23.0439 143.214 23.0767C141.848 23.1367 140.485 23.0953 139.099 23.0953C138.427 25.8353 137.749 28.4753 137.135 31.1267C136.891 32.1781 137.37 32.7153 138.566 32.7853C139.318 32.8281 140.073 32.8196 140.837 32.8139H142.965C142.568 34.2881 142.104 34.6896 140.804 34.6896L133.661 34.6953ZM101.382 34.6467L102.99 27.6624C100.987 27.6624 99.0823 27.5853 97.1908 27.7153C96.9033 27.7955 96.6366 27.9378 96.4092 28.1322C96.1819 28.3266 95.9992 28.5684 95.874 28.841C95.5412 29.6516 95.3155 30.5027 95.2028 31.3724C95.0609 32.161 95.5802 32.5639 96.2528 32.6753C96.9754 32.7663 97.7027 32.814 98.431 32.8181C98.99 32.8424 99.5491 32.8181 100.199 32.8181C99.874 33.8924 99.2696 34.6124 98.1784 34.6196C95.6994 34.6467 93.2233 34.5781 90.7472 34.5567C89.7171 34.5567 89.158 33.8996 89.3496 33.0096C89.721 31.1365 90.2537 29.2996 90.9416 27.5196C91.4326 26.3167 92.7395 26.071 93.9839 26.0653C96.4628 26.0653 98.9432 26.0853 101.422 26.0396C101.974 26.0696 102.518 25.9082 102.966 25.5824C103.185 25.3783 103.36 25.1302 103.478 24.8542C103.597 24.5782 103.657 24.2803 103.654 23.9796C103.602 23.6367 102.789 23.191 102.298 23.1624C100.203 23.0667 98.1046 23.1053 96.0102 23.1053C94.2833 23.1053 93.913 22.8396 93.3142 21.041C93.4756 21.0124 93.6386 20.9933 93.8023 20.9839C98.1699 20.9839 102.537 20.9639 106.905 20.9839C108.789 20.9839 109.7 21.8267 109.366 23.651C108.706 27.3653 107.781 31.0153 106.97 34.6581L101.382 34.6467ZM76.5264 34.6496C76.989 32.7024 77.443 30.821 77.8872 28.9353C78.3313 27.0496 78.7726 25.1396 79.2167 23.221C77.5948 22.9596 77.1408 22.5481 76.7733 20.9839H79.7219C80.0057 20.0524 80.237 19.1824 80.5321 18.3396C80.7479 17.3847 81.3072 16.5441 82.1022 15.9799C82.8971 15.4156 83.8715 15.1677 84.8373 15.2839H93.6348C93.3652 16.6481 92.9495 17.0167 91.7121 17.0196C90.4195 17.0196 89.1268 17.0439 87.8341 17.0196C87.6351 16.9901 87.4323 17.0005 87.2373 17.0501C87.0423 17.0998 86.859 17.1877 86.6979 17.3089C86.5368 17.4301 86.401 17.5822 86.2984 17.7563C86.1958 17.9305 86.1285 18.1234 86.1001 18.3239C85.8986 19.1681 85.6248 19.9867 85.3509 20.9596H91.3106C90.6664 22.8367 90.2903 23.1196 88.545 23.1181C87.705 23.1181 86.8678 23.1524 86.0292 23.0796C85.1906 23.0067 84.8259 23.2353 84.6358 24.1353C83.9476 27.421 83.1444 30.691 82.3768 33.9624C82.3054 34.1971 82.2196 34.4271 82.1199 34.651L76.5264 34.6496ZM160.783 21.0553C160.103 23.1624 159.764 23.3739 157.739 23.4339C156.397 23.4653 155.06 23.6167 153.778 23.7196C154.496 21.5539 156.427 20.7696 160.783 21.0553Z" fill="white"/>
</g>
<defs>
<clipPath id="clip0_475_26526">
<rect width="214" height="50" fill="white"/>
</clipPath>
</defs>
</svg>
