<svg width="261" height="14" viewBox="0 0 261 14" fill="none" xmlns="http://www.w3.org/2000/svg">
<g clip-path="url(#clip0_475_26538)">
<mask id="mask0_475_26538" style="mask-type:luminance" maskUnits="userSpaceOnUse" x="0" y="0" width="261" height="14">
<path d="M261 0H0V14H261V0Z" fill="white"/>
</mask>
<g mask="url(#mask0_475_26538)">
<path d="M132.399 0.283203H111.405V3.6703H132.399V0.283203Z" fill="#152342"/>
<path d="M132.399 3.67773H121.902V10.4608H132.399V3.67773Z" fill="#AE0029"/>
<path d="M121.902 3.67773H111.405V10.4608H121.902V3.67773Z" fill="white"/>
<path d="M132.399 10.4531H111.405V13.8403H132.399V10.4531Z" fill="#152342"/>
<path d="M5.13787 2.02171H0V0.269531H12.4487V2.02171H7.29246V13.7291H5.13787V2.02171Z" fill="white"/>
<path d="M19.124 7C19.124 2.9203 22.2547 0 26.7571 0C31.2597 0 34.3903 2.9203 34.3903 7C34.3903 11.0797 31.2597 14 26.7571 14C22.2547 14 19.124 11.0797 19.124 7ZM32.2633 7C32.2633 3.74844 29.6852 1.78705 26.7571 1.78705C23.8292 1.78705 21.2509 3.74844 21.2509 7C21.2509 10.2516 23.8292 12.213 26.7571 12.213C29.6852 12.213 32.2633 10.2516 32.2633 7Z" fill="white"/>
<path d="M44.04 13.7301V0.279297H45.992L50.826 6.08502L55.66 0.279297H57.6121V13.7388H55.6048V3.12114L50.9918 8.60433H50.6695L46.0012 3.12114V13.7388H44.0493L44.04 13.7301Z" fill="white"/>
<path d="M68.4863 13.7301V0.279297H70.4384L75.2724 6.08502L80.1064 0.279297H82.0584V13.7388H80.0512V3.12114L75.4381 8.60433H75.1158L70.4475 3.12114V13.7388H68.4955L68.4863 13.7301Z" fill="white"/>
<path d="M96.0082 6.98186L90.4468 0.269531H92.9051L97.0305 5.22968L101.173 0.269531H103.696L98.0709 6.98186V13.7291H96.0172V6.98186H96.0082Z" fill="white"/>
<path d="M145.656 13.7291V0.269531H147.663V6.07525H155.665V0.269531H157.718V13.7291H155.665V7.84487H147.663V13.7291H145.656Z" fill="white"/>
<path d="M168.159 0.269531V13.7291H166.124V0.269531H168.159Z" fill="white"/>
<path d="M176.529 13.7291V0.269531H178.582V11.9943H185.018V13.7291H176.529Z" fill="white"/>
<path d="M190.801 13.7291V0.269531H198.397V1.96069H192.854V5.72657H198.397V7.41772H192.854V13.7203H190.801V13.7291Z" fill="white"/>
<path d="M207.605 0.269531V13.7291H205.569V0.269531H207.605Z" fill="white"/>
<path d="M234.859 0.269531H242.944V2.02171H236.913V6.07525H242.723V7.82744H236.913V12.003H243.128V13.7378H234.859V0.269531Z" fill="white"/>
<path d="M250.033 13.7291V0.269531H253.312C256.111 0.269531 258.283 1.38535 258.283 4.01797C258.283 5.64811 257.188 6.88597 255.807 7.22594C256.617 7.7054 257.372 8.42022 258.588 10.2072L261 13.7291H258.542L257.482 12.1512C256.139 10.155 255.632 9.47502 255.272 9.09142C254.462 8.22844 253.753 7.84487 252.41 7.84487H252.114V13.7291H250.024H250.033ZM253.192 6.18858C254.859 6.18858 256.139 5.61324 256.139 3.97439C256.139 2.23964 254.49 1.88224 252.621 1.88224H252.124V6.18858H253.192Z" fill="white"/>
<path d="M221.923 13.9215C217.356 13.9215 214.06 11.2105 214.06 7.11332C214.06 3.01619 217.411 0 221.84 0C223.46 0 225.173 0.383562 226.895 1.11582V3.11208C225.209 2.23164 223.46 1.76962 221.794 1.76962C218.322 1.76962 216.251 4.21046 216.251 7C216.251 9.96389 218.285 12.1955 222.042 12.1955C223.018 12.1955 224.077 12.0038 225.127 11.6725V8.83068H222.282V7.07845H227.18V12.8493C225.413 13.599 223.626 13.9303 221.923 13.9303V13.9215Z" fill="white"/>
</g>
</g>
<defs>
<clipPath id="clip0_475_26538">
<rect width="261" height="14" fill="white"/>
</clipPath>
</defs>
</svg>
