<svg width="180" height="42" viewBox="0 0 180 42" fill="none" xmlns="http://www.w3.org/2000/svg">
<g clip-path="url(#clip0_1054_378)">
<path d="M46.724 25.0217C45.6057 26.2059 44.1575 27.0228 42.5694 27.3653C38.9005 28.0061 35.197 28.4117 31.5317 29.0729C28.9303 29.4557 26.3689 30.0751 23.8788 30.9233C20.0889 32.4509 16.7064 34.8478 14.0012 37.9229C13.0283 39.0548 11.9092 40.0509 10.6737 40.8845C9.46686 41.4959 8.15612 41.8729 6.81025 41.9957C8.13946 41.5459 9.3494 40.7979 10.3484 39.8082C11.3474 38.8186 12.1092 37.6133 12.5762 36.2837C13.0822 34.9262 13.2741 33.4706 13.1372 32.0274C13.0003 30.5842 12.5382 29.1913 11.786 27.9545C11.2457 26.93 10.4735 26.0475 9.53165 25.3782C8.58981 24.7089 7.50472 24.2715 6.36387 24.1013C5.26015 23.8811 4.12261 23.898 3.02586 24.151C1.92911 24.4039 0.897949 24.8871 0 25.5689C0.473397 24.8279 1.0888 24.189 1.8103 23.6896C2.5318 23.1902 3.34496 22.8402 4.20239 22.6601C5.8072 22.3234 7.43232 22.0933 9.0672 21.9713C10.7979 21.7388 12.4559 21.1241 13.9225 20.1713C16.8517 18.3774 19.4691 16.1135 21.6708 13.4693C24.1891 10.5473 26.6562 7.57008 29.2533 4.73448C30.7937 2.93628 32.7522 1.54874 34.9547 0.69528C38.7453 -0.64152 43.9575 -0.18432 47.0558 3.24288C44.8588 2.07255 42.3122 1.7491 39.8947 2.33328C37.4381 2.79122 35.2533 4.18761 33.7982 6.22968C32.0638 8.41586 31.1087 11.1237 31.0858 13.9201C31.0628 16.7165 31.9734 19.4398 33.6717 21.6545C35.1292 23.6407 37.2238 25.0603 39.6018 25.6738C41.9797 26.2873 44.4954 26.0569 46.724 25.0217Z" fill="#FF721D"/>
<path d="M94.3483 29.1424C94.0999 29.1887 93.8448 29.1849 93.5978 29.1314C93.3508 29.0778 93.1169 28.9755 92.9095 28.8304C92.7022 28.6853 92.5255 28.5003 92.3898 28.2861C92.254 28.0718 92.1619 27.8327 92.1188 27.5824H101.1C102.305 27.5824 102.594 27.3172 102.605 26.272C102.605 25.5148 102.107 25.0792 101.08 25.072C99.1104 25.0528 97.1411 25.0936 95.1754 25.0936C93.7527 25.0936 93.2657 24.4936 93.5761 23.0824C93.7694 22.1956 94.0057 21.3112 94.2623 20.434C94.419 19.6231 94.8621 18.8965 95.5099 18.3883C96.1577 17.8802 96.9664 17.6248 97.7868 17.6692C101.241 17.626 104.709 17.6608 108.179 17.6608C108.085 18.7876 107.559 19.3492 106.473 19.3684C105.052 19.3924 103.63 19.3924 102.211 19.3924H100.302C100.037 19.3924 99.7728 19.3792 99.5067 19.4032C98.9099 19.456 98.2833 19.51 98.2201 20.302C98.1508 21.1612 98.7619 21.454 99.4363 21.502C100.167 21.5584 100.902 21.5536 101.637 21.55H102.442C103.589 21.55 104.736 21.5248 105.878 21.55C107.465 21.598 107.933 22.1956 107.564 23.74C107.334 24.7108 107.051 25.6696 106.729 26.6128C106.498 27.3727 106.022 28.0331 105.374 28.4888C104.727 28.9445 103.947 29.1691 103.158 29.1268C101.79 29.1496 100.422 29.1568 99.0531 29.1568C97.4884 29.164 95.9189 29.1508 94.3483 29.1424ZM153.716 29.152C151.778 29.152 151.072 28.3456 151.449 26.44C151.826 24.5344 152.265 22.648 152.762 20.7724C152.97 19.8128 153.516 18.9613 154.3 18.3752C155.084 17.7892 156.052 17.5081 157.026 17.584C159.951 17.6848 162.885 17.6104 165.828 17.6104C165.409 19.1392 165.1 19.3816 163.638 19.3816H159.325C158.09 19.3816 157.82 19.5712 157.535 20.746C157.108 22.4884 156.699 24.2332 156.326 25.9852C156.106 27.0184 156.248 27.2512 157.311 27.4036C158.272 27.5115 159.238 27.564 160.204 27.5608C161.04 27.5956 161.854 27.5764 162.757 27.5764C162.26 28.9276 161.979 29.1484 160.769 29.1496C159.594 29.1496 158.419 29.1496 157.243 29.1496L153.716 29.152ZM121.927 29.152C122.225 27.8944 122.48 26.7928 122.746 25.6936C123.288 23.4664 123.833 21.2388 124.382 19.0108C124.657 17.9032 125.01 17.6212 126.16 17.6164C127.044 17.6164 127.924 17.632 128.805 17.6464C128.933 17.6686 129.059 17.7023 129.181 17.7472C128.711 19.7536 128.265 21.6916 127.806 23.6272C127.488 24.9712 127.174 26.3176 126.823 27.6544C126.501 28.8844 126.141 29.1436 124.902 29.1508L121.927 29.152ZM176.232 29.1172C176.021 29.1172 175.716 28.7812 175.636 28.5424C174.986 26.5336 174.379 24.5128 173.726 22.3696C172.754 22.9852 171.845 23.542 170.962 24.1396C170.806 24.3087 170.708 24.5229 170.68 24.7516C170.385 25.9816 170.083 27.2056 169.834 28.4464C169.829 28.5534 169.801 28.658 169.752 28.7533C169.703 28.8485 169.635 28.932 169.551 28.9983C169.467 29.0645 169.37 29.1119 169.267 29.1371C169.163 29.1624 169.055 29.165 168.951 29.1448C167.638 29.1064 166.325 29.1316 164.893 29.1316C166.232 23.6116 167.537 18.2608 168.843 12.8704H173.567C172.88 15.6304 172.22 18.3556 171.525 21.226L179.372 16.6348C179.183 17.7537 178.57 18.7554 177.662 19.4296C177.559 19.4789 177.468 19.5491 177.393 19.6358C177.319 19.7225 177.263 19.8238 177.229 19.9333C177.195 20.0428 177.185 20.1581 177.198 20.2719C177.211 20.3858 177.247 20.4957 177.304 20.5948C178.14 23.1364 178.937 25.69 179.75 28.2412C179.837 28.516 179.901 28.7956 179.997 29.1496C179.356 29.1496 178.733 29.1568 178.116 29.1568C177.478 29.1568 176.853 29.1568 176.229 29.1232L176.232 29.1172ZM143.845 29.1436C144.322 27.1348 144.772 25.2304 145.222 23.302C143.558 23.302 142 23.224 140.46 23.35C140.191 23.4246 139.941 23.5542 139.724 23.7308C139.508 23.9073 139.33 24.127 139.202 24.376C138.957 24.973 138.806 25.6051 138.756 26.2492C138.702 26.4051 138.688 26.5718 138.715 26.7345C138.741 26.8972 138.808 27.0507 138.907 27.1814C139.007 27.3121 139.138 27.416 139.287 27.4836C139.437 27.5513 139.601 27.5807 139.764 27.5692C140.811 27.6244 141.862 27.5812 142.937 27.5812C142.466 28.8208 142.019 29.1568 140.848 29.1532C139.058 29.1532 137.267 29.1688 135.477 29.1088C133.842 29.0524 133.567 28.7308 133.838 27.1024C134.043 26.0068 134.322 24.9266 134.674 23.8696C135.219 22.1368 136.723 21.988 138.171 21.9364C139.4 21.8908 140.63 21.9028 141.859 21.9148C142.568 21.922 143.278 21.9304 143.989 21.9256C144.307 21.9256 144.754 21.9736 144.913 21.796C145.291 21.3073 145.628 20.7874 145.919 20.242C145.442 19.9828 144.964 19.522 144.473 19.4992C142.886 19.4044 141.294 19.4269 139.711 19.5664C139.113 19.6554 138.505 19.5154 138.006 19.1742C137.507 18.8329 137.154 18.3154 137.017 17.7244C137.288 17.7028 137.53 17.6656 137.77 17.6656H147.822C150.488 17.6656 151.007 18.2956 150.439 20.9284C149.891 23.4568 149.278 25.9684 148.661 28.4884C148.601 28.7392 148.323 29.116 148.134 29.1244C147.409 29.152 146.681 29.158 145.943 29.158C145.257 29.158 144.565 29.1508 143.853 29.1508L143.845 29.1436ZM112.425 29.1436C110.862 29.1436 110.215 28.474 110.516 26.944C110.969 24.6412 111.551 22.36 112.073 20.0656C112.111 19.8892 112.131 19.7224 112.175 19.4404C110.939 19.5052 110.333 18.7516 109.881 17.59C110.665 17.59 111.354 17.566 112.045 17.59C112.136 17.6106 112.231 17.6111 112.323 17.5915C112.414 17.5719 112.501 17.5326 112.576 17.4763C112.651 17.42 112.713 17.348 112.758 17.2653C112.803 17.1826 112.829 17.0912 112.836 16.9972C113.002 16.2616 113.034 15.2536 113.514 14.8984C113.988 14.6849 114.518 14.6298 115.026 14.7412C115.272 14.7616 115.517 14.7808 115.742 14.7796H118.049C117.826 15.7252 117.623 16.5904 117.39 17.584H122.2C122.024 18.856 121.563 19.3564 120.46 19.384C119.312 19.4344 118.165 19.3996 116.999 19.3996C116.434 21.7012 115.864 23.9188 115.347 26.146C115.142 27.0292 115.545 27.4804 116.551 27.5392C117.184 27.5752 117.819 27.568 118.461 27.5632H120.251C119.917 28.8016 119.527 29.1388 118.434 29.1388L112.425 29.1436ZM85.2751 29.1028L86.6274 23.236C84.9421 23.236 83.3404 23.1712 81.7494 23.2804C81.5077 23.3478 81.2833 23.4673 81.0921 23.6305C80.9008 23.7938 80.7472 23.997 80.6419 24.226C80.3619 24.9069 80.1721 25.6218 80.0773 26.3524C79.958 27.0148 80.3948 27.3532 80.9605 27.4468C81.5683 27.5232 82.1801 27.5633 82.7926 27.5668C83.2628 27.5872 83.7331 27.5668 84.2797 27.5668C84.0064 28.4692 83.498 29.074 82.5801 29.08C80.495 29.1028 78.4124 29.0452 76.3297 29.0272C75.4632 29.0272 74.9929 28.4752 75.154 27.7276C75.4665 26.1542 75.9145 24.6112 76.4932 23.116C76.9061 22.1056 78.0054 21.8992 79.0521 21.8944C81.1372 21.8944 83.2234 21.9112 85.3085 21.8728C85.7723 21.898 86.2307 21.7624 86.6071 21.4888C86.7915 21.3173 86.9383 21.1089 87.038 20.8771C87.1376 20.6452 87.188 20.395 87.1859 20.1424C87.1418 19.8544 86.4579 19.48 86.0449 19.456C84.2833 19.3756 82.5181 19.408 80.7564 19.408C79.3039 19.408 78.9924 19.1848 78.4887 17.674C78.6245 17.6499 78.7616 17.6339 78.8993 17.626C82.573 17.626 86.2466 17.6092 89.9203 17.626C91.5053 17.626 92.2715 18.334 91.9899 19.8664C91.4349 22.9864 90.6567 26.0524 89.9752 29.1124L85.2751 29.1028ZM64.3682 29.1052C64.7573 27.4696 65.1392 25.8892 65.5128 24.3052C65.8863 22.7212 66.2575 21.1168 66.6311 19.5052C65.2669 19.2856 64.885 18.94 64.5758 17.626H67.056C67.2947 16.8436 67.4892 16.1128 67.7375 15.4048C67.919 14.6027 68.3894 13.8966 69.0581 13.4226C69.7267 12.9486 70.5463 12.7404 71.3586 12.838H78.7585C78.5317 13.984 78.182 14.2936 77.1412 14.296C76.0539 14.296 74.9666 14.3164 73.8793 14.296C73.712 14.2712 73.5414 14.2799 73.3774 14.3216C73.2134 14.3633 73.0592 14.4372 72.9236 14.539C72.7881 14.6408 72.6739 14.7686 72.5877 14.9149C72.5014 15.0612 72.4447 15.2232 72.4209 15.3916C72.2514 16.1008 72.021 16.7884 71.7907 17.6056H76.8035C76.2616 19.1824 75.9453 19.42 74.4773 19.4188C73.7707 19.4188 73.0666 19.4476 72.3612 19.3864C71.6558 19.3252 71.3491 19.5172 71.1891 20.2732C70.6103 23.0332 69.9348 25.78 69.2891 28.528C69.2291 28.7251 69.1569 28.9183 69.073 29.1064L64.3682 29.1052ZM135.238 17.686C134.667 19.456 134.381 19.6336 132.678 19.684C131.549 19.7104 130.425 19.8376 129.346 19.924C129.95 18.1048 131.574 17.446 135.238 17.686Z" fill="black"/>
</g>
<defs>
<clipPath id="clip0_1054_378">
<rect width="180" height="42" fill="white"/>
</clipPath>
</defs>
</svg>
