<svg width="200" height="60" viewBox="0 0 200 60" fill="none" xmlns="http://www.w3.org/2000/svg">
<g clip-path="url(#clip0_1054_408)">
<path d="M96.0589 13.7328C96.1582 13.7328 96.1582 13.7328 96.2595 13.7328C96.3356 13.7327 96.4117 13.7326 96.4901 13.7324C96.5747 13.7326 96.6593 13.7328 96.7465 13.733C96.8356 13.733 96.9247 13.7329 97.0165 13.7328C97.2649 13.7327 97.5134 13.733 97.7618 13.7333C98.0293 13.7336 98.2967 13.7335 98.5642 13.7334C99.028 13.7334 99.4918 13.7336 99.9556 13.734C100.626 13.7345 101.297 13.7347 101.967 13.7348C103.055 13.7349 104.143 13.7354 105.231 13.736C106.288 13.7367 107.345 13.7371 108.402 13.7374C108.501 13.7374 108.501 13.7374 108.601 13.7375C109.116 13.7376 109.63 13.7377 110.144 13.7379C112.667 13.7385 115.19 13.7399 117.713 13.7411C117.713 16.9405 117.713 20.1398 117.713 23.4362C117.357 23.4362 117 23.4362 116.633 23.4362C116.514 23.3172 116.52 23.1421 116.492 22.9807C116.478 22.8998 116.464 22.8189 116.45 22.7355C116.435 22.6501 116.42 22.5647 116.405 22.4768C116.19 21.2206 116.19 21.2206 115.823 20.0025C115.798 19.9338 115.773 19.8652 115.747 19.7945C115.314 18.5278 115.314 18.5278 114.473 17.5787C114.473 17.5121 114.473 17.4454 114.473 17.3768C114.406 17.3545 114.34 17.3323 114.271 17.3094C114.226 17.2636 114.182 17.2178 114.136 17.1706C113.248 16.2674 112.048 15.8958 110.828 15.6936C110.759 15.6816 110.69 15.6697 110.618 15.6574C109.914 15.5489 109.219 15.5361 108.507 15.5377C108.309 15.5379 108.11 15.5363 107.911 15.5346C107.783 15.5345 107.654 15.5344 107.526 15.5345C107.467 15.5339 107.409 15.5332 107.349 15.5326C106.853 15.5363 106.212 15.6184 105.833 15.9629C105.582 16.4517 105.488 16.9087 105.485 17.4555C105.485 17.5033 105.484 17.5512 105.484 17.6005C105.483 17.7604 105.482 17.9203 105.482 18.0802C105.481 18.195 105.481 18.3098 105.48 18.4246C105.478 18.736 105.477 19.0475 105.475 19.3589C105.474 19.6845 105.472 20.01 105.47 20.3355C105.467 20.9519 105.464 21.5683 105.461 22.1846C105.457 22.8864 105.454 23.5882 105.45 24.2899C105.442 25.7334 105.435 27.1768 105.428 28.6203C105.665 28.6002 105.901 28.5795 106.138 28.5588C106.204 28.5531 106.271 28.5475 106.339 28.5417C107.593 28.4308 108.665 28.1341 109.558 27.198C110.749 25.7676 111.103 23.7511 111.258 21.9481C111.287 21.6318 111.287 21.6318 111.436 21.4837C111.653 21.4682 111.653 21.4682 111.912 21.4711C112.041 21.4717 112.041 21.4717 112.172 21.4724C112.381 21.4837 112.381 21.4837 112.448 21.551C112.455 21.7595 112.457 21.9666 112.456 22.1751C112.456 22.2746 112.456 22.2746 112.457 22.3761C112.457 22.6001 112.456 22.8241 112.456 23.0481C112.456 23.208 112.456 23.3679 112.456 23.5277C112.456 23.9179 112.456 24.3082 112.455 24.6984C112.455 25.1523 112.455 25.6061 112.455 26.06C112.454 26.8695 112.454 27.679 112.453 28.4885C112.453 29.275 112.452 30.0615 112.452 30.8481C112.452 30.8965 112.452 30.945 112.452 30.9949C112.452 31.2379 112.452 31.481 112.452 31.724C112.451 33.7416 112.45 35.7592 112.448 37.7768C112.27 37.7786 112.091 37.7799 111.912 37.781C111.861 37.7815 111.811 37.7821 111.758 37.7827C111.628 37.7833 111.498 37.7803 111.368 37.7768C111.252 37.6608 111.275 37.5011 111.262 37.3426C111.069 35.2716 110.745 32.9448 109.141 31.448C108.904 31.2699 108.68 31.1376 108.398 31.0441C108.398 30.9996 108.398 30.9552 108.398 30.9094C107.626 30.6539 106.843 30.5121 106.035 30.4321C105.947 30.4231 105.947 30.4231 105.858 30.414C105.714 30.3994 105.571 30.3851 105.428 30.3708C105.432 31.9457 105.438 33.5207 105.444 35.0956C105.447 35.8269 105.45 36.5582 105.452 37.2895C105.453 37.9272 105.455 38.5648 105.459 39.2025C105.46 39.5399 105.461 39.8773 105.462 40.2147C105.462 40.5328 105.464 40.8509 105.466 41.1689C105.466 41.2852 105.466 41.4015 105.466 41.5177C105.454 42.7307 105.454 42.7307 105.98 43.7901C106.833 44.5723 108.304 44.4126 109.383 44.3675C111.53 44.2566 113.573 43.4636 115.069 41.8889C115.188 41.755 115.304 41.6183 115.418 41.4797C115.46 41.4301 115.503 41.3804 115.546 41.3293C116.763 39.8647 117.791 37.8702 118.253 36.0263C118.654 36.0263 119.055 36.0263 119.468 36.0263C119.468 36.3779 119.464 36.6615 119.411 36.9994C119.398 37.082 119.385 37.1646 119.372 37.2498C119.358 37.3396 119.344 37.4294 119.33 37.5193C119.315 37.6149 119.3 37.7106 119.285 37.8063C119.253 38.011 119.221 38.2156 119.189 38.4202C119.113 38.9084 119.037 39.3968 118.962 39.8852C118.935 40.0541 118.909 40.2229 118.883 40.3917C118.762 41.1713 118.644 41.9514 118.528 42.7318C118.521 42.7843 118.513 42.8368 118.505 42.8909C118.43 43.3968 118.355 43.9028 118.28 44.4088C118.26 44.5494 118.239 44.69 118.218 44.8306C118.193 45.0017 118.167 45.1729 118.142 45.3441C118.131 45.4189 118.12 45.4937 118.109 45.5708C118.099 45.6361 118.089 45.7013 118.079 45.7685C118.051 45.9233 118.051 45.9233 117.983 46.0579C115.172 46.0595 112.362 46.0607 109.551 46.0614C109.219 46.0615 108.888 46.0616 108.557 46.0616C108.491 46.0617 108.425 46.0617 108.357 46.0617C107.287 46.062 106.217 46.0625 105.147 46.0631C104.049 46.0638 102.952 46.0641 101.855 46.0643C101.178 46.0644 100.5 46.0647 99.8227 46.0652C99.3588 46.0656 98.8948 46.0657 98.4309 46.0656C98.1628 46.0655 97.8947 46.0656 97.6266 46.066C97.3816 46.0663 97.1366 46.0663 96.8916 46.0661C96.7601 46.066 96.6286 46.0663 96.4971 46.0666C96.3816 46.0664 96.3816 46.0664 96.2637 46.0662C96.1967 46.0663 96.1297 46.0663 96.0606 46.0663C95.9107 46.0579 95.9107 46.0579 95.8432 45.9906C95.8365 45.8006 95.8338 45.6126 95.8348 45.4225C95.8345 45.3694 95.8343 45.3162 95.834 45.2615C95.8347 44.8631 95.8347 44.8631 95.9107 44.7114C96.0502 44.6757 96.0502 44.6757 96.2332 44.6488C96.3 44.6383 96.3667 44.6278 96.4356 44.617C96.5754 44.5961 96.7154 44.5754 96.8553 44.5549C97.5071 44.452 98.169 44.2926 98.6107 43.7688C99.0908 43.0327 99.1032 42.2517 99.1004 41.3976C99.1005 41.2945 99.1007 41.1913 99.101 41.0882C99.1016 40.8062 99.1013 40.5243 99.1009 40.2423C99.1006 39.9376 99.101 39.633 99.1014 39.3283C99.102 38.7321 99.1019 38.1359 99.1015 37.5396C99.1012 37.0549 99.1011 36.5703 99.1013 36.0856C99.1013 36.0165 99.1013 35.9475 99.1013 35.8764C99.1014 35.7361 99.1014 35.5959 99.1015 35.4556C99.1019 34.1411 99.1014 32.8265 99.1007 31.512C99.1001 30.3846 99.1002 29.2571 99.1008 28.1297C99.1015 26.8198 99.1018 25.5099 99.1014 24.2C99.1014 24.0603 99.1013 23.9205 99.1013 23.7808C99.1013 23.7121 99.1012 23.6433 99.1012 23.5725C99.1011 23.0885 99.1013 22.6045 99.1016 22.1206C99.102 21.5306 99.1019 20.9406 99.1012 20.3506C99.1008 20.0498 99.1007 19.7489 99.1011 19.448C99.1015 19.1723 99.1013 18.8966 99.1006 18.621C99.1004 18.5215 99.1005 18.422 99.1008 18.3225C99.1037 17.3942 99.0194 16.506 98.4082 15.7609C97.8216 15.2731 97.0675 15.2025 96.335 15.1232C96.1391 15.0918 96.0111 15.0541 95.8432 14.953C95.8414 14.7636 95.8401 14.5743 95.839 14.3849C95.8384 14.3309 95.8379 14.2769 95.8373 14.2212C95.8367 14.0836 95.8397 13.946 95.8432 13.8084C95.9107 13.7411 95.9107 13.7411 96.0589 13.7328Z" fill="black"/>
<path d="M52.0931 14.7507C52.9951 15.2329 52.9951 15.2329 53.9923 15.2222C54.5164 14.9608 54.7614 14.3006 54.9573 13.776C55.0036 13.6362 55.0482 13.4959 55.0908 13.355C55.1398 13.2024 55.1398 13.2024 55.2073 13.1351C55.388 13.1284 55.5666 13.1257 55.7473 13.1267C55.7979 13.1264 55.8486 13.1262 55.9008 13.1259C56.2788 13.1266 56.2788 13.1266 56.3548 13.2024C56.3615 13.3463 56.3633 13.4903 56.3634 13.6344C56.3635 13.68 56.3636 13.7256 56.3637 13.7727C56.364 13.9268 56.3638 14.0808 56.3635 14.2349C56.3636 14.3449 56.3638 14.455 56.3639 14.565C56.3642 14.8646 56.3641 15.1642 56.3639 15.4638C56.3637 15.7767 56.3639 16.0895 56.364 16.4024C56.3641 16.9279 56.3639 17.4533 56.3636 17.9788C56.3632 18.5872 56.3634 19.1957 56.3637 19.8041C56.364 20.3255 56.3641 20.8469 56.3639 21.3683C56.3638 21.6801 56.3638 21.992 56.364 22.3038C56.3642 22.5969 56.3641 22.89 56.3637 23.1831C56.3636 23.291 56.3636 23.3989 56.3638 23.5068C56.3639 23.6534 56.3637 23.8001 56.3634 23.9467C56.3634 24.029 56.3633 24.1113 56.3633 24.196C56.3548 24.3787 56.3548 24.3787 56.2873 24.446C56.1165 24.4509 55.9476 24.4522 55.7768 24.4502C55.7049 24.4497 55.7049 24.4497 55.6314 24.4493C55.5125 24.4485 55.3937 24.4473 55.2748 24.446C55.063 23.9525 54.8659 23.455 54.6788 22.9518C54.5631 22.6411 54.4422 22.333 54.3166 22.0262C54.2679 21.9019 54.2266 21.7749 54.1864 21.6477C54.1449 21.473 54.1449 21.473 53.9923 21.4163C53.9123 21.2532 53.8377 21.09 53.7645 20.924C52.9111 19.0609 51.5666 17.0974 49.8748 15.8955C49.808 15.8733 49.7412 15.851 49.6723 15.8282C49.6723 15.7837 49.6723 15.7393 49.6723 15.6935C49.6022 15.6672 49.6022 15.6672 49.5307 15.6404C49.3128 15.5497 49.1089 15.4418 48.9003 15.3316C47.6426 14.6882 46.287 14.5854 44.9389 15.0034C43.2714 15.6 42.2829 16.9144 41.5301 18.4455C40.9385 19.6988 40.6152 21.0707 40.3573 22.4262C40.3473 22.4785 40.3374 22.5308 40.3271 22.5847C40.2618 22.9348 40.2063 23.2858 40.1548 23.6381C40.1463 23.6946 40.1378 23.7511 40.129 23.8093C39.8335 25.8058 39.8041 27.8066 39.8007 29.8203C39.8004 29.9721 39.7999 30.124 39.7994 30.2758C39.7935 32.1004 39.8237 33.9378 40.1042 35.7442C40.1114 35.7921 40.1186 35.8399 40.126 35.8891C40.3704 37.5097 40.7301 39.0653 41.3023 40.6044C41.3222 40.6582 41.3421 40.7119 41.3626 40.7673C41.7917 41.8973 42.4618 42.9252 43.3273 43.7688C43.3746 43.8181 43.422 43.8675 43.4707 43.9184C44.4013 44.8307 45.7667 45.1809 47.0314 45.1994C48.1372 45.1896 49.2438 45.0806 50.071 44.2703C50.6258 43.623 50.7061 42.825 50.7023 42.0022C50.7025 41.9378 50.7027 41.8733 50.703 41.8068C50.7036 41.5962 50.7032 41.3855 50.7027 41.1748C50.7028 41.0269 50.703 40.8789 50.7031 40.731C50.7033 40.4218 50.703 40.1127 50.7024 39.8035C50.7016 39.4091 50.7021 39.0147 50.7029 38.6203C50.7034 38.3151 50.7032 38.0098 50.7029 37.7045C50.7028 37.5592 50.7029 37.4138 50.7032 37.2685C50.7512 35.6606 50.7512 35.6606 50.0267 34.2841C49.5524 33.9748 49.0924 33.8286 48.5332 33.7581C48.4744 33.75 48.4155 33.7418 48.3549 33.7334C47.9827 33.6831 47.6103 33.6414 47.2354 33.6166C47.1073 33.6024 47.1073 33.6024 46.9723 33.5351C46.9723 33.113 46.9723 32.6908 46.9723 32.2559C51.2714 32.2559 55.5705 32.2559 59.9998 32.2559C59.9998 32.678 59.9998 33.1002 59.9998 33.5351C59.4718 33.6856 59.4718 33.6856 59.2344 33.7323C59.1835 33.7428 59.1327 33.7533 59.0802 33.7642C58.9765 33.7853 58.8726 33.806 58.7686 33.8262C58.1348 33.959 57.6632 34.1982 57.2998 34.747C56.6724 36.0161 56.8165 37.6378 56.8304 39.0144C56.8339 39.434 56.8335 39.8535 56.8338 40.273C56.8344 40.6391 56.8363 41.0051 56.841 41.3712C56.8454 41.7295 56.8463 42.0877 56.8446 42.446C56.8447 42.5814 56.846 42.7169 56.8487 42.8523C56.8688 43.9024 56.8688 43.9024 56.6004 44.2365C56.411 44.3766 56.2311 44.4784 56.0173 44.5767C55.9068 44.6412 55.7965 44.7063 55.6869 44.7723C55.5768 44.8315 55.4661 44.8897 55.355 44.947C55.2638 44.994 55.2638 44.994 55.1708 45.042C53.6108 45.8263 51.8312 46.3306 50.1142 46.6333C49.9934 46.6547 49.8727 46.6773 49.7522 46.7006C47.7328 47.0857 45.4688 47.1543 43.4623 46.6638C43.4095 46.6519 43.3567 46.64 43.3022 46.6278C41.2061 46.1525 39.3497 45.0181 37.7923 43.5668C37.734 43.5131 37.6757 43.4593 37.6156 43.404C37.0673 42.8801 36.6179 42.2929 36.1723 41.6816C36.1313 41.6255 36.0903 41.5693 36.0481 41.5115C34.3353 39.0458 33.431 36.0493 33.0871 33.0974C33.0715 32.9648 33.0524 32.8326 33.0321 32.7006C32.9793 32.2774 32.9873 31.8509 32.9861 31.4251C32.9859 31.3787 32.9857 31.3322 32.9855 31.2844C32.9845 31.0375 32.9839 30.7907 32.9836 30.5439C32.9833 30.3435 32.9824 30.1432 32.9808 29.9429C32.9714 28.7027 33.0084 27.4923 33.2023 26.2638C33.2157 26.1774 33.2291 26.0911 33.243 26.0021C33.2762 25.8063 33.3133 25.6123 33.3542 25.418C33.3683 25.3496 33.3824 25.2813 33.3969 25.2108C34.265 21.1518 36.3123 17.1724 39.8679 14.8477C43.8477 12.328 48.0228 12.6631 52.0931 14.7507Z" fill="black"/>
<path d="M65.0629 13.7402C69.2951 13.7402 73.5274 13.7402 77.8879 13.7402C77.8879 14.1624 77.8879 14.5845 77.8879 15.0194C77.6926 15.0451 77.6926 15.0451 77.4934 15.0713C77.3211 15.0946 77.1489 15.118 76.9766 15.1415C76.891 15.1526 76.8054 15.1638 76.7172 15.1753C76.0502 15.2671 75.4441 15.3633 74.9854 15.8947C74.6024 16.494 74.4258 17.1775 74.3663 17.8795C74.3609 17.9399 74.3555 18.0003 74.35 18.0625C74.2864 18.8499 74.2915 19.6382 74.2929 20.4275C74.2927 20.6009 74.2925 20.7743 74.2922 20.9476C74.2916 21.3662 74.2917 21.7849 74.2921 22.2035C74.2924 22.5446 74.2924 22.8857 74.2923 23.2269C74.2923 23.3003 74.2923 23.3003 74.2922 23.3752C74.2922 23.4746 74.2922 23.5741 74.2921 23.6736C74.2917 24.6026 74.2922 25.5316 74.2929 26.4606C74.2935 27.253 74.2934 28.0454 74.2928 28.8378C74.292 29.763 74.2918 30.6882 74.2922 31.6134C74.2922 31.7126 74.2923 31.8119 74.2923 31.9111C74.2923 31.9599 74.2923 32.0087 74.2924 32.059C74.2925 32.3983 74.2923 32.7377 74.292 33.077C74.2915 33.5366 74.2919 33.9962 74.2926 34.4559C74.2928 34.6228 74.2928 34.7897 74.2925 34.9565C74.291 35.851 74.3123 36.7413 74.3695 37.6338C74.3746 37.7155 74.3796 37.7973 74.3849 37.8815C74.5238 39.8616 75.0388 41.981 76.5083 43.4061C77.1429 43.9546 77.878 44.2358 78.6979 44.3739C78.7715 44.387 78.7715 44.387 78.8466 44.4005C80.2756 44.6177 81.9785 44.2914 83.1529 43.4313C83.3899 43.2405 83.6106 43.0382 83.8279 42.8254C83.9051 42.7508 83.9051 42.7508 83.984 42.6747C85.2297 41.3911 85.6748 39.5169 85.933 37.8053C85.9443 37.7326 85.9556 37.6599 85.9672 37.585C86.1519 36.2804 86.1329 34.9513 86.1316 33.6366C86.1317 33.4783 86.1318 33.3199 86.132 33.1616C86.1323 32.7367 86.1321 32.3117 86.1319 31.8868C86.1318 31.4851 86.1319 31.0834 86.132 30.6816C86.1322 29.8382 86.132 28.9947 86.1316 28.1512C86.1313 27.43 86.1314 26.7088 86.1317 25.9876C86.132 25.146 86.1322 24.3043 86.132 23.4627C86.1319 23.0186 86.1318 22.5746 86.1321 22.1306C86.1323 21.7134 86.1321 21.2962 86.1317 20.879C86.1316 20.7267 86.1317 20.5744 86.1318 20.4221C86.16 18.8918 86.16 18.8918 85.9415 17.3843C85.9238 17.313 85.9238 17.313 85.9058 17.2402C85.7047 16.4845 85.2837 15.9272 84.606 15.5268C83.9432 15.2138 83.1956 15.1335 82.4779 15.0194C82.4779 14.5973 82.4779 14.1752 82.4779 13.7402C85.2622 13.7402 88.0466 13.7402 90.9154 13.7402C90.9154 14.1624 90.9154 14.5845 90.9154 15.0194C90.7288 15.068 90.5423 15.1166 90.3501 15.1667C89.5726 15.38 88.9534 15.6038 88.4854 16.2987C87.9873 17.2849 88.0605 18.4095 88.061 19.4818C88.0606 19.6476 88.0601 19.8135 88.0596 19.9794C88.0586 20.3357 88.058 20.692 88.0577 21.0483C88.0573 21.5657 88.0561 22.0831 88.0546 22.6005C88.0522 23.4432 88.0503 24.2859 88.0488 25.1286C88.0487 25.1789 88.0486 25.2292 88.0485 25.2811C88.0478 25.6379 88.0472 25.9946 88.0466 26.3514C88.0459 26.7567 88.0452 27.162 88.0445 27.5673C88.0444 27.6172 88.0443 27.6671 88.0442 27.7185C88.0427 28.5567 88.0406 29.3949 88.0382 30.2331C88.0369 30.7021 88.0359 31.171 88.0355 31.64C88.0317 36.4128 88.0317 36.4128 87.7218 38.2261C87.7069 38.3164 87.692 38.4066 87.6772 38.4968C87.5575 39.2101 87.409 39.9103 87.2029 40.6036C87.186 40.6612 87.1691 40.7189 87.1518 40.7782C86.4727 43.0597 85.1485 44.7301 83.0558 45.8761C82.1985 46.326 81.2617 46.5958 80.3179 46.7977C80.2674 46.8096 80.217 46.8216 80.1651 46.834C79.5512 46.9657 78.9347 46.9592 78.3097 46.9576C78.2512 46.9575 78.1927 46.9574 78.1324 46.9573C75.8607 46.9487 73.4793 46.3758 71.6779 44.9125C71.6779 44.8681 71.6779 44.8236 71.6779 44.7779C71.6234 44.7561 71.6234 44.7561 71.5679 44.7339C70.2326 43.977 69.2782 42.1847 68.7754 40.8056C68.7583 40.759 68.7413 40.7125 68.7237 40.6645C68.589 40.282 68.5037 39.9001 68.4336 39.5011C68.4222 39.4367 68.4107 39.3723 68.3989 39.3059C68.3275 38.8925 68.2674 38.4791 68.2227 38.062C68.2155 37.9944 68.2155 37.9944 68.2081 37.9254C68.0949 36.7563 68.0902 35.5869 68.0897 34.4135C68.0894 34.2333 68.0891 34.0531 68.0887 33.8729C68.0879 33.4872 68.0874 33.1015 68.0869 32.7157C68.0862 32.105 68.0848 31.4943 68.0833 30.8836C68.0828 30.6739 68.0823 30.4642 68.0818 30.2544C68.0817 30.2021 68.0816 30.1497 68.0815 30.0957C68.08 29.5016 68.0788 28.9076 68.0776 28.3135C68.0774 28.2593 68.0773 28.2051 68.0772 28.1492C68.0754 27.2702 68.0742 26.3911 68.0731 25.512C68.0719 24.6063 68.0699 23.7006 68.0673 22.7949C68.0658 22.2379 68.0648 21.6809 68.0647 21.124C68.0645 20.7421 68.0637 20.3602 68.0622 19.9783C68.0614 19.7587 68.061 19.539 68.0613 19.3193C68.0887 17.5281 68.0887 17.5281 67.4254 15.8947C67.3365 15.8259 67.2467 15.7582 67.1554 15.6927C67.1554 15.6483 67.1554 15.6038 67.1554 15.5581C67.0955 15.5386 67.0356 15.5192 66.974 15.4991C66.7504 15.4234 66.7504 15.4234 66.6061 15.3574C66.291 15.2455 65.9616 15.214 65.6311 15.1697C65.5784 15.1619 65.5258 15.154 65.4716 15.1459C65.4239 15.1394 65.3762 15.1328 65.327 15.1261C65.1658 15.077 65.0971 15.0181 64.9954 14.8848C64.9789 14.7089 64.9732 14.5508 64.9785 14.3756C64.979 14.3064 64.979 14.3064 64.9795 14.2358C64.9849 13.8958 64.9849 13.8958 65.0629 13.7402Z" fill="black"/>
<path d="M139.165 14.3535C139.572 14.5215 140.033 14.5596 140.452 14.4144C140.845 14.0457 140.942 13.5044 141.068 13.0005C141.491 13.0005 141.914 13.0005 142.35 13.0005C142.35 16.4443 142.35 19.888 142.35 23.4361C141.972 23.4361 141.593 23.4361 141.203 23.4361C141.013 22.887 140.86 22.3303 140.71 21.769C140.605 21.386 140.486 21.027 140.317 20.6675C140.246 20.5151 140.192 20.3598 140.14 20.2002C139.78 19.1958 139.221 18.2298 138.59 17.3741C138.503 17.2421 138.503 17.2421 138.503 17.1074C138.458 17.1074 138.414 17.1074 138.368 17.1074C138.28 17.0036 138.197 16.8962 138.115 16.7876C137.238 15.7018 136.025 14.8895 134.617 14.7005C134.518 14.693 134.418 14.6876 134.318 14.6837C134.255 14.681 134.192 14.6783 134.127 14.6755C133.134 14.6539 132.238 14.8736 131.472 15.5284C131.348 15.6262 131.348 15.6262 131.145 15.6936C131.097 15.7815 131.052 15.8717 131.01 15.9629C130.937 16.0632 130.862 16.1627 130.787 16.2616C129.935 17.4618 129.878 19.0656 130.107 20.4716C130.377 21.9243 131.376 22.9662 132.559 23.7938C132.717 23.9 132.876 24.0051 133.035 24.1094C133.086 24.1427 133.137 24.1759 133.189 24.2102C133.803 24.6133 134.421 25.0099 135.046 25.3967C135.435 25.638 135.821 25.8834 136.208 26.1292C136.589 26.3714 136.969 26.6135 137.353 26.8513C137.48 26.9303 137.607 27.0097 137.734 27.0891C137.897 27.191 138.06 27.292 138.224 27.392C139.141 27.9517 139.995 28.5057 140.73 29.2936C140.791 29.3581 140.852 29.4227 140.915 29.4892C142.703 31.5078 143.445 34.1828 143.447 36.8257C143.447 36.8816 143.447 36.9374 143.447 36.9949C143.446 37.8109 143.42 38.5959 143.228 39.3926C143.216 39.4447 143.204 39.4967 143.192 39.5504C142.635 41.9455 141.387 44.2009 139.28 45.5774C138.511 46.0543 137.684 46.4119 136.815 46.6639C136.743 46.6852 136.743 46.6852 136.669 46.7071C134.947 47.1873 132.847 47.094 131.145 46.5965C131.1 46.5839 131.054 46.5714 131.007 46.5584C130.347 46.3745 129.719 46.0946 129.091 45.8267C128.222 45.4122 128.222 45.4122 127.298 45.452C126.973 45.7341 126.871 46.0556 126.758 46.4619C126.713 46.6174 126.669 46.7729 126.623 46.9332C126.2 46.9332 125.776 46.9332 125.34 46.9332C125.339 45.3893 125.338 43.8455 125.337 42.3017C125.336 41.5849 125.336 40.8682 125.335 40.1514C125.335 39.5269 125.334 38.9024 125.334 38.2779C125.334 37.947 125.334 37.6161 125.333 37.2853C125.333 36.9742 125.333 36.6631 125.333 36.3521C125.333 36.2376 125.333 36.1231 125.332 36.0085C125.332 35.8529 125.332 35.6973 125.332 35.5416C125.332 35.4543 125.332 35.367 125.332 35.277C125.34 35.0837 125.34 35.0837 125.408 35.0163C125.601 35.0114 125.793 35.0101 125.986 35.0121C126.04 35.0124 126.095 35.0127 126.151 35.013C126.286 35.0138 126.42 35.015 126.555 35.0163C126.667 35.2181 126.722 35.3993 126.763 35.6257C126.776 35.6928 126.788 35.7599 126.802 35.829C126.815 35.9011 126.828 35.9731 126.842 36.0473C127.359 38.7014 128.204 41.4473 130.133 43.4322C130.174 43.4781 130.215 43.524 130.257 43.5713C131.189 44.5775 132.588 45.1158 133.94 45.1963C135.277 45.214 136.425 44.9 137.423 43.9708C138.473 42.797 138.84 41.0589 138.773 39.5272C138.676 38.0074 138.078 36.83 136.948 35.8043C136.143 35.1081 135.195 34.5833 134.284 34.04C134.08 33.9182 133.878 33.7944 133.677 33.6698C133.409 33.5048 133.14 33.3417 132.871 33.1798C132.168 32.757 131.471 32.3348 130.808 31.852C130.739 31.8024 130.67 31.7529 130.599 31.7018C130.206 31.4145 129.837 31.1124 129.479 30.7832C129.335 30.6511 129.188 30.5232 129.04 30.396C127.584 29.1236 126.576 27.4949 126.015 25.6579C125.998 25.6071 125.981 25.5564 125.963 25.5041C125.29 23.3545 125.515 20.4027 126.353 18.3193C126.372 18.2708 126.39 18.2223 126.41 18.1724C126.801 17.1725 127.286 16.3208 127.973 15.4916C128.007 15.4478 128.041 15.4039 128.076 15.3588C129.169 14.0145 130.956 13.3026 132.63 13.0678C132.713 13.0555 132.796 13.0432 132.881 13.0305C135.145 12.7576 137.136 13.4236 139.165 14.3535Z" fill="black"/>
<path d="M162.887 13.9931C163.026 14.0527 163.165 14.1122 163.305 14.1715C163.429 14.2244 163.553 14.2778 163.677 14.3312C164.081 14.4937 164.461 14.5275 164.895 14.4812C165.313 14.2464 165.453 13.859 165.583 13.4166C165.623 13.2791 165.663 13.1416 165.705 13C166.128 13 166.551 13 166.988 13C166.988 16.4438 166.988 19.8875 166.988 23.4356C166.587 23.4356 166.186 23.4356 165.773 23.4356C165.738 23.2996 165.703 23.1635 165.667 23.0233C164.884 20.057 163.647 16.8854 160.873 15.2536C160.262 14.9289 159.581 14.711 158.888 14.6832C158.83 14.6805 158.773 14.6778 158.714 14.675C157.555 14.647 156.613 14.972 155.765 15.7693C154.712 16.8856 154.6 18.2944 154.629 19.7527C154.66 20.6798 154.931 21.5592 155.513 22.2911C155.56 22.3509 155.607 22.4107 155.656 22.4723C156.397 23.3395 157.377 23.9924 158.348 24.5802C158.55 24.7072 158.753 24.8352 158.955 24.9631C159.067 25.0335 159.179 25.1039 159.29 25.1743C159.617 25.3802 159.944 25.5861 160.271 25.7921C160.378 25.8594 160.485 25.9267 160.592 25.9941C160.806 26.1287 161.019 26.2634 161.233 26.398C161.286 26.4314 161.339 26.4647 161.394 26.4991C161.5 26.5662 161.607 26.6333 161.713 26.7004C161.986 26.8724 162.259 27.0441 162.532 27.2154C162.801 27.384 163.07 27.5534 163.338 27.7234C163.461 27.8016 163.585 27.879 163.71 27.9563C164.223 28.2837 164.667 28.6639 165.098 29.0911C165.145 29.1385 165.145 29.1385 165.194 29.1868C166.455 30.4513 167.28 32.1035 167.717 33.8208C167.731 33.8724 167.744 33.924 167.757 33.9772C167.985 34.9294 168.027 35.8595 168.025 36.8337C168.025 36.8978 168.025 36.962 168.025 37.0281C168.023 37.9733 167.987 38.8806 167.73 39.796C167.717 39.8452 167.703 39.8944 167.69 39.9451C167.603 40.2593 167.501 40.566 167.393 40.8733C167.369 40.9444 167.345 41.0156 167.32 41.0889C166.553 43.2331 165.062 45.0521 163.005 46.0679C162.5 46.3052 161.986 46.5006 161.453 46.6634C161.402 46.6787 161.352 46.694 161.301 46.7098C158.625 47.4728 155.834 46.7698 153.369 45.6948C152.743 45.4204 152.743 45.4204 152.07 45.3842C151.762 45.5192 151.641 45.6676 151.517 45.9691C151.475 46.0878 151.434 46.207 151.395 46.3267C151.375 46.3857 151.354 46.4446 151.334 46.5053C151.285 46.6473 151.239 46.7899 151.193 46.9327C150.792 46.9327 150.391 46.9327 149.978 46.9327C149.978 43.0001 149.978 39.0676 149.978 35.0158C150.378 35.0158 150.779 35.0158 151.193 35.0158C151.225 35.1697 151.258 35.3236 151.292 35.4821C151.731 37.525 152.238 39.4859 153.218 41.3446C153.238 41.3847 153.259 41.4249 153.28 41.4663C154.076 43.0033 155.355 44.3491 157.01 44.9465C158.302 45.3193 159.839 45.3546 161.048 44.7109C162.29 43.9547 162.863 42.8535 163.214 41.4897C163.549 40.0466 163.444 38.3622 162.667 37.0817C161.527 35.3347 159.46 34.3833 157.721 33.3335C156.292 32.4702 154.909 31.5854 153.69 30.4376C153.648 30.398 153.605 30.3583 153.561 30.3174C152.494 29.3114 151.378 28.029 150.923 26.6C150.923 26.5111 150.923 26.4223 150.923 26.3307C150.878 26.3085 150.833 26.2863 150.788 26.2634C150.736 26.1119 150.736 26.1119 150.688 25.9123C150.662 25.8032 150.662 25.8032 150.635 25.692C150.617 25.6153 150.599 25.5387 150.581 25.4597C150.563 25.3853 150.545 25.311 150.526 25.2344C150.325 24.3901 150.299 23.5716 150.298 22.7077C150.298 22.6523 150.298 22.5969 150.298 22.5399C150.299 21.6794 150.338 20.8462 150.518 20.002C150.527 19.9561 150.536 19.9103 150.546 19.863C150.995 17.7313 151.974 15.6162 153.825 14.3465C156.686 12.5402 159.88 12.695 162.887 13.9931Z" fill="black"/>
</g>
<defs>
<clipPath id="clip0_1054_408">
<rect width="135" height="34" fill="white" transform="translate(33 13)"/>
</clipPath>
</defs>
</svg>
