<svg width="200" height="60" viewBox="0 0 200 60" fill="none" xmlns="http://www.w3.org/2000/svg">
<g clip-path="url(#clip0_1054_385)">
<path d="M65.544 15.7324C65.5922 15.7324 65.6403 15.7324 65.69 15.7324C66.4057 17.3885 67.1183 19.0458 67.8267 20.705C68.0192 21.1558 68.2119 21.6064 68.4047 22.0571C68.4757 22.2232 68.5467 22.3892 68.6177 22.5553C68.6524 22.6366 68.6872 22.7179 68.723 22.8017C72.3415 31.2646 72.3415 31.2646 72.4543 31.5283C72.5279 31.7004 72.6014 31.8724 72.6751 32.0445C72.8467 32.4457 73.0181 32.847 73.1884 33.2488C73.219 33.3207 73.2496 33.3927 73.2811 33.4668C73.338 33.6009 73.3949 33.7351 73.4516 33.8693C73.4764 33.9278 73.5013 33.9863 73.5269 34.0465C73.5485 34.0975 73.5701 34.1484 73.5923 34.2009C73.6391 34.3182 73.6391 34.3182 73.72 34.391C73.7663 34.2826 73.8126 34.1742 73.859 34.0659C73.9012 33.9671 73.9434 33.8684 73.9856 33.7696C74.1064 33.4872 74.2272 33.2047 74.3479 32.9222C74.6003 32.3318 74.8528 31.7415 75.1058 31.1514C75.199 30.934 75.2922 30.7166 75.3853 30.4992C75.4081 30.4458 75.431 30.3925 75.4546 30.3375C75.7765 29.5856 76.0929 28.8315 76.4047 28.0752C76.5857 27.6382 76.777 27.2087 76.9787 26.7809C77.114 26.4822 77.2326 26.1773 77.3521 25.8721C77.4678 25.5789 77.5922 25.2921 77.7259 25.0068C77.8991 24.6367 78.0614 24.2635 78.2186 23.8864C78.462 23.3028 78.7089 22.7207 78.9577 22.1394C78.995 22.0525 79.0322 21.9655 79.0705 21.8759C79.1469 21.6975 79.2234 21.519 79.2998 21.3406C79.5203 20.8256 79.7404 20.3105 79.9606 19.7953C80.1281 19.4036 80.2956 19.0119 80.4636 18.6203C80.8753 17.6606 81.2851 16.7005 81.677 15.7324C81.7493 15.7324 81.8215 15.7324 81.896 15.7324C81.9301 15.8443 81.9301 15.8443 81.9648 15.9584C82.3778 17.3131 82.794 18.6663 83.2307 20.0135C83.4558 20.7087 83.6762 21.4054 83.8944 22.1028C83.911 22.1559 83.9276 22.209 83.9447 22.2637C84.0126 22.481 84.0806 22.6983 84.1485 22.9156C84.3442 23.5413 84.5413 24.1666 84.7384 24.7919C84.7754 24.9092 84.8124 25.0266 84.8494 25.144C85.0122 25.6606 85.1751 26.1772 85.3381 26.6938C85.7995 28.1565 86.2587 29.62 86.7166 31.0839C87.1414 32.4419 87.5681 33.7993 87.9962 35.1563C88.1589 35.6722 88.3214 36.1881 88.4839 36.704C88.5753 36.994 88.6666 37.2839 88.758 37.5739C88.7945 37.6897 88.831 37.8056 88.8675 37.9214C88.8855 37.9788 88.9036 38.0361 88.9222 38.0952C89.0865 38.6166 89.0865 38.6166 89.1412 38.7903C89.1778 38.9063 89.2143 39.0223 89.2508 39.1382C89.3415 39.426 89.4321 39.7137 89.5227 40.0015C89.6939 40.5454 89.8655 41.0892 90.0378 41.6328C90.1194 41.89 90.2008 42.1474 90.2823 42.4047C90.3212 42.5276 90.3602 42.6504 90.3993 42.7733C90.4534 42.9434 90.5072 43.1136 90.561 43.2838C90.577 43.3339 90.593 43.384 90.6095 43.4356C90.6887 43.6868 90.7654 43.9345 90.802 44.1958C90.729 44.269 90.729 44.269 90.5539 44.2778C90.4763 44.2776 90.3986 44.2775 90.3186 44.2773C90.1871 44.2773 90.1871 44.2773 90.0529 44.2773C89.9575 44.2769 89.862 44.2765 89.7637 44.2762C89.6656 44.276 89.5675 44.2759 89.4694 44.2758C89.2108 44.2756 88.9522 44.2748 88.6936 44.274C88.4298 44.2733 88.1661 44.273 87.9024 44.2726C87.3846 44.2718 86.8668 44.2705 86.349 44.269C86.1805 43.8923 86.0467 43.5148 85.9261 43.1203C85.9069 43.0582 85.8877 42.9962 85.8679 42.9323C85.8044 42.727 85.7414 42.5216 85.6783 42.3163C85.6335 42.1713 85.5888 42.0263 85.544 41.8813C85.3982 41.409 85.2531 40.9366 85.108 40.4641C85.0825 40.3813 85.0571 40.2984 85.0309 40.2131C84.568 38.7058 84.568 38.7058 84.342 37.9676C84.1238 37.2551 83.9045 36.5431 83.6799 35.8327C83.4098 34.9785 83.1439 34.1231 82.8772 33.2679C82.8134 33.0632 82.7496 32.8586 82.6858 32.654C82.5915 32.3518 82.4972 32.0496 82.403 31.7474C82.3876 31.6981 82.3723 31.6489 82.3565 31.5982C82.1197 30.8384 81.8851 30.0779 81.6537 29.3164C81.4991 28.81 81.3351 28.3073 81.166 27.8056C81.1441 27.8577 81.1221 27.9098 81.0996 27.9634C80.3971 29.632 79.6867 31.297 78.9673 32.9583C78.6382 33.7185 78.3114 34.4798 77.9859 35.2416C77.9628 35.2957 77.9397 35.3498 77.9158 35.4056C77.7187 35.8671 77.5216 36.3287 77.3246 36.7903C76.9012 37.7822 76.476 38.7733 76.0474 39.763C75.6913 40.5852 75.3387 41.4089 74.987 42.2329C74.5924 43.157 74.1946 44.0796 73.793 45.0007C73.7207 45.0007 73.6484 45.0007 73.574 45.0007C73.5546 44.9546 73.5353 44.9084 73.5153 44.8609C73.1199 43.9191 72.7209 42.9791 72.3147 42.0419C71.9809 41.2715 71.6484 40.5006 71.318 39.7287C71.2718 39.6208 71.2255 39.5129 71.1792 39.405C70.9368 38.8396 70.6981 38.2732 70.4663 37.7034C70.2878 37.2652 70.0971 36.835 69.8967 36.4063C69.6355 35.8358 69.394 35.2564 69.1484 34.6791C69.0895 34.5411 69.0306 34.403 68.9718 34.265C68.8553 33.992 68.7389 33.719 68.6226 33.446C68.386 32.8907 68.1485 32.3358 67.911 31.7809C67.7323 31.3631 67.5539 30.9453 67.3761 30.5271C67.2767 30.2932 67.177 30.0594 67.0774 29.8256C67.0291 29.7122 66.9809 29.5987 66.9327 29.4853C66.8654 29.3266 66.7978 29.168 66.7302 29.0095C66.7106 28.963 66.6909 28.9165 66.6707 28.8686C66.5267 28.5318 66.3667 28.2054 66.201 27.8788C65.7869 29.1655 65.3842 30.4555 64.9874 31.7477C64.3821 33.717 64.3821 33.717 64.1106 34.5755C63.943 35.1056 63.7773 35.6363 63.6118 36.1671C63.5972 36.2139 63.5826 36.2607 63.5675 36.3089C63.4757 36.6034 63.3839 36.8979 63.2921 37.1924C63.244 37.3469 63.1958 37.5013 63.1477 37.6557C62.8203 38.7055 62.4932 39.7553 62.168 40.8057C62.1446 40.8812 62.1212 40.9567 62.0972 41.0345C61.9904 41.3792 61.8838 41.7239 61.7774 42.0687C61.1328 44.1539 61.1328 44.1539 61.018 44.269C60.8836 44.2759 60.7489 44.2776 60.6143 44.2773C60.5281 44.2773 60.4419 44.2773 60.353 44.2773C60.2592 44.2769 60.1654 44.2765 60.0687 44.2762C59.9255 44.276 59.9255 44.276 59.7793 44.2758C59.525 44.2756 59.2707 44.2748 59.0164 44.274C58.7571 44.2733 58.4978 44.273 58.2384 44.2726C57.7293 44.2718 57.2201 44.2705 56.711 44.269C56.6361 43.9466 56.6585 43.7704 56.7654 43.4544C56.7875 43.3878 56.7875 43.3878 56.81 43.3198C56.8426 43.2218 56.8755 43.124 56.9087 43.0262C57.0033 42.7477 57.0948 42.4682 57.1869 42.1888C57.2172 42.0972 57.2172 42.0972 57.2482 42.0037C57.5072 41.2191 57.7518 40.4299 57.9976 39.641C58.0979 39.3195 58.1983 38.998 58.2987 38.6766C58.3241 38.5953 58.3495 38.514 58.3756 38.4303C58.5577 37.8472 58.7405 37.2643 58.9238 36.6815C58.9628 36.5574 58.9628 36.5574 59.0026 36.4308C59.0551 36.2639 59.1076 36.0971 59.1601 35.9302C59.5739 34.6147 59.9852 33.2984 60.3929 31.9809C60.7021 30.9816 61.0161 29.9842 61.3384 28.9891C61.5609 28.3016 61.7786 27.6127 61.9944 26.923C62.011 26.8698 62.0276 26.8167 62.0447 26.762C62.1127 26.5448 62.1806 26.3275 62.2485 26.1103C62.4442 25.4845 62.6413 24.8592 62.8384 24.2339C62.8754 24.1166 62.9124 23.9992 62.9494 23.8818C63.1122 23.3652 63.2751 22.8487 63.4381 22.3321C63.508 22.1104 63.5779 21.8887 63.6478 21.667C63.683 21.5555 63.7182 21.4439 63.7534 21.3323C63.9916 20.5771 64.2283 19.8214 64.4641 19.0654C64.5173 18.8949 64.5705 18.7245 64.6237 18.554C64.7276 18.221 64.8314 17.8879 64.935 17.5548C64.9829 17.401 65.0309 17.2473 65.0789 17.0935C65.1005 17.0237 65.1222 16.954 65.1445 16.8821C65.2659 16.4936 65.3976 16.1122 65.544 15.7324Z" fill="black"/>
<path d="M130.514 15.9366C130.613 15.9464 130.613 15.9464 130.715 15.9564C134.505 16.3488 138.002 18.1102 140.461 21.0595C140.534 21.1503 140.607 21.2414 140.68 21.333C140.729 21.3957 140.729 21.3957 140.78 21.4597C140.954 21.6862 141.082 21.8988 141.172 22.1699C140.768 22.5017 140.359 22.8202 139.929 23.1174C139.646 23.3134 139.364 23.5121 139.083 23.711C139.031 23.7472 138.98 23.7834 138.927 23.8207C138.615 24.0413 138.309 24.2679 138.008 24.5038C137.887 24.5845 137.887 24.5845 137.741 24.5845C137.638 24.457 137.54 24.325 137.445 24.1912C135.922 22.1025 133.644 20.7026 131.098 20.2674C128.352 19.8831 125.572 20.4837 123.338 22.1483C121.237 23.762 119.781 26.1169 119.425 28.7682C119.214 30.5107 119.307 32.2987 119.929 33.9504C119.948 34.002 119.968 34.0535 119.988 34.1067C120.933 36.6081 122.737 38.596 125.162 39.7302C126.109 40.1435 127.085 40.3961 128.105 40.5357C128.164 40.5453 128.222 40.5548 128.282 40.5646C129.888 40.7981 131.563 40.512 133.069 39.9504C133.158 39.9173 133.247 39.8842 133.339 39.85C134.367 39.4358 135.308 38.8593 136.135 38.1211C136.201 38.0657 136.267 38.0104 136.334 37.9533C137.694 36.7767 138.617 35.1477 139.128 33.4382C135.972 33.4382 132.817 33.4382 129.565 33.4382C129.565 32.0618 129.565 30.6855 129.565 29.2674C134.263 29.2674 138.96 29.2674 143.8 29.2674C143.885 30.7951 143.885 30.7951 143.819 31.426C143.812 31.4968 143.805 31.5676 143.797 31.6406C143.504 34.491 142.516 37.2245 140.661 39.4382C140.626 39.4808 140.591 39.5234 140.554 39.5673C139.894 40.3629 139.21 41.0624 138.398 41.7065C138.29 41.7949 138.29 41.7949 138.18 41.8851C135.326 44.187 131.557 45.1448 127.939 44.8152C126.797 44.6901 125.686 44.4225 124.601 44.0479C124.53 44.0239 124.53 44.0239 124.457 43.9994C122.513 43.3379 120.82 42.1693 119.345 40.7552C119.278 40.6913 119.21 40.6273 119.14 40.5615C117.491 38.9622 116.359 36.918 115.622 34.7552C115.592 34.6678 115.563 34.5804 115.532 34.4903C114.421 30.9075 114.919 26.923 116.642 23.6299C116.667 23.5827 116.692 23.5356 116.717 23.487C116.74 23.4431 116.763 23.3992 116.787 23.354C117.299 22.3802 117.956 21.5018 118.707 20.7005C118.846 20.5539 118.846 20.5539 118.98 20.3406C119.028 20.3406 119.077 20.3406 119.126 20.3406C119.145 20.2972 119.164 20.2538 119.183 20.2091C119.281 20.0326 119.378 19.9388 119.532 19.8101C119.691 19.6762 119.848 19.5432 120 19.4008C121.446 18.0427 123.436 17.009 125.331 16.4626C125.467 16.4234 125.467 16.4234 125.605 16.3834C127.184 15.9481 128.884 15.7748 130.514 15.9366Z" fill="black"/>
<path d="M45.8341 16.6106C45.8881 16.6278 45.9421 16.645 45.9977 16.6628C47.3593 17.1054 48.676 17.7575 49.8062 18.6425C49.9242 18.7342 50.0442 18.8225 50.1648 18.9106C51.6036 19.9792 52.8122 21.3572 53.7181 22.9033C53.7429 22.9446 53.7677 22.9859 53.7932 23.0284C54.7852 24.6871 55.3957 26.4828 55.6891 28.3911C55.6968 28.4393 55.7045 28.4876 55.7124 28.5373C55.7853 29.075 55.7757 29.6189 55.7756 30.1604C55.7758 30.3325 55.7771 30.5046 55.7785 30.6767C55.7825 31.7231 55.673 32.727 55.4245 33.7463C55.4056 33.8238 55.3868 33.9013 55.3674 33.9812C54.7934 36.2516 53.6449 38.3944 52.0391 40.0984C51.9597 40.1926 51.8806 40.2872 51.8019 40.3819C49.5335 42.9656 45.9532 44.5956 42.5519 44.8427C40.4919 44.9522 38.5129 44.7331 36.5631 44.0496C36.5121 44.032 36.461 44.0144 36.4084 43.9963C34.5015 43.3288 32.8477 42.2092 31.3801 40.8301C31.326 40.7796 31.326 40.7796 31.2709 40.7282C29.1096 38.6949 27.6973 35.908 27.1461 33.0008C27.1332 32.9377 27.1202 32.8747 27.1069 32.8097C26.9759 32.0909 26.9754 31.3761 26.9771 30.6474C26.9773 30.4326 26.9756 30.2179 26.9737 30.0031C26.9699 28.8644 27.0828 27.7579 27.3879 26.6578C27.4112 26.5723 27.4112 26.5723 27.4349 26.4851C28.248 23.5776 29.9834 20.9833 32.3291 19.0984C32.3887 19.0484 32.4482 18.9984 32.5096 18.9469C32.9806 18.5554 33.4814 18.2384 34.0081 17.9277C34.1264 17.8552 34.1264 17.8552 34.2471 17.7813C35.7221 16.8991 37.354 16.3692 39.0451 16.0984C39.1267 16.0842 39.2083 16.0701 39.2923 16.0555C41.4815 15.6902 43.7278 15.9274 45.8341 16.6106ZM33.8621 23.3423C33.2323 24.0298 32.7509 24.7815 32.3291 25.6106C32.3055 25.6558 32.2819 25.7011 32.2576 25.7477C31.8786 26.4795 31.6421 27.2243 31.4531 28.0252C31.4297 28.1186 31.4062 28.212 31.3821 28.3082C30.8473 30.7864 31.3483 33.3646 32.5481 35.5618C32.5841 35.6285 32.62 35.6952 32.657 35.7639C33.9424 38.0241 36.1457 39.6185 38.6161 40.3403C40.7457 40.9165 42.9702 40.7922 45.0311 40.0252C45.121 39.9921 45.2108 39.959 45.3034 39.9249C47.7047 38.9649 49.632 36.9773 50.6704 34.6255C51.2224 33.3236 51.4691 32.0236 51.4726 30.6138C51.4733 30.4471 51.4756 30.2805 51.4779 30.1139C51.493 28.0138 50.826 25.9019 49.5571 24.2203C49.508 24.155 49.4589 24.0896 49.4083 24.0223C47.8064 21.9817 45.4797 20.4963 42.8772 20.1733C39.4367 19.8239 36.2875 20.8448 33.8621 23.3423Z" fill="black"/>
<path d="M158.035 15C158.107 15 158.18 15 158.254 15C159.102 16.6201 159.102 16.6201 159.413 17.25C159.671 17.772 159.939 18.2884 160.207 18.8049C160.575 19.5128 160.936 20.2233 161.288 20.9391C161.503 21.374 161.727 21.8037 161.953 22.2325C162.399 23.0779 162.823 23.9344 163.247 24.7911C163.628 25.5604 164.014 26.3263 164.416 27.0852C164.693 27.6105 164.958 28.1413 165.222 28.6738C165.598 29.4343 165.977 30.1925 166.376 30.9412C166.684 31.5236 166.975 32.115 167.268 32.7055C167.581 33.3357 167.9 33.9623 168.229 34.5839C168.515 35.1243 168.787 35.6713 169.058 36.2195C169.404 36.9186 169.751 37.6163 170.117 38.3049C170.513 39.0511 170.886 39.8088 171.262 40.5655C171.586 41.2176 171.911 41.8687 172.252 42.5122C172.28 42.5653 172.308 42.6183 172.337 42.673C172.388 42.7698 172.44 42.8665 172.491 42.9633C172.604 43.1766 172.716 43.3904 172.827 43.6052C172.861 43.6707 172.895 43.7363 172.93 43.8038C173 43.9756 173 43.9756 173 44.2683C172.397 44.2819 171.795 44.2923 171.192 44.2986C170.912 44.3017 170.632 44.3058 170.352 44.3125C170.081 44.3188 169.811 44.3223 169.541 44.3238C169.438 44.3249 169.335 44.327 169.232 44.3302C168.427 44.3539 168.427 44.3539 168.188 44.1467C168.092 43.9952 168.025 43.8513 167.963 43.6829C167.929 43.6195 167.895 43.5561 167.86 43.4908C167.832 43.4352 167.805 43.3797 167.777 43.3225C167.746 43.2589 167.715 43.1953 167.683 43.1298C167.65 43.0633 167.618 42.9968 167.584 42.9284C167.323 42.3987 167.058 41.8723 166.781 41.3506C166.46 40.7425 166.151 40.1289 165.846 39.5122C165.702 39.2224 165.557 38.9327 165.408 38.6341C160.614 38.6583 155.82 38.6824 150.881 38.7073C150.431 39.5694 149.995 40.4131 149.585 41.2912C149.307 41.8793 148.997 42.4506 148.691 43.0244C148.474 43.4349 148.257 43.8454 148.034 44.2683C146.492 44.2683 144.951 44.2683 143.362 44.2683C143.289 44.0488 143.289 44.0488 143.343 43.8982C143.372 43.8407 143.402 43.7833 143.432 43.7241C143.465 43.6594 143.497 43.5947 143.531 43.5281C143.567 43.4585 143.603 43.3888 143.64 43.3171C143.678 43.2441 143.715 43.1712 143.753 43.096C144.001 42.6104 144.255 42.1282 144.511 41.6467C144.845 41.014 145.161 40.3724 145.479 39.7317C145.846 38.9933 146.214 38.2564 146.601 37.5289C146.893 36.9799 147.167 36.4226 147.444 35.8659C147.745 35.2591 148.052 34.6563 148.369 34.0577C148.657 33.5148 148.93 32.9653 149.202 32.4146C149.548 31.7156 149.895 31.0178 150.261 30.3293C150.684 29.5327 151.082 28.7235 151.482 27.9151C151.759 27.3549 152.042 26.7981 152.334 26.2454C152.727 25.5033 153.1 24.7523 153.473 24C153.873 23.1909 154.278 22.385 154.7 21.587C155.001 21.0159 155.289 20.4383 155.575 19.8595C155.985 19.0326 156.394 18.2064 156.829 17.3923C157.248 16.6037 157.639 15.8003 158.035 15ZM158.108 24.2927C157.833 24.8443 157.558 25.3959 157.283 25.9481C157.174 26.1684 157.064 26.3886 156.955 26.6088C156.899 26.7201 156.844 26.8313 156.789 26.9426C156.461 27.6045 156.127 28.2627 155.779 28.9146C155.475 29.4852 155.19 30.0653 154.903 30.6452C154.519 31.4232 154.122 32.1942 153.723 32.9641C153.602 33.1954 153.483 33.4269 153.363 33.6585C153.316 33.7498 153.316 33.7498 153.267 33.8429C153.122 34.1031 153.122 34.1031 153.071 34.3902C156.444 34.3902 159.816 34.3902 163.291 34.3902C162.77 33.2806 162.77 33.2806 162.214 32.1905C161.893 31.5801 161.581 30.9657 161.274 30.3476C161.011 29.8168 160.745 29.2881 160.467 28.7652C160.043 27.9696 159.646 27.1605 159.247 26.3526C158.903 25.6595 158.549 24.9734 158.181 24.2927C158.157 24.2927 158.133 24.2927 158.108 24.2927Z" fill="black"/>
<path d="M94.1598 16.5371C99.7246 16.5371 105.289 16.5371 111.023 16.5371C111.023 17.9135 111.023 19.2898 111.023 20.7078C106.879 20.7078 102.736 20.7078 98.4668 20.7078C98.4668 23.1949 98.4668 25.682 98.4668 28.2444C99.3407 28.2436 100.215 28.2427 101.115 28.2419C101.667 28.2415 102.219 28.2411 102.771 28.2409C103.648 28.2404 104.525 28.2399 105.402 28.2389C106.041 28.2382 106.679 28.2377 107.318 28.2375C107.656 28.2374 107.995 28.2372 108.333 28.2367C108.651 28.2362 108.969 28.236 109.287 28.2362C109.404 28.2361 109.521 28.236 109.638 28.2357C109.798 28.2353 109.957 28.2354 110.116 28.2356C110.205 28.2356 110.295 28.2355 110.387 28.2354C110.585 28.2444 110.585 28.2444 110.658 28.3176C110.665 28.4426 110.668 28.5678 110.668 28.693C110.669 28.7731 110.669 28.8532 110.67 28.9357C110.67 29.0665 110.67 29.0665 110.67 29.1999C110.67 29.2888 110.671 29.3777 110.671 29.4693C110.671 29.6577 110.671 29.8461 110.671 30.0345C110.672 30.3237 110.673 30.6129 110.674 30.9022C110.674 31.0847 110.675 31.2673 110.675 31.4499C110.675 31.537 110.676 31.624 110.676 31.7137C110.676 31.794 110.676 31.8744 110.676 31.9571C110.676 32.0281 110.676 32.099 110.676 32.1721C110.658 32.342 110.658 32.342 110.512 32.4883C110.307 32.5063 110.307 32.5063 110.04 32.5059C109.991 32.5061 109.942 32.5062 109.891 32.5063C109.726 32.5065 109.561 32.5057 109.396 32.5049C109.278 32.5049 109.16 32.5049 109.042 32.505C108.721 32.5051 108.4 32.5042 108.08 32.5032C107.744 32.5023 107.409 32.5022 107.074 32.502C106.439 32.5015 105.804 32.5003 105.169 32.4989C104.311 32.4969 103.454 32.4961 102.596 32.4953C101.244 32.4939 99.8918 32.491 98.5398 32.4883C98.5157 34.9995 98.4916 37.5108 98.4668 40.0981C102.61 40.0981 106.754 40.0981 111.023 40.0981C111.023 41.4503 111.023 42.8025 111.023 44.1956C110.885 44.3333 110.686 44.278 110.503 44.2786C110.406 44.2784 110.406 44.2784 110.307 44.2781C110.204 44.2783 110.204 44.2783 110.1 44.2785C109.869 44.2787 109.639 44.2785 109.408 44.2783C109.244 44.2784 109.079 44.2785 108.914 44.2787C108.466 44.279 108.018 44.2789 107.569 44.2786C107.101 44.2785 106.633 44.2786 106.165 44.2787C105.328 44.2789 104.491 44.2787 103.655 44.2783C102.895 44.278 102.136 44.278 101.377 44.2784C100.496 44.2787 99.615 44.2789 98.7341 44.2787C98.2675 44.2786 97.8009 44.2786 97.3342 44.2788C96.8956 44.279 96.457 44.2789 96.0184 44.2784C95.857 44.2783 95.6955 44.2784 95.534 44.2785C95.3146 44.2787 95.0952 44.2785 94.8757 44.2781C94.811 44.2783 94.7462 44.2784 94.6794 44.2786C94.2411 44.2772 94.2411 44.2772 94.1598 44.1956C94.1527 44.0488 94.1508 43.9017 94.1508 43.7547C94.1507 43.6582 94.1505 43.5617 94.1504 43.4623C94.1506 43.3538 94.1508 43.2453 94.151 43.1368C94.151 43.0227 94.1509 42.9085 94.1508 42.7944C94.1507 42.4792 94.151 42.164 94.1513 41.8488C94.1517 41.5095 94.1515 41.1702 94.1515 40.8309C94.1515 40.2425 94.1517 39.6541 94.1521 39.0657C94.1527 38.2149 94.1529 37.3642 94.153 36.5135C94.1531 35.1333 94.1536 33.7532 94.1543 32.3731C94.155 31.0321 94.1555 29.6911 94.1558 28.3501C94.1558 28.2667 94.1558 28.1832 94.1559 28.0972C94.156 27.4447 94.1562 26.7922 94.1563 26.1397C94.157 22.9388 94.1585 19.738 94.1598 16.5371Z" fill="black"/>
</g>
<defs>
<clipPath id="clip0_1054_385">
<rect width="146" height="30" fill="white" transform="translate(27 15)"/>
</clipPath>
</defs>
</svg>
