<svg width="200" height="60" viewBox="0 0 200 60" fill="none" xmlns="http://www.w3.org/2000/svg">
<path d="M57.243 41.9947C55.3743 41.9947 54.5347 41.555 54.5347 39.3306V20.819C54.5347 18.6054 55.2389 18.3286 57.1076 18.3286H58.2857V16.0418H46.0849V18.3286H47.3984C49.1453 18.3286 49.9577 18.9271 49.9577 20.819V39.3306C49.9577 41.2184 48.9421 41.9946 47.1953 41.9946H46.0172V44.2775H58.367V41.9947H57.243ZM98.5983 41.9947C96.7296 41.9947 95.8901 41.555 95.8901 39.3306V20.819C95.8901 18.6054 96.5942 18.3286 98.4629 18.3286H99.6546V16.0418H87.4538V18.3286H88.7537C90.5006 18.3286 91.2995 18.9271 91.2995 20.819V39.3306C91.2995 41.2184 90.2839 41.9946 88.5641 41.9946H87.3725V44.2775H99.7223V41.9947H98.5983ZM60.9532 16.0417V23.4817H63.0657V21.9318C63.0657 20.0589 63.7427 18.3286 66.275 18.3286H70.5812V39.3306C70.5812 41.2184 69.4572 41.9946 67.7104 41.9946H66.4375V44.2775H79.3019V41.9947H78.029C76.2957 41.9947 75.1718 41.2184 75.1718 39.3306V18.3286H79.4644C81.9966 18.3286 82.6737 20.0589 82.6737 21.9318V23.4817H84.7861V16.0417H60.9532ZM122.837 36.6138V37.1133C122.837 39.4585 122.187 41.995 117.191 41.995H108.524L124.652 18.3275V16.042H103.351V23.6869H105.504V22.7504C105.504 20.3415 106.615 18.3275 109.878 18.3275C111.855 18.3275 118.924 18.3506 118.924 18.3506L102.85 41.9949V44.2764H124.95V36.6138H122.837ZM148.932 36.5767V37.3312C148.932 39.8487 147.7 41.9944 144.585 41.9944H136.216V30.9322H141.254C143.285 30.9322 143.746 32.649 143.746 33.8637V35.039H145.953V24.4545H143.746V25.3964C143.746 26.6043 143.285 28.3224 141.254 28.3224H136.216V18.3283H144.206C148.201 18.3283 148.295 21.6724 148.295 22.9128V23.5221H150.421V16.0415H128.01V18.3283H128.511C130.448 18.3283 131.45 18.5644 131.45 20.3152V39.6614C131.45 41.6958 130.109 41.9944 128.864 41.9944H128.146V44.2771H150.95V36.5767H148.932ZM171.966 16.0417V18.3286H172.602C174.823 18.3286 175.622 19.0859 175.622 21.0035V36.6665L161.525 16.0417H154.132V18.3286H154.822C156.19 18.3286 157.26 18.8864 157.26 21.0592V39.5328C157.26 41.4043 155.919 41.9947 154.89 41.9947H153.942V44.2775H163.543V41.9947H162.636C161.607 41.9947 160.063 41.7314 160.063 39.5328V22.2765L175.121 44.2775H178.412V21.0035C178.412 19.0859 179.197 18.3286 181.418 18.3286H182V16.0418L171.966 16.0417ZM33.6674 42.7674C28.0613 42.7674 23.6197 37.4134 23.6197 30.1676C23.6197 22.3137 26.8155 17.2312 33.1258 17.2312C38.3527 17.2312 40.4246 19.9224 41.237 23.2787H43.2276C42.9839 21.2864 42.6318 17.8175 42.6589 17.0466C40.9121 16.6775 37.6621 15 32.8007 15C24.202 15 18 20.8955 18 30.1676C18 39.2307 25.1634 45 32.7195 45C36.2132 45 39.6798 44.1816 42.6047 41.9953C42.7401 41.2692 43.2277 39.1493 43.7287 37.4406H41.5485C39.9236 41.3085 36.9173 42.7674 33.6674 42.7674Z" fill="black"/>
</svg>
