<svg width="200" height="60" viewBox="0 0 200 60" fill="none" xmlns="http://www.w3.org/2000/svg">
<g clip-path="url(#clip0_1054_400)">
<path d="M148.533 13.4672C149.776 13.4635 151.019 13.4608 152.262 13.4591C152.839 13.4583 153.416 13.4573 153.994 13.4555C154.498 13.4539 155.002 13.4529 155.506 13.4526C155.772 13.4524 156.038 13.4519 156.304 13.4508C159.358 13.439 163.085 13.4401 165.489 15.6457C165.544 15.6943 165.598 15.743 165.655 15.7931C166.788 16.8527 167.318 18.4266 167.371 19.9513C167.404 21.9092 166.918 23.6642 165.567 25.1377C164.689 26.0386 163.66 26.6278 162.533 27.1606C162.638 27.4339 162.757 27.6931 162.892 27.9529C162.933 28.0305 162.973 28.1082 163.014 28.1882C163.058 28.2711 163.101 28.354 163.146 28.4395C163.191 28.5262 163.236 28.613 163.283 28.7024C163.606 29.3198 163.936 29.933 164.271 30.5438C164.587 31.1193 164.897 31.6973 165.207 32.2761C165.306 32.4617 165.405 32.6473 165.505 32.8329C165.529 32.8789 165.554 32.9249 165.579 32.9722C165.926 33.6201 166.274 34.267 166.623 34.9135C166.803 35.2473 166.982 35.5817 167.16 35.9165C168.237 38.06 168.237 38.06 170 39.6091C170 39.6604 170 39.7118 170 39.7647C169.211 39.7683 168.422 39.7711 167.633 39.7728C167.266 39.7736 166.9 39.7747 166.533 39.7764C166.179 39.7781 165.825 39.7791 165.471 39.7795C165.337 39.7797 165.202 39.7803 165.067 39.7811C163.992 39.7876 163.14 39.7672 162.308 39.0076C161.793 38.4666 161.508 37.8417 161.196 37.1729C161.138 37.0508 161.08 36.9289 161.022 36.8069C160.85 36.445 160.68 36.0821 160.511 35.7189C160.487 35.6675 160.463 35.616 160.438 35.563C160.247 35.1542 160.057 34.7452 159.869 34.3355C159.572 33.6909 159.265 33.0508 158.955 32.4123C158.557 31.5919 158.169 30.7672 157.788 29.9388C157.557 29.4399 157.323 28.9435 157.083 28.4492C157.056 28.3943 157.029 28.3394 157.002 28.2828C156.872 28.0155 156.741 27.7484 156.61 27.4815C156.563 27.3845 156.515 27.2874 156.468 27.1904C156.426 27.1056 156.385 27.0209 156.342 26.9336C156.237 26.7014 156.153 26.4701 156.078 26.2269C156.284 26.1239 156.491 26.1099 156.717 26.0792C158.082 25.8899 159.379 25.472 160.278 24.3597C161.218 23.0174 161.452 21.2937 161.211 19.6915C161.003 18.6974 160.574 17.8712 159.733 17.2796C158.636 16.6044 157.436 16.5516 156.183 16.6131C156.044 16.6192 156.044 16.6192 155.902 16.6254C155.675 16.6355 155.449 16.6461 155.222 16.6571C155.228 19.2143 155.236 21.7715 155.244 24.3286C155.245 24.631 155.246 24.9334 155.247 25.2357C155.247 25.2959 155.247 25.3561 155.247 25.4181C155.25 26.3909 155.253 27.3636 155.255 28.3363C155.258 29.3355 155.261 30.3347 155.264 31.3339C155.266 31.9498 155.268 32.5656 155.269 33.1815C155.27 33.6548 155.272 34.1282 155.274 34.6016C155.275 34.7949 155.275 34.9883 155.275 35.1816C155.245 37.4439 155.245 37.4439 156.142 39.4708C156.233 39.6091 156.233 39.6091 156.233 39.7647C154.026 39.7647 151.819 39.7647 149.544 39.7647C149.544 39.037 149.543 38.3093 149.542 37.5595C149.54 35.2293 149.535 32.899 149.53 30.5688C149.53 30.2066 149.529 29.8444 149.528 29.4823C149.528 29.4102 149.528 29.3381 149.528 29.2638C149.525 28.0975 149.524 26.9312 149.523 25.7649C149.522 24.5675 149.52 23.3702 149.517 22.1728C149.515 21.4344 149.514 20.696 149.514 19.9576C149.514 19.4507 149.513 18.9439 149.511 18.437C149.51 18.1449 149.509 17.8528 149.51 17.5607C149.51 17.2432 149.509 16.9257 149.507 16.6081C149.508 16.5169 149.508 16.4257 149.509 16.3318C149.5 15.4475 149.278 14.6854 148.795 13.9434C148.695 13.7886 148.614 13.6325 148.533 13.4672Z" fill="black"/>
<path d="M84.0783 12.9814C84.1537 12.9807 84.2291 12.9799 84.3067 12.9791C87.0907 12.9568 90.4474 12.968 93.0003 14.2448C93.0003 15.8367 93.0003 17.4285 93.0003 19.0686C92.3471 18.5786 92.3471 18.5786 92.0329 18.31C91.065 17.5381 89.983 17.0097 88.8003 16.6567C88.742 16.6393 88.6837 16.6218 88.6236 16.6038C86.3219 15.953 83.5506 16.2149 81.4442 17.3466C79.3157 18.5413 77.9848 20.5469 77.2825 22.8463C76.509 25.6913 76.5879 28.8821 77.5225 31.6727C77.5405 31.7269 77.5584 31.781 77.5769 31.8367C78.2231 33.7347 79.5711 35.404 81.3504 36.3363C82.2305 36.7677 83.231 37.0185 84.2114 37.0412C84.2683 37.0442 84.3251 37.0472 84.3837 37.0503C85.4906 37.0843 86.579 36.8943 87.6336 36.5743C87.8151 36.5223 87.9966 36.4704 88.1781 36.4187C88.1715 35.6321 88.1641 34.8455 88.1557 34.0589C88.1519 33.6936 88.1482 33.3282 88.1453 32.9629C88.1424 32.6098 88.1388 32.2566 88.1347 31.9035C88.1332 31.7694 88.1321 31.6352 88.1312 31.5011C88.1203 29.9537 87.858 28.7097 86.8783 27.4568C86.7781 27.3158 86.7781 27.3158 86.7781 27.1602C89.0368 27.1602 91.2954 27.1602 93.6225 27.1602C93.6476 29.9346 93.6476 29.9346 93.6529 31.0961C93.6566 31.8985 93.661 32.7008 93.6695 33.5032C93.6757 34.0875 93.6797 34.6718 93.6811 35.2562C93.6819 35.5656 93.6838 35.875 93.6883 36.1844C93.6925 36.4757 93.6938 36.7669 93.6929 37.0582C93.6932 37.216 93.6965 37.3738 93.6999 37.5315C93.6938 38.2084 93.6938 38.2084 93.4875 38.4331C93.328 38.5346 93.1761 38.6066 93.0003 38.675C92.9233 38.7197 92.8463 38.7643 92.767 38.8103C91.3372 39.5608 89.7617 39.9604 88.1781 40.2311C88.1208 40.2409 88.0635 40.2507 88.0045 40.2608C83.986 40.9115 79.23 40.3819 75.8503 37.9699C75.6798 37.8442 75.5123 37.7155 75.3448 37.5858C75.2717 37.53 75.1986 37.4743 75.1233 37.4168C72.5011 35.3486 71.0501 32.384 70.6003 29.1052C70.593 29.0526 70.5856 29.0001 70.5781 28.9459C70.4949 28.2551 70.5036 27.5583 70.5031 26.8635C70.503 26.7958 70.503 26.728 70.5029 26.6582C70.5042 25.6425 70.5338 24.6542 70.7559 23.659C70.7696 23.5966 70.7834 23.5342 70.7976 23.4699C71.5943 19.9742 73.6716 17.0524 76.7051 15.1339C78.9165 13.7809 81.4813 13.0032 84.0783 12.9814Z" fill="black"/>
<path d="M97.3555 13.4668C99.6655 13.4668 101.975 13.4668 104.355 13.4668C104.357 14.0114 104.358 14.556 104.359 15.1171C104.363 16.8638 104.368 18.6105 104.373 20.3572C104.374 20.629 104.375 20.9008 104.376 21.1726C104.376 21.2267 104.376 21.2808 104.376 21.3365C104.379 22.21 104.381 23.0835 104.383 23.9571C104.384 24.8548 104.387 25.7526 104.39 26.6503C104.392 27.1539 104.394 27.6576 104.394 28.1612C104.395 28.6362 104.396 29.1111 104.399 29.586C104.399 29.7595 104.4 29.9329 104.399 30.1064C104.398 31.9265 104.558 33.7421 105.848 35.1544C107.031 36.249 108.765 36.542 110.322 36.5111C111.653 36.4351 113.089 36.1377 114.027 35.1049C115.216 33.581 115.346 31.842 115.344 29.9751C115.344 29.8328 115.344 29.6905 115.345 29.5482C115.346 29.1657 115.346 28.7831 115.346 28.4005C115.346 28.0796 115.346 27.7586 115.346 27.4377C115.347 26.68 115.347 25.9222 115.347 25.1645C115.346 24.3859 115.347 23.6074 115.349 22.8289C115.35 22.1572 115.351 21.4856 115.35 20.814C115.35 20.4142 115.35 20.0145 115.352 19.6148C115.353 19.2387 115.352 18.8627 115.351 18.4867C115.351 18.3497 115.351 18.2127 115.352 18.0757C115.359 16.5884 115.218 15.0735 114.155 13.9336C114.005 13.7956 113.85 13.6705 113.689 13.5446C113.689 13.5189 113.689 13.4932 113.689 13.4668C116.101 13.4668 118.514 13.4668 121 13.4668C121 13.5181 121 13.5695 121 13.6224C120.88 13.7349 120.88 13.7349 120.718 13.8655C119.895 14.5741 119.509 15.5105 119.367 16.5789C119.343 17.0453 119.344 17.5112 119.344 17.9781C119.344 18.1191 119.343 18.26 119.343 18.4009C119.341 18.7033 119.341 19.0057 119.34 19.3081C119.34 19.7877 119.338 20.2673 119.336 20.7469C119.333 21.7662 119.33 22.7856 119.328 23.8049C119.325 24.903 119.322 26.0011 119.318 27.0991C119.316 27.5743 119.315 28.0495 119.315 28.5247C119.314 28.8226 119.313 29.1204 119.312 29.4183C119.311 29.5546 119.311 29.691 119.311 29.8274C119.312 31.0627 119.266 32.3234 118.958 33.5254C118.941 33.5929 118.925 33.6604 118.907 33.73C118.341 35.9178 117.036 37.8135 115.083 38.9786C112.201 40.6272 108.515 40.6279 105.371 39.8129C102.965 39.1575 101.079 37.8701 99.8254 35.6861C98.9827 34.1508 98.5877 32.3042 98.5887 30.559C98.5884 30.4978 98.5881 30.4367 98.5878 30.3737C98.587 30.1709 98.5867 29.9681 98.5864 29.7653C98.5859 29.619 98.5854 29.4727 98.5848 29.3265C98.5837 29.0124 98.5828 28.6983 98.582 28.3843C98.5808 27.8868 98.579 27.3894 98.577 26.8919C98.5715 25.4777 98.5668 24.0634 98.5628 22.6492C98.5606 21.8673 98.5579 21.0855 98.5545 20.3037C98.5525 19.8101 98.5511 19.3165 98.5502 18.8229C98.5495 18.5146 98.5481 18.2063 98.5466 17.898C98.546 17.7561 98.5457 17.6141 98.5457 17.4722C98.5659 15.9461 98.5659 15.9461 98.1138 14.5123C98.0701 14.4255 98.0264 14.3388 97.9813 14.2494C97.7989 13.9767 97.6095 13.8267 97.3555 13.6224C97.3555 13.5711 97.3555 13.5197 97.3555 13.4668Z" fill="black"/>
<path d="M131.578 13.3887C132.758 13.3887 133.939 13.3887 135.156 13.3887C135.691 14.549 135.691 14.549 135.888 15.0511C135.911 15.1087 135.934 15.1664 135.958 15.2258C136.007 15.3495 136.056 15.4733 136.105 15.5971C136.24 15.9399 136.377 16.2823 136.513 16.6248C136.542 16.6969 136.57 16.7689 136.6 16.8432C136.93 17.6737 137.265 18.5023 137.601 19.3309C137.664 19.4865 137.727 19.642 137.789 19.7976C137.945 20.1814 138.1 20.5652 138.255 20.949C138.476 21.4928 138.696 22.0367 138.916 22.5805C138.969 22.7126 139.023 22.8447 139.076 22.9768C139.581 24.2244 140.085 25.4723 140.589 26.7203C141.098 27.9825 141.608 29.2445 142.119 30.506C142.391 31.1785 142.663 31.8511 142.934 32.5241C143.079 32.8859 143.225 33.2475 143.371 33.6092C143.441 33.7831 143.511 33.957 143.58 34.1309C143.925 34.9888 144.273 35.8453 144.635 36.6959C144.663 36.7615 144.691 36.827 144.719 36.8946C145.216 38.0501 145.859 38.8778 146.744 39.764C143.87 39.764 140.995 39.764 138.033 39.764C138.187 39.5842 138.341 39.4045 138.5 39.2193C138.776 38.7688 138.875 38.4289 138.811 37.8967C138.721 37.5484 138.599 37.2133 138.476 36.8755C138.423 36.7275 138.371 36.5794 138.318 36.4314C138.243 36.2219 138.168 36.0129 138.092 35.8038C137.932 35.358 137.773 34.9112 137.615 34.4647C137.558 34.3048 137.5 34.1451 137.443 33.9854C137.408 33.8876 137.373 33.7898 137.338 33.692C137.307 33.6061 137.276 33.5202 137.244 33.4318C137.178 33.2285 137.178 33.2285 137.178 33.0729C134.123 33.0729 131.069 33.0729 127.922 33.0729C127.845 33.3296 127.768 33.5864 127.689 33.8509C127.6 34.1034 127.51 34.3547 127.416 34.6055C127.391 34.674 127.366 34.7424 127.34 34.8129C127.26 35.0288 127.181 35.2446 127.101 35.4605C127.021 35.6771 126.94 35.8938 126.861 36.1106C126.811 36.2447 126.762 36.3788 126.712 36.5127C126.297 37.6018 126.297 37.6018 126.455 38.7212C126.688 39.0866 126.962 39.3426 127.3 39.6084C127.3 39.6597 127.3 39.7111 127.3 39.764C124.862 39.764 122.423 39.764 119.911 39.764C120.003 39.4897 120.075 39.4509 120.305 39.2874C122.112 37.914 122.813 35.49 123.604 33.461C123.958 32.5541 124.318 31.6496 124.677 30.7448C124.803 30.4292 124.928 30.1135 125.053 29.7978C125.074 29.7449 125.095 29.692 125.117 29.6375C125.159 29.5302 125.202 29.4229 125.245 29.3155C125.33 29.0992 125.416 28.8828 125.502 28.6665C125.873 27.7329 126.243 26.7993 126.613 25.8656C126.755 25.5096 126.896 25.1536 127.037 24.7976C127.423 23.8248 127.809 22.8521 128.194 21.8792C128.377 21.4171 128.561 20.9551 128.744 20.4931C128.764 20.4431 128.783 20.393 128.804 20.3415C129.724 18.0219 130.65 15.705 131.578 13.3887ZM132.511 21.4024C132.222 22.0192 131.965 22.6445 131.719 23.2794C131.349 24.227 130.973 25.172 130.595 26.1162C130.561 26.2015 130.561 26.2015 130.526 26.2885C130.293 26.8711 130.059 27.4536 129.826 28.0361C129.737 28.2578 129.648 28.4795 129.559 28.7012C129.517 28.8063 129.475 28.9113 129.433 29.0163C129.374 29.1611 129.316 29.3058 129.258 29.4506C129.226 29.5326 129.193 29.6145 129.159 29.6989C129.084 29.8622 129.084 29.8622 129.089 29.9608C131.322 29.9608 133.555 29.9608 135.856 29.9608C135.432 28.8439 135.432 28.8439 135 27.7045C134.666 26.8167 134.666 26.8167 134.51 26.403C133.881 24.7317 133.24 23.0651 132.589 21.4024C132.563 21.4024 132.538 21.4024 132.511 21.4024Z" fill="black"/>
<path d="M54.9665 13.3887C56.1471 13.3887 57.3278 13.3887 58.5442 13.3887C58.9813 14.3505 58.9813 14.3505 59.1288 14.7238C59.1628 14.8094 59.1968 14.895 59.2318 14.9832C59.268 15.0748 59.3042 15.1664 59.3415 15.2608C59.4243 15.4694 59.5073 15.6778 59.5903 15.8863C59.6123 15.9415 59.6342 15.9966 59.6568 16.0535C59.933 16.7467 60.2134 17.4382 60.4936 18.1298C60.5497 18.2684 60.6058 18.407 60.6619 18.5456C60.7485 18.7592 60.835 18.9729 60.9215 19.1865C61.2262 19.9387 61.5302 20.6911 61.8342 21.4435C62.3316 22.6748 62.8294 23.906 63.3276 25.137C63.7946 26.2909 64.2612 27.445 64.7276 28.5992C65.0892 29.4942 65.4509 30.3892 65.8128 31.284C65.8407 31.353 65.8687 31.422 65.8974 31.4931C66.0349 31.833 66.1725 32.1729 66.3102 32.5127C66.5506 33.1063 66.7908 33.7 67.0292 34.2945C67.1332 34.5537 67.2375 34.8129 67.3417 35.072C67.3898 35.1917 67.4378 35.3114 67.4856 35.4312C67.7349 36.0561 67.9949 36.6741 68.2792 37.284C68.304 37.3375 68.3288 37.3909 68.3543 37.4461C68.7492 38.2798 69.27 38.9479 69.9706 39.5439C70.0242 39.5909 70.0779 39.6378 70.1331 39.6862C70.1331 39.7118 70.1331 39.7375 70.1331 39.764C67.2585 39.764 64.3838 39.764 61.422 39.764C61.576 39.5842 61.73 39.4045 61.8887 39.2193C62.2026 38.7071 62.2954 38.2963 62.1537 37.7039C62.0883 37.4949 62.0163 37.2894 61.9413 37.0837C61.9146 37.0078 61.8879 36.932 61.8603 36.8538C61.7752 36.6127 61.6886 36.3721 61.6019 36.1315C61.5451 35.9715 61.4885 35.8115 61.4319 35.6515C61.2328 35.0893 61.0317 34.5277 60.8282 33.9671C60.8097 33.916 60.7912 33.8648 60.7721 33.8121C60.7246 33.6807 60.6767 33.5494 60.6288 33.4182C60.5665 33.2285 60.5665 33.2285 60.5665 33.0729C57.5121 33.0986 54.4578 33.1242 51.3109 33.1507C50.1617 35.4388 50.1617 35.4388 49.8438 38.7206C50.0759 39.0868 50.3505 39.3425 50.6887 39.6084C50.6887 39.6597 50.6887 39.7111 50.6887 39.764C48.2504 39.764 45.812 39.764 43.2998 39.764C43.3909 39.4907 43.4593 39.4544 43.6887 39.2923C45.2644 38.0927 45.971 36.0877 46.6669 34.3032C46.7599 34.0648 46.8533 33.8267 46.947 33.5887C47.049 33.3291 47.151 33.0695 47.2529 32.8099C47.6321 31.8436 48.0151 30.8789 48.3982 29.9142C48.5218 29.6029 48.6453 29.2916 48.7688 28.9803C48.7895 28.9283 48.8101 28.8763 48.8313 28.8228C48.8731 28.7175 48.9149 28.6122 48.9567 28.5068C49.0406 28.2953 49.1245 28.0838 49.2085 27.8722C49.5767 26.9444 49.9447 26.0165 50.3128 25.0886C50.454 24.7327 50.5952 24.3769 50.7363 24.021C50.8172 23.8173 50.898 23.6135 50.9788 23.4098C50.9988 23.3594 51.0189 23.3089 51.0395 23.257C51.3277 22.5305 51.6157 21.804 51.9036 21.0775C52.0901 20.6071 52.2765 20.1368 52.463 19.6664C52.4931 19.5904 52.4931 19.5904 52.5239 19.5128C53.334 17.4698 54.1494 15.4289 54.9665 13.3887ZM55.8998 21.4024C55.6223 21.991 55.3773 22.5878 55.1461 23.196C54.7834 24.1493 54.4091 25.0976 54.0271 26.0432C54.0041 26.1 53.9812 26.1568 53.9576 26.2153C53.8186 26.5595 53.6794 26.9036 53.54 27.2477C53.3501 27.7167 53.1603 28.1857 52.9708 28.6549C52.9053 28.8171 52.8396 28.9791 52.7738 29.1412C52.7344 29.2388 52.695 29.3363 52.6555 29.4339C52.6211 29.519 52.5866 29.6042 52.551 29.6919C52.4729 29.8609 52.4729 29.8609 52.4776 29.9608C54.6849 29.9608 56.8922 29.9608 59.1665 29.9608C59.1133 29.6416 59.0728 29.4198 58.9605 29.1313C58.9209 29.0285 58.9209 29.0285 58.8805 28.9236C58.8515 28.8498 58.8226 28.7761 58.7928 28.7001C58.7623 28.6214 58.7319 28.5427 58.7005 28.4617C58.6002 28.2026 58.4993 27.9438 58.3984 27.685C58.2568 27.3202 58.1156 26.9552 57.9743 26.5903C57.938 26.4968 57.9018 26.4033 57.8644 26.3069C57.6086 25.646 57.3565 24.9838 57.1066 24.3206C57.0727 24.2308 57.0388 24.141 57.0039 24.0484C56.8723 23.6996 56.7408 23.3508 56.61 23.0016C56.5201 22.7616 56.4296 22.5217 56.3391 22.2819C56.3125 22.2105 56.286 22.139 56.2586 22.0654C56.2216 21.968 56.2216 21.968 56.184 21.8686C56.1628 21.812 56.1416 21.7555 56.1197 21.6972C56.058 21.5428 56.058 21.5428 55.8998 21.4024Z" fill="black"/>
<path d="M35.1333 13.4668C37.315 13.4668 39.4967 13.4668 41.7444 13.4668C41.7479 15.9869 41.7508 18.5071 41.7524 21.0272C41.7526 21.3259 41.7528 21.6246 41.753 21.9233C41.753 21.9828 41.7531 22.0423 41.7531 22.1035C41.7538 23.0615 41.755 24.0195 41.7564 24.9774C41.7579 25.9632 41.7588 26.9489 41.7591 27.9347C41.7593 28.5411 41.76 29.1475 41.7612 29.7539C41.7622 30.2219 41.7622 30.6898 41.762 31.1578C41.7621 31.3476 41.7624 31.5374 41.763 31.7272C41.7787 36.907 40.846 42.1591 37.2206 46.0703C37.1671 46.1237 37.1671 46.1237 37.1126 46.1782C36.9941 46.3001 36.9941 46.3001 36.8935 46.4562C36.6526 46.7687 36.4691 46.9056 36.0754 46.9769C35.6909 47.0024 35.3069 46.9922 34.9219 46.983C34.7798 46.9818 34.6377 46.9809 34.4956 46.9803C34.1232 46.9779 33.7509 46.9718 33.3786 46.9649C32.998 46.9585 32.6173 46.9557 32.2367 46.9526C31.4911 46.9459 30.7456 46.9353 30 46.9222C30.2783 46.6377 30.5614 46.4014 30.8896 46.1782C31.4829 45.7642 32.029 45.3048 32.5667 44.8215C32.6192 44.7746 32.6717 44.7278 32.7259 44.6796C35.1589 42.379 35.908 39.0465 36.0319 35.8243C36.0352 35.7401 36.0385 35.6559 36.0419 35.5691C36.0745 34.6656 36.0782 33.7628 36.078 32.8589C36.0782 32.6755 36.0785 32.4921 36.0788 32.3087C36.0794 31.8174 36.0796 31.326 36.0797 30.8347C36.0797 30.4748 36.08 30.115 36.0802 29.7551C36.0809 28.7862 36.0811 27.8172 36.0811 26.8482C36.0811 26.7662 36.0811 26.7662 36.0811 26.6826C36.0811 26.6005 36.0811 26.6005 36.0811 26.5168C36.081 25.6273 36.0818 24.7379 36.0829 23.8484C36.084 22.9306 36.0845 22.0127 36.0845 21.0949C36.0844 20.5814 36.0847 20.0678 36.0855 19.5543C36.0862 19.0723 36.0862 18.5902 36.0857 18.1082C36.0856 17.932 36.0858 17.7558 36.0863 17.5795C36.1264 15.9567 36.1264 15.9567 35.6438 14.4345C35.5973 14.3461 35.5509 14.2578 35.5031 14.1667C35.3751 13.9376 35.3751 13.9376 35.2327 13.7564C35.1333 13.6224 35.1333 13.6224 35.1333 13.4668Z" fill="black"/>
</g>
<defs>
<clipPath id="clip0_1054_400">
<rect width="140" height="34" fill="white" transform="translate(30 13)"/>
</clipPath>
</defs>
</svg>
