<svg width="200" height="60" viewBox="0 0 200 60" fill="none" xmlns="http://www.w3.org/2000/svg">
<g clip-path="url(#clip0_1054_393)">
<path d="M151.926 16.1442C154.546 16.1405 157.167 16.1375 159.787 16.1358C160.097 16.1356 160.407 16.1354 160.716 16.1352C160.809 16.1351 160.809 16.1351 160.903 16.135C161.9 16.1343 162.897 16.133 163.894 16.1315C164.918 16.13 165.942 16.1291 166.966 16.1288C167.597 16.1285 168.228 16.1278 168.859 16.1265C169.344 16.1255 169.829 16.1254 170.314 16.1257C170.512 16.1256 170.71 16.1253 170.908 16.1247C171.18 16.1238 171.452 16.124 171.723 16.1245C171.84 16.1238 171.84 16.1238 171.959 16.123C172.929 16.1273 173.776 16.3307 174.664 16.7164C174.734 16.7457 174.803 16.7749 174.875 16.8051C176.595 17.5921 177.984 19.2184 178.677 20.9618C179.474 23.1376 179.413 25.3741 178.495 27.5065C177.589 29.4691 175.878 30.9306 173.878 31.6922C173.259 31.9018 172.614 32.0327 171.975 32.1659C172.306 32.6493 172.647 33.1232 172.999 33.5914C173.748 34.5897 174.487 35.5958 175.214 36.6108C175.578 37.1177 175.949 37.617 176.332 38.1087C176.487 38.3081 176.635 38.5115 176.781 38.7173C177.448 39.6526 177.928 40.1603 179.097 40.3742C179.243 40.3979 179.243 40.3979 179.391 40.4221C179.48 40.4379 179.569 40.4537 179.66 40.47C180.219 40.5643 180.774 40.6153 181.34 40.6472C181.592 40.6673 181.592 40.6673 181.999 40.7491C181.999 41.8281 181.999 42.9071 181.999 44.0188C180.976 44.0522 179.954 44.0791 178.93 44.095C178.455 44.1027 177.98 44.1131 177.505 44.1298C177.045 44.1459 176.586 44.1546 176.127 44.1584C175.952 44.1611 175.778 44.1664 175.603 44.1744C174.277 44.2326 174.277 44.2326 173.838 43.878C173.52 43.5325 173.283 43.1473 173.059 42.7362C172.892 42.4396 172.695 42.1658 172.499 41.8884C172.426 41.7814 172.353 41.6744 172.281 41.5671C172.043 41.2187 171.8 40.8739 171.557 40.5294C171.217 40.0473 170.88 39.5632 170.545 39.0771C170.15 38.5048 169.751 37.9358 169.353 37.3659C169.113 37.0223 168.873 36.6786 168.633 36.3349C168.538 36.1986 168.443 36.0624 168.348 35.9262C168.158 35.6537 167.968 35.3812 167.778 35.1087C167.73 35.0412 167.683 34.9736 167.635 34.904C167.54 34.7689 167.446 34.6338 167.352 34.4987C167.102 34.1401 166.851 33.7822 166.599 33.425C166.547 33.3502 166.494 33.2755 166.44 33.1984C166.339 33.0546 166.237 32.9109 166.136 32.7674C166.09 32.7028 166.045 32.6383 165.998 32.5718C165.938 32.4866 165.938 32.4866 165.877 32.3997C165.781 32.2477 165.781 32.2477 165.699 32.0025C164.193 32.0025 162.687 32.0025 161.135 32.0025C161.14 33.3873 161.14 33.3873 161.148 34.772C161.152 35.3368 161.156 35.9015 161.157 36.4663C161.159 36.9216 161.161 37.3768 161.165 37.8321C161.167 38.0059 161.167 38.1796 161.167 38.3533C161.167 38.5966 161.17 38.8398 161.172 39.0831C161.172 39.155 161.171 39.2269 161.171 39.301C161.177 39.634 161.191 39.8078 161.37 40.0966C161.905 40.5977 162.935 40.5666 163.631 40.6367C163.819 40.6562 164.007 40.676 164.195 40.696C164.276 40.7043 164.358 40.7126 164.442 40.7212C164.64 40.7491 164.64 40.7491 164.803 40.8308C164.803 41.8828 164.803 42.9349 164.803 44.0188C160.553 44.0188 156.304 44.0188 151.926 44.0188C151.926 42.9398 151.926 41.8608 151.926 40.7491C153.006 40.6418 153.006 40.6418 153.34 40.6097C154.398 40.5329 154.398 40.5329 155.359 40.1395C155.592 39.8219 155.557 39.5255 155.553 39.1404C155.554 39.0592 155.554 38.9781 155.555 38.8944C155.556 38.6217 155.555 38.349 155.554 38.0763C155.554 37.881 155.555 37.6858 155.556 37.4906C155.557 37.0149 155.557 36.5393 155.556 36.0636C155.555 35.6771 155.555 35.2906 155.555 34.904C155.555 34.8491 155.556 34.7941 155.556 34.7374C155.556 34.6257 155.556 34.514 155.556 34.4023C155.557 33.3545 155.556 32.3068 155.554 31.259C155.553 30.3598 155.553 29.4605 155.554 28.5613C155.556 27.5173 155.557 26.4733 155.556 25.4293C155.556 25.318 155.556 25.2067 155.555 25.0954C155.555 25.0407 155.555 24.9859 155.555 24.9295C155.555 24.5434 155.555 24.1572 155.556 23.7711C155.557 23.2515 155.557 22.732 155.555 22.2124C155.554 22.0214 155.554 21.8304 155.555 21.6394C155.556 21.3793 155.555 21.1192 155.553 20.8591C155.554 20.783 155.555 20.7069 155.555 20.6284C155.553 20.2171 155.553 20.2171 155.363 19.8628C154.735 19.43 153.922 19.3666 153.189 19.2351C152.564 19.1213 152.564 19.1213 151.926 19.0052C151.926 18.061 151.926 17.1169 151.926 16.1442ZM161.135 19.2504C161.135 22.3256 161.135 25.4008 161.135 28.5692C163.052 28.5793 163.052 28.5793 165.007 28.5897C165.605 28.5941 165.605 28.5941 166.216 28.5987C166.583 28.5998 166.583 28.5998 166.95 28.6004C167.109 28.6009 167.269 28.602 167.429 28.6037C169.456 28.624 171.583 28.4954 173.131 27.0365C174.012 26.1108 174.386 24.9291 174.361 23.6684C174.304 22.4977 173.745 21.4325 172.904 20.6375C172.589 20.3786 172.253 20.1753 171.893 19.9861C171.82 19.9447 171.746 19.9033 171.67 19.8606C169.48 18.8741 166.389 19.2284 164.039 19.2402C163.081 19.2436 162.122 19.2469 161.135 19.2504Z" fill="black"/>
<path d="M143.999 18.8635C145.148 19.9027 146.053 21.045 146.874 22.3577C146.906 22.4074 146.937 22.4571 146.97 22.5083C147.739 23.7341 148.236 25.1262 148.585 26.5266C148.601 26.586 148.617 26.6453 148.634 26.7065C149.332 29.3722 149.102 32.6409 148.096 35.1915C148.055 35.3017 148.014 35.4118 147.973 35.522C147.461 36.8539 146.759 38.0648 145.896 39.1969C145.84 39.271 145.785 39.3451 145.728 39.4214C144.893 40.4898 143.905 41.4414 142.799 42.2215C142.752 42.2554 142.704 42.2892 142.656 42.3241C141.899 42.863 141.117 43.3074 140.272 43.6929C140.191 43.7303 140.191 43.7303 140.108 43.7685C139.435 44.0729 138.75 44.3213 138.041 44.5307C137.978 44.5499 137.915 44.569 137.85 44.5887C136.653 44.9263 135.441 45.0421 134.202 45.0327C133.997 45.0314 133.792 45.0327 133.586 45.0343C132.358 45.036 131.147 44.8921 129.968 44.5358C129.898 44.515 129.827 44.4942 129.755 44.4727C127.478 43.7773 125.396 42.6356 123.693 40.9569C123.563 40.8296 123.431 40.7047 123.299 40.5799C122.623 39.933 122.067 39.2246 121.527 38.4613C121.479 38.3951 121.431 38.3289 121.381 38.2607C119.609 35.7516 119.009 32.6398 119.001 29.6329C119.001 29.5585 119 29.4841 119 29.4074C119.013 25.5935 120.84 22.1198 123.402 19.4149C123.452 19.3592 123.503 19.3034 123.554 19.246C125.308 17.3692 127.887 16.1438 130.329 15.4912C130.419 15.4668 130.509 15.4423 130.601 15.4171C135.29 14.2327 140.415 15.6905 143.999 18.8635ZM129.351 20.0689C129.246 20.1561 129.246 20.1561 129.139 20.2451C127.529 21.6369 126.764 23.6455 126.27 25.6734C126.255 25.734 126.24 25.7945 126.225 25.8568C125.91 27.245 125.802 28.6317 125.811 30.0519C125.812 30.1316 125.812 30.2113 125.812 30.2934C125.82 32.0875 125.988 33.8156 126.58 35.5185C126.601 35.5799 126.621 35.6413 126.643 35.7046C127.075 36.9994 127.607 38.2602 128.536 39.2787C128.585 39.3343 128.634 39.39 128.685 39.4473C129.568 40.3956 130.787 41.1017 132.041 41.404C132.13 41.4268 132.22 41.4496 132.312 41.473C134.28 41.9262 136.27 41.5629 138.002 40.521C140.073 39.1797 141.065 36.9353 141.658 34.6193C141.693 34.4875 141.693 34.4875 141.728 34.353C142.705 30.2641 142.317 25.365 140.139 21.7147C139.119 20.1188 137.474 19.0574 135.652 18.6179C133.439 18.2087 131.106 18.6068 129.351 20.0689Z" fill="black"/>
<path d="M86.1562 16.1447C87.9891 16.141 89.822 16.138 91.6548 16.1363C92.506 16.1354 93.3572 16.1343 94.2083 16.1324C94.9509 16.1308 95.6934 16.1297 96.436 16.1293C96.8285 16.1291 97.2211 16.1286 97.6137 16.1274C97.9845 16.1263 98.3553 16.126 98.7261 16.1262C98.8609 16.1262 98.9957 16.1259 99.1306 16.1252C100.355 16.1198 101.578 16.2064 102.782 16.4411C102.886 16.4612 102.886 16.4612 102.991 16.4817C105.933 17.0877 109.149 18.2904 111.177 20.6406C111.177 20.6946 111.177 20.7485 111.177 20.8041C111.257 20.8311 111.338 20.8581 111.421 20.8859C111.571 21.0583 111.711 21.2303 111.849 21.4121C111.889 21.4641 111.929 21.5161 111.97 21.5696C114.288 24.604 115.301 28.1684 114.834 31.9775C114.356 35.4582 112.363 38.4779 109.628 40.6332C107.702 42.0902 105.536 43.1711 103.18 43.7129C103.126 43.7252 103.073 43.7376 103.018 43.7503C101.89 43.992 100.775 44.0431 99.6276 44.038C99.4797 44.0379 99.3318 44.0379 99.1838 44.038C98.7865 44.0381 98.3892 44.0371 97.9919 44.036C97.5751 44.0349 97.1583 44.0348 96.7415 44.0347C95.9541 44.0341 95.1667 44.0328 94.3794 44.0312C93.4822 44.0293 92.585 44.0284 91.6878 44.0276C89.8439 44.0259 88.0001 44.0229 86.1562 44.0194C86.1562 43.0483 86.1562 42.0772 86.1562 41.0766C86.8856 40.9852 86.8856 40.9852 87.1884 40.9776C87.9367 40.9529 88.6341 40.9004 89.3631 40.7187C89.5793 40.6679 89.5793 40.6679 89.8238 40.6679C89.9552 40.1077 90.0099 39.5827 90.0055 39.0081C90.0055 38.9274 90.0055 38.8466 90.0056 38.7634C90.0055 38.4951 90.0042 38.2267 90.0029 37.9583C90.0026 37.765 90.0024 37.5717 90.0022 37.3785C90.0015 36.8551 89.9996 36.3317 89.9976 35.8084C89.9963 35.4813 89.9953 35.1542 89.9944 34.8271C89.9913 33.7447 89.9875 32.6623 89.9829 31.5798C89.9826 31.5216 89.9824 31.4634 89.9821 31.4034C89.9819 31.3451 89.9816 31.2867 89.9814 31.2267C89.9774 30.2807 89.975 29.3346 89.9733 28.3886C89.9716 27.416 89.9687 26.4434 89.9645 25.4708C89.9622 24.9252 89.9604 24.3797 89.9598 23.8341C89.9592 23.3214 89.9571 22.8088 89.9538 22.2961C89.9528 22.108 89.9524 21.9198 89.9526 21.7317C89.9528 21.4749 89.951 21.2182 89.9486 20.9614C89.9492 20.887 89.9497 20.8125 89.9502 20.7358C89.9431 20.2554 89.8564 19.9728 89.5793 19.578C89.0755 19.1829 88.4392 19.0772 87.8219 18.9853C87.7423 18.9723 87.6627 18.9592 87.5807 18.9457C87.1062 18.8693 86.635 18.8139 86.1562 18.7605C86.1562 17.8973 86.1562 17.0341 86.1562 16.1447ZM95.9362 19.3327C95.6791 19.8082 95.6569 20.2094 95.6607 20.7437C95.6603 20.8271 95.6599 20.9104 95.6595 20.9962C95.6586 21.2748 95.6593 21.5533 95.6601 21.8319C95.6598 22.0318 95.6593 22.2318 95.6588 22.4317C95.6578 22.918 95.658 23.4043 95.6587 23.8906C95.6592 24.2859 95.6593 24.6811 95.659 25.0763C95.659 25.1326 95.659 25.1889 95.6589 25.2469C95.6588 25.3613 95.6588 25.4756 95.6587 25.59C95.658 26.6617 95.6588 27.7334 95.6601 28.8051C95.6612 29.7246 95.661 30.644 95.6599 31.5635C95.6586 32.6317 95.6581 33.6999 95.6588 34.768C95.6589 34.8819 95.659 34.9958 95.659 35.1097C95.6591 35.1657 95.6591 35.2218 95.6591 35.2795C95.6594 35.6743 95.659 36.0691 95.6584 36.4639C95.6577 36.9952 95.6582 37.5264 95.6596 38.0577C95.6599 38.2529 95.6599 38.4481 95.6593 38.6432C95.6586 38.9092 95.6595 39.1752 95.6607 39.4411C95.6602 39.5188 95.6596 39.5964 95.659 39.6763C95.6626 40.0715 95.6729 40.3506 95.9362 40.6679C96.1199 40.7659 96.1199 40.7659 96.3285 40.8109C96.3962 40.8291 96.464 40.8472 96.5338 40.8659C97.3402 41.0411 98.146 41.0192 98.9679 41.0235C99.1556 41.0248 99.3433 41.027 99.5309 41.0302C101.717 41.0665 103.605 40.6265 105.309 39.1965C105.373 39.1455 105.437 39.0945 105.503 39.042C107.129 37.6891 107.924 35.5004 108.324 33.4744C108.336 33.4137 108.349 33.3529 108.361 33.2903C108.814 30.9249 108.707 28.3201 107.917 26.0357C107.898 25.978 107.878 25.9203 107.859 25.8608C107.408 24.5132 106.856 23.2441 105.879 22.1938C105.84 22.1512 105.801 22.1087 105.761 22.0649C104.541 20.7481 103.047 19.8061 101.315 19.3327C101.246 19.3115 101.177 19.2902 101.106 19.2682C100.303 19.0468 99.5118 19.0502 98.684 19.0555C98.4417 19.0569 98.1995 19.0555 97.9572 19.054C97.801 19.0541 97.6448 19.0545 97.4886 19.0549C97.4172 19.0544 97.3459 19.0539 97.2724 19.0534C96.8258 19.0585 96.3133 19.07 95.9362 19.3327Z" fill="black"/>
<path d="M50.3779 16.1445C54.8156 16.1445 59.2533 16.1445 63.8254 16.1445C63.8254 17.1156 63.8254 18.0868 63.8254 19.0873C63.6806 19.2326 63.4647 19.2229 63.2683 19.2549C63.1697 19.2717 63.071 19.2884 62.9694 19.3056C62.7623 19.34 62.5551 19.3741 62.3479 19.4077C61.2656 19.5456 61.2656 19.5456 60.3934 20.1154C60.2137 20.4419 60.1937 20.698 60.198 21.0609C60.1973 21.1595 60.1973 21.1595 60.1965 21.2601C60.1952 21.4796 60.1962 21.699 60.1972 21.9185C60.1968 22.0762 60.1962 22.2338 60.1955 22.3915C60.194 22.8195 60.1946 23.2475 60.1956 23.6755C60.1965 24.1243 60.1957 24.573 60.1952 25.0217C60.1946 25.776 60.1954 26.5302 60.1969 27.2844C60.1987 28.1543 60.1981 29.0242 60.1963 29.8941C60.1948 30.6422 60.1946 31.3903 60.1955 32.1384C60.196 32.5846 60.1961 33.0308 60.195 33.477C60.194 33.8973 60.1947 34.3176 60.1966 34.7379C60.197 34.8914 60.1969 35.0449 60.1962 35.1983C60.1899 36.6753 60.4414 38.0103 61.4801 39.1433C62.9963 40.5537 64.8323 40.7211 66.8061 40.6753C68.4584 40.6116 69.8974 40.0438 71.0473 38.8333C71.928 37.8412 72.3953 36.5395 72.3949 35.2155C72.3954 35.1214 72.3954 35.1214 72.3958 35.0254C72.3967 34.8154 72.397 34.6054 72.3974 34.3955C72.3979 34.2448 72.3984 34.0941 72.399 33.9435C72.4007 33.4491 72.4015 32.9548 72.4023 32.4604C72.4027 32.2902 72.403 32.1199 72.4034 31.9496C72.4049 31.15 72.4061 30.3504 72.4067 29.5508C72.4075 28.6278 72.4097 27.7048 72.413 26.7817C72.4154 26.0681 72.4166 25.3545 72.4169 24.6409C72.4171 24.2147 72.4178 23.7886 72.4199 23.3624C72.4218 22.9616 72.4221 22.5609 72.4213 22.1601C72.4213 22.0131 72.4218 21.866 72.4229 21.719C72.4243 21.5182 72.4238 21.3174 72.4227 21.1166C72.4236 21.0585 72.4245 21.0004 72.4254 20.9406C72.4201 20.5319 72.3088 20.3033 72.0569 19.9865C71.4956 19.4704 70.5432 19.4339 69.8208 19.3223C69.7358 19.3085 69.6509 19.2947 69.5634 19.2805C68.9793 19.1882 68.413 19.137 67.8189 19.0873C67.8189 18.1162 67.8189 17.1451 67.8189 16.1445C72.149 16.1445 76.4791 16.1445 80.9404 16.1445C80.9404 17.1156 80.9404 18.0868 80.9404 19.0873C79.7434 19.2712 79.7434 19.2712 79.3729 19.3269C78.1462 19.472 78.1462 19.472 77.0946 20.0274C76.8046 20.4286 76.7605 20.7226 76.764 21.2155C76.7638 21.2823 76.7636 21.349 76.7634 21.4177C76.763 21.6417 76.7637 21.8656 76.7644 22.0895C76.7643 22.25 76.7642 22.4105 76.7639 22.571C76.7635 22.9169 76.7636 23.2629 76.7641 23.6088C76.7647 24.1569 76.7638 24.705 76.7627 25.2531C76.7596 26.8118 76.7581 28.3705 76.759 29.9293C76.7595 30.7899 76.7586 31.6505 76.7561 32.5112C76.7546 33.0548 76.7548 33.5984 76.7564 34.1421C76.757 34.4823 76.7558 34.8226 76.7542 35.1628C76.7538 35.3192 76.7541 35.4757 76.7551 35.6321C76.7689 37.8492 75.8989 39.8956 74.3389 41.4851C74.1282 41.6842 73.9089 41.8711 73.6869 42.0573C73.6206 42.1156 73.5543 42.1739 73.486 42.2339C72.1519 43.3795 70.5714 44.013 68.8631 44.3615C68.7964 44.3751 68.7296 44.3888 68.6609 44.4029C67.9201 44.5476 67.1871 44.6041 66.4331 44.6051C66.358 44.6054 66.2828 44.6057 66.2054 44.606C66.0472 44.6064 65.8891 44.6066 65.731 44.6065C65.4937 44.6067 65.2564 44.6082 65.0191 44.6098C62.177 44.6184 59.0036 44.0086 56.8164 42.0573C56.7242 41.9823 56.7242 41.9823 56.6302 41.9057C55.1485 40.6693 54.2663 38.7552 54.0625 36.8598C54.0365 36.5584 54.0343 36.2588 54.0353 35.9564C54.0352 35.8894 54.035 35.8223 54.0349 35.7532C54.0346 35.5307 54.0349 35.3082 54.0352 35.0857C54.035 34.9254 54.0349 34.765 54.0347 34.6046C54.0343 34.2603 54.0342 33.916 54.0342 33.5717C54.0341 33.0273 54.033 32.4828 54.0318 31.9384C54.0316 31.8464 54.0313 31.7544 54.0311 31.6596C54.0307 31.4715 54.0303 31.2834 54.0298 31.0954C54.027 29.8286 54.0248 28.5618 54.025 27.295C54.0251 26.4393 54.0238 25.5837 54.0209 24.7281C54.0194 24.2755 54.0186 23.8231 54.0196 23.3706C54.0205 22.9454 54.0196 22.5202 54.0172 22.095C54.0167 21.939 54.0168 21.783 54.0177 21.627C54.0188 21.414 54.0175 21.2012 54.0155 20.9882C54.0164 20.9265 54.0173 20.8648 54.0183 20.8012C54.0097 20.3311 53.8786 20.1403 53.5564 19.823C52.8485 19.4408 51.9204 19.3917 51.1375 19.2758C51.0511 19.263 50.9648 19.2502 50.8758 19.2371C50.7977 19.2259 50.7195 19.2147 50.6389 19.2032C50.4594 19.1691 50.4594 19.1691 50.3779 19.0873C50.3779 18.1162 50.3779 17.1451 50.3779 16.1445Z" fill="black"/>
<path d="M19 16.1445C27.6602 16.1445 36.3204 16.1445 45.243 16.1445C45.243 19.0579 45.243 21.9712 45.243 24.9729C44.2748 24.9729 43.3066 24.9729 42.309 24.9729C42.1476 24.5682 42.1476 24.5682 41.983 24.1554C41.5119 23.008 40.9928 21.9243 40.19 20.9674C40.1468 20.9104 40.1036 20.8534 40.0592 20.7947C39.4649 20.0429 38.6608 19.7239 37.7281 19.6C37.2316 19.5515 36.7322 19.5447 36.2337 19.5308C36.1192 19.5274 36.0046 19.5239 35.89 19.5203C35.6119 19.5119 35.3337 19.5038 35.0555 19.496C35.0603 22.0495 35.0664 24.6029 35.0742 27.1563C35.0751 27.4577 35.076 27.7591 35.0769 28.0606C35.0772 28.1506 35.0772 28.1506 35.0774 28.2424C35.0803 29.2142 35.0823 30.1859 35.0841 31.1577C35.0858 32.1548 35.0885 33.1518 35.0921 34.1489C35.0942 34.7642 35.0957 35.3794 35.0962 35.9947C35.0967 36.4665 35.0984 36.9382 35.1007 37.4099C35.1014 37.6035 35.1017 37.7971 35.1015 37.9906C35.1014 38.2546 35.1028 38.5186 35.1045 38.7826C35.1041 38.8594 35.1037 38.9363 35.1033 39.0154C35.1088 39.5183 35.175 39.8884 35.5445 40.259C36.4165 40.532 37.3189 40.5613 38.2238 40.6013C38.6844 40.6232 39.145 40.6451 39.6195 40.6677C39.6195 41.7737 39.6195 42.8797 39.6195 44.0192C34.6708 44.0192 29.7221 44.0192 24.6235 44.0192C24.6235 42.9132 24.6235 41.8072 24.6235 40.6677C26.0243 40.6013 26.0243 40.6013 26.4592 40.5822C27.7071 40.5726 27.7071 40.5726 28.8033 40.1022C29.0064 39.8547 29.0347 39.6511 29.0358 39.3413C29.0362 39.2704 29.0367 39.1996 29.0372 39.1267C29.0372 39.0488 29.0373 38.971 29.0374 38.8908C29.0378 38.8081 29.0382 38.7254 29.0386 38.6403C29.0399 38.362 29.0406 38.0837 29.0412 37.8055C29.042 37.6065 29.0428 37.4076 29.0437 37.2086C29.0454 36.7796 29.0469 36.3506 29.0482 35.9216C29.0501 35.3013 29.0524 34.6811 29.0548 34.0608C29.0586 33.0545 29.0622 32.0482 29.0655 31.0419C29.0687 30.0642 29.0721 29.0866 29.0757 28.109C29.0759 28.0487 29.0761 27.9885 29.0763 27.9264C29.0774 27.6242 29.0786 27.322 29.0797 27.0197C29.089 24.5118 29.0977 22.0039 29.106 19.496C28.7708 19.5054 28.4357 19.5153 28.1006 19.5256C27.9868 19.5291 27.8731 19.5324 27.7594 19.5355C26.4301 19.5727 25.3078 19.6582 24.2924 20.6047C23.1483 21.8281 22.4442 23.3972 21.934 24.9729C20.9658 24.9729 19.9976 24.9729 19 24.9729C19 22.0595 19 19.1462 19 16.1445Z" fill="black"/>
</g>
<defs>
<clipPath id="clip0_1054_393">
<rect width="163" height="30" fill="white" transform="translate(19 15)"/>
</clipPath>
</defs>
</svg>
