<svg width="200" height="60" viewBox="0 0 200 60" fill="none" xmlns="http://www.w3.org/2000/svg">
<path d="M99.5699 17L92.6713 34.0682L85.6685 17H81.2509L77.251 43H81.6337L84.3237 25.4271L91.4594 43H93.8992L100.997 25.4335L103.728 43H108.168L103.829 17H99.5731H99.5699Z" fill="black"/>
<path d="M28.4268 43L28.4363 20.4948H18V17H43.6701V20.4948H33.0248L33.0121 43H28.4237H28.4268Z" fill="black"/>
<path d="M123.496 43L123.512 17H144.821V20.8653H127.86V27.7942H142.59V31.2698H127.857L127.85 39.2114H144.704V43H123.499H123.496Z" fill="black"/>
<path d="M56.9736 43L56.9862 17H61.4576L61.4164 43H56.9766H56.9736Z" fill="black"/>
<path d="M156.675 43L166.39 29.3148L157.627 17H163.241L169.345 25.7018L175.447 17H181.076L172.257 29.3148L182 42.9967H176.383L169.342 32.11L162.292 42.9967H156.672L156.675 43Z" fill="black"/>
</svg>
