<svg width="200" height="60" viewBox="0 0 200 60" fill="none" xmlns="http://www.w3.org/2000/svg">
<path fill-rule="evenodd" clip-rule="evenodd" d="M88.585 16V18.2991H79.5592V43.7568H74.8687V18.2991H65.8203V16H88.585ZM160.371 16H162.936L180.732 35.815V16H182.994V43.7555H181.938L162.635 21.7614V43.8523L160.373 43.9055V16H160.371ZM136.105 33.0141H146.002L141.212 22.2414L136.105 33.0141ZM142.822 16L155.729 43.8673H151.048L146.859 34.7732H135.303L130.966 43.8673H128.479L141.682 16H142.821H142.822ZM128.95 16H106.187V18.2991H115.235V43.7568H119.922V18.2991H128.947V16H128.95ZM95.0386 16H99.7291V43.7568H95.0386V16Z" fill="black"/>
<path fill-rule="evenodd" clip-rule="evenodd" d="M46.5623 25.0636C49.0905 31.1891 45.4206 40.1414 39.5099 42.2795V19.0009H48.8909L51.3739 15H35.4807V42.9355V45C43.7147 44.4641 51.2555 37.7359 51.2555 29.2091C51.2527 27.8096 51.0738 26.4163 50.7232 25.0636H46.5623ZM33.8852 15H18L20.4723 19.0009H29.856V42.2782C24.0012 40.1618 20.1836 31.065 22.8223 25.0636H18.6347C18.2843 26.4163 18.1054 27.8096 18.1025 29.2091C18.1025 37.7359 25.6432 44.4641 33.8773 45V42.9355V15H33.8852Z" fill="black"/>
</svg>
