<svg width="60" height="60" viewBox="0 0 60 60" fill="none" xmlns="http://www.w3.org/2000/svg">
<path d="M29.9988 29.999H30.0238M38.8375 38.838C27.122 50.5538 13.6671 56.0938 8.78558 51.2123C3.90403 46.3308 9.44423 32.876 21.16 21.1603C32.8758 9.44458 46.3305 3.90438 51.212 8.78593C56.0935 13.6675 50.5533 27.1223 38.8375 38.838ZM38.8375 21.1599C50.5533 32.8755 56.0935 46.3303 51.212 51.2118C46.3303 56.0935 32.8755 50.5533 21.1599 38.8375C9.44413 27.1218 3.90393 13.667 8.78548 8.78548C13.667 3.90393 27.1218 9.44413 38.8375 21.1599ZM31.2488 29.999C31.2488 30.6895 30.6893 31.249 29.9988 31.249C29.3085 31.249 28.7488 30.6895 28.7488 29.999C28.7488 29.3088 29.3085 28.749 29.9988 28.749C30.6893 28.749 31.2488 29.3088 31.2488 29.999Z" stroke="#020202" stroke-width="2" stroke-linecap="round" stroke-linejoin="round"/>
</svg>
