<svg width="24" height="24" viewBox="0 0 24 24" fill="none" xmlns="http://www.w3.org/2000/svg">
<path d="M8 16.9998H16M11.0177 2.76376L4.23539 8.03888C3.78202 8.39151 3.55534 8.56782 3.39203 8.78862C3.24737 8.9842 3.1396 9.20454 3.07403 9.43881C3 9.70328 3 9.99046 3 10.5649V17.7998C3 18.9199 3 19.4799 3.21799 19.9078C3.40973 20.2841 3.71569 20.5901 4.09202 20.7818C4.51984 20.9998 5.07989 20.9998 6.2 20.9998H17.8C18.9201 20.9998 19.4802 20.9998 19.908 20.7818C20.2843 20.5901 20.5903 20.2841 20.782 19.9078C21 19.4799 21 18.9199 21 17.7998V10.5649C21 9.99046 21 9.70328 20.926 9.43881C20.8604 9.20454 20.7526 8.9842 20.608 8.78862C20.4447 8.56782 20.218 8.39151 19.7646 8.03889L12.9823 2.76376C12.631 2.49051 12.4553 2.35388 12.2613 2.30136C12.0902 2.25502 11.9098 2.25502 11.7387 2.30136C11.5447 2.35388 11.369 2.49051 11.0177 2.76376Z" stroke="black" stroke-width="2" stroke-linecap="round" stroke-linejoin="round"/>
</svg>
