<svg width="60" height="60" viewBox="0 0 60 60" fill="none" xmlns="http://www.w3.org/2000/svg">
<path d="M6.24885 22.5H53.7487M24.9988 7.5L19.9988 22.5L29.9987 51.25L39.9987 22.5L34.9987 7.5M31.5352 50.6563L53.9317 23.7804C54.3115 23.3249 54.5012 23.0971 54.5737 22.8429C54.6377 22.6188 54.6377 22.3812 54.5737 22.1571C54.5012 21.9029 54.3115 21.6751 53.9317 21.2196L43.0985 8.21962C42.878 7.9551 42.768 7.82285 42.6327 7.72777C42.513 7.64352 42.3795 7.58095 42.2382 7.54292C42.0785 7.5 41.9065 7.5 41.562 7.5H18.4356C18.0912 7.5 17.9191 7.5 17.7595 7.54292C17.6182 7.58095 17.4846 7.64352 17.3649 7.72777C17.2298 7.82285 17.1196 7.9551 16.8991 8.21962L6.06582 21.2196C5.68625 21.6751 5.49645 21.9029 5.42392 22.1571C5.36 22.3812 5.36 22.6188 5.42392 22.8429C5.49645 23.0971 5.68625 23.3249 6.06582 23.7804L28.4625 50.6563C28.99 51.2895 29.2537 51.606 29.5697 51.7215C29.8467 51.8228 30.1507 51.8228 30.428 51.7215C30.7437 51.606 31.0077 51.2895 31.5352 50.6563Z" stroke="#C48D35" stroke-width="2" stroke-linecap="round" stroke-linejoin="round"/>
</svg>
