<svg width="60" height="60" viewBox="0 0 60 60" fill="none" xmlns="http://www.w3.org/2000/svg">
<path d="M11.25 55V42.5M11.25 17.5V5M5 11.25H17.5M5 48.75H17.5M32.5 7.5L28.1645 18.7722C27.4595 20.6052 27.107 21.5218 26.5587 22.2927C26.073 22.976 25.476 23.573 24.7927 24.0588C24.0218 24.607 23.1052 24.9595 21.2721 25.6645L10 30L21.2721 34.3355C23.1052 35.0405 24.0218 35.393 24.7927 35.9413C25.476 36.427 26.073 37.024 26.5587 37.7073C27.107 38.4783 27.4595 39.3948 28.1645 41.2278L32.5 52.5L36.8355 41.2278C37.5405 39.3948 37.893 38.4783 38.4413 37.7073C38.927 37.024 39.524 36.427 40.2072 35.9413C40.9782 35.393 41.8948 35.0405 43.7278 34.3355L55 30L43.7278 25.6645C41.8948 24.9595 40.9782 24.607 40.2072 24.0588C39.524 23.573 38.927 22.976 38.4413 22.2927C37.893 21.5218 37.5405 20.6052 36.8355 18.7722L32.5 7.5Z" stroke="#C48D35" stroke-width="2" stroke-linecap="round" stroke-linejoin="round"/>
</svg>
