<svg width="16" height="16" viewBox="0 0 16 16" fill="none" xmlns="http://www.w3.org/2000/svg">
<g clip-path="url(#clip0_475_18479)">
<path d="M8.00008 15.3337C7.60008 15.3337 7.33342 15.067 7.33342 14.667V9.60033L3.73341 13.2003C3.46675 13.467 3.06675 13.467 2.80008 13.2003C2.53341 12.9337 2.53341 12.5337 2.80008 12.267L6.40008 8.66699H1.33341C0.933415 8.66699 0.666748 8.40033 0.666748 8.00033C0.666748 7.60033 0.933415 7.33366 1.33341 7.33366H6.40008L2.80008 3.73366C2.53341 3.46699 2.53341 3.06699 2.80008 2.80033C3.06675 2.53366 3.46675 2.53366 3.73341 2.80033L7.33342 6.40033V1.33366C7.33342 0.933659 7.60008 0.666992 8.00008 0.666992C8.40008 0.666992 8.66675 0.933659 8.66675 1.33366V6.40033L12.2667 2.80033C12.5334 2.53366 12.9334 2.53366 13.2001 2.80033C13.4667 3.06699 13.4667 3.46699 13.2001 3.73366L9.60008 7.33366H14.6667C15.0667 7.33366 15.3334 7.60033 15.3334 8.00033C15.3334 8.40033 15.0667 8.66699 14.6667 8.66699H9.60008L13.2001 12.267C13.4667 12.5337 13.4667 12.9337 13.2001 13.2003C12.9334 13.467 12.5334 13.467 12.2667 13.2003L8.66675 9.60033V14.667C8.66675 15.067 8.40008 15.3337 8.00008 15.3337Z" fill="#C48D35"/>
</g>
<defs>
<clipPath id="clip0_475_18479">
<rect width="16" height="16" fill="white"/>
</clipPath>
</defs>
</svg>
