<svg width="50" height="50" viewBox="0 0 50 50" fill="none" xmlns="http://www.w3.org/2000/svg">
<path d="M33.3337 33.3333V12.9167C33.3337 10.5831 33.3337 9.41633 32.8795 8.52504C32.4801 7.74102 31.8426 7.1036 31.0587 6.70415C30.1674 6.25 29.0005 6.25 26.667 6.25H10.8337C8.50012 6.25 7.33333 6.25 6.44203 6.70415C5.65801 7.1036 5.0206 7.74102 4.62114 8.52504C4.16699 9.41633 4.16699 10.5831 4.16699 12.9167V26.6667C4.16699 29.0002 4.16699 30.1671 4.62114 31.0583C5.0206 31.8423 5.65801 32.4798 6.44203 32.8792C7.33333 33.3333 8.50012 33.3333 10.8337 33.3333H33.3337ZM33.3337 33.3333H42.5003C43.6672 33.3333 44.2505 33.3333 44.6962 33.1062C45.0882 32.9065 45.4068 32.5879 45.6066 32.1958C45.8337 31.7502 45.8337 31.1669 45.8337 30V24.2973C45.8337 23.7879 45.8337 23.5331 45.7762 23.2933C45.7251 23.0806 45.6409 22.8775 45.5266 22.691C45.3978 22.4808 45.2176 22.3006 44.8574 21.9404L40.5599 17.643C40.1997 17.2827 40.0195 17.1025 39.8093 16.9737C39.6228 16.8594 39.4197 16.7753 39.207 16.7242C38.9672 16.6667 38.7124 16.6667 38.203 16.6667H33.3337M18.7503 38.5417C18.7503 41.4181 16.4185 43.75 13.542 43.75C10.6655 43.75 8.33366 41.4181 8.33366 38.5417C8.33366 35.6652 10.6655 33.3333 13.542 33.3333C16.4185 33.3333 18.7503 35.6652 18.7503 38.5417ZM41.667 38.5417C41.667 41.4181 39.3351 43.75 36.4587 43.75C33.5822 43.75 31.2503 41.4181 31.2503 38.5417C31.2503 35.6652 33.5822 33.3333 36.4587 33.3333C39.3351 33.3333 41.667 35.6652 41.667 38.5417Z" stroke="#C48D35" stroke-width="2" stroke-linecap="round" stroke-linejoin="round"/>
</svg>
