<svg width="40" height="40" viewBox="0 0 40 40" fill="none" xmlns="http://www.w3.org/2000/svg">
<path d="M13.3334 26.6667V10.3333C13.3334 8.4665 13.3334 7.53307 13.6967 6.82003C14.0162 6.19282 14.5262 5.68288 15.1534 5.36332C15.8664 5 16.7999 5 18.6667 5H31.3334C33.2002 5 34.1337 5 34.8467 5.36332C35.4739 5.68288 35.9839 6.19282 36.3034 6.82003C36.6667 7.53307 36.6667 8.4665 36.6667 10.3333V21.3333C36.6667 23.2002 36.6667 24.1337 36.3034 24.8467C35.9839 25.4738 35.4739 25.9838 34.8467 26.3033C34.1337 26.6667 33.2002 26.6667 31.3334 26.6667H13.3334ZM13.3334 26.6667H6.00008C5.06658 26.6667 4.59991 26.6667 4.24341 26.485C3.92975 26.3252 3.67491 26.0703 3.51508 25.7567C3.33341 25.4002 3.33342 24.9335 3.33342 24V19.4378C3.33342 19.0303 3.33341 18.8265 3.37941 18.6347C3.42025 18.4645 3.48758 18.302 3.57908 18.1528C3.68208 17.9847 3.82625 17.8405 4.11441 17.5523L7.55242 14.1144C7.84058 13.8261 7.98475 13.682 8.15292 13.5789C8.30208 13.4875 8.46458 13.4202 8.63475 13.3794C8.82658 13.3333 9.03042 13.3333 9.43792 13.3333H13.3334M25.0001 30.8333C25.0001 33.1345 26.8656 35 29.1667 35C31.4679 35 33.3334 33.1345 33.3334 30.8333C33.3334 28.5322 31.4679 26.6667 29.1667 26.6667C26.8656 26.6667 25.0001 28.5322 25.0001 30.8333ZM6.66675 30.8333C6.66675 33.1345 8.53225 35 10.8334 35C13.1346 35 15.0001 33.1345 15.0001 30.8333C15.0001 28.5322 13.1346 26.6667 10.8334 26.6667C8.53225 26.6667 6.66675 28.5322 6.66675 30.8333Z" stroke="black" stroke-width="1.5" stroke-linecap="round" stroke-linejoin="round"/>
</svg>
