<svg width="180" height="60" viewBox="0 0 180 60" fill="none" xmlns="http://www.w3.org/2000/svg">
<g clip-path="url(#clip0_475_18643)">
<path d="M171 0.75H9C4.44365 0.75 0.75 4.44365 0.75 9V51C0.75 55.5564 4.44365 59.25 9 59.25H171C175.556 59.25 179.25 55.5564 179.25 51V9C179.25 4.44365 175.556 0.75 171 0.75Z" fill="black" fill-opacity="0.6"/>
<path d="M171 0.75H9C4.44365 0.75 0.75 4.44365 0.75 9V51C0.75 55.5564 4.44365 59.25 9 59.25H171C175.556 59.25 179.25 55.5564 179.25 51V9C179.25 4.44365 175.556 0.75 171 0.75Z" stroke="white" stroke-opacity="0.14"/>
<path d="M37.0567 31.1444C37.0749 29.7646 37.4503 28.4117 38.1481 27.2116C38.8458 26.0114 39.8431 25.003 41.0472 24.2803C40.2822 23.2138 39.2731 22.336 38.1 21.7168C36.9267 21.0976 35.6218 20.7539 34.2888 20.7133C31.4452 20.4218 28.6887 22.3744 27.2397 22.3744C25.7626 22.3744 23.5317 20.7422 21.1293 20.7904C19.5753 20.8394 18.0609 21.2806 16.7335 22.0709C15.4062 22.8613 14.3111 23.9738 13.5551 25.3001C10.2803 30.8357 12.723 38.9711 15.8601 43.4458C17.4295 45.6368 19.2639 48.0844 21.6642 47.9975C24.0129 47.9024 24.8901 46.5353 27.7252 46.5353C30.5341 46.5353 31.3572 47.9975 33.8061 47.9423C36.3264 47.9024 37.9143 45.7415 39.4288 43.5298C40.5565 41.9686 41.4243 40.243 42 38.4172C40.5357 37.8125 39.2862 36.8005 38.4072 35.5072C37.528 34.2139 37.0584 32.6966 37.0567 31.1444Z" fill="white"/>
<path d="M32.4313 17.7706C33.8054 16.1601 34.4825 14.09 34.3186 12C32.2192 12.2153 30.2798 13.1949 28.8871 14.7437C28.2061 15.5002 27.6845 16.3804 27.3523 17.334C27.0199 18.2875 26.8834 19.2957 26.9504 20.3007C28.0004 20.3112 29.0393 20.089 29.9887 19.6507C30.9382 19.2126 31.7732 18.5697 32.4313 17.7706Z" fill="white"/>
<path d="M55.1865 12.7519H58.2912C60.9741 12.7519 62.2793 14.3472 62.2793 17.2409C62.2793 20.1347 60.9609 21.7498 58.2912 21.7498H55.1865V12.7519ZM56.6829 14.011V20.4907H58.1265C59.9063 20.4907 60.7434 19.4162 60.7434 17.2607C60.7434 15.092 59.8997 14.011 58.1265 14.011H56.6829ZM67.0122 14.6636C68.8316 14.6636 70.1037 15.8435 70.1037 17.8013V18.7043C70.1037 20.728 68.8316 21.8684 67.0122 21.8684C65.1665 21.8684 63.9075 20.7412 63.9075 18.7109V17.8079C63.9075 15.9029 65.1863 14.6636 67.0122 14.6636ZM67.0188 15.8435C65.9774 15.8435 65.3841 16.7137 65.3841 17.8804V18.6583C65.3841 19.825 65.9378 20.6885 67.0188 20.6885C68.0867 20.6885 68.6339 19.8316 68.6339 18.6583V17.8804C68.6339 16.7137 68.0603 15.8435 67.0188 15.8435ZM80.8484 14.7822L79.0158 21.7498H77.5262L76.0694 16.6082H76.0298L74.5994 21.7498H73.1031L71.1914 14.7822H72.7668L73.8875 20.0953H73.9533L75.3575 14.7822H76.7351L78.1787 20.0953H78.2447L79.385 14.7822H80.8484ZM82.2986 21.7498V14.7822H83.7356V16.0346H83.8082C83.9861 15.4876 84.4937 14.6768 85.9043 14.6768C87.3084 14.6768 88.251 15.4546 88.251 17.0432V21.7498H86.7876V17.4716C86.7876 16.4104 86.234 15.9226 85.4099 15.9226C84.3288 15.9226 83.762 16.7531 83.762 17.8804V21.7498H82.2986ZM90.4658 21.7498V12.2773H91.9292V21.7498H90.4658ZM96.9522 14.6636C98.7716 14.6636 100.044 15.8435 100.044 17.8013V18.7043C100.044 20.728 98.7716 21.8684 96.9522 21.8684C95.1065 21.8684 93.8474 20.7412 93.8474 18.7109V17.8079C93.8474 15.9029 95.1263 14.6636 96.9522 14.6636ZM96.9588 15.8435C95.9172 15.8435 95.324 16.7137 95.324 17.8804V18.6583C95.324 19.825 95.8778 20.6885 96.9588 20.6885C98.0267 20.6885 98.5737 19.8316 98.5737 18.6583V17.8804C98.5737 16.7137 98.0003 15.8435 96.9588 15.8435ZM103.834 21.8552C102.483 21.8552 101.553 21.0247 101.553 19.7261C101.553 18.4934 102.41 17.6629 104.019 17.6629H105.779V17.0102C105.779 16.2127 105.271 15.8369 104.467 15.8369C103.676 15.8369 103.32 16.1665 103.208 16.6279H101.817C101.903 15.4612 102.779 14.6768 104.513 14.6768C106.003 14.6768 107.235 15.2965 107.235 17.03V21.7498H105.845V20.8466H105.779C105.469 21.3806 104.862 21.8552 103.834 21.8552ZM104.289 20.7215C105.119 20.7215 105.779 20.1545 105.779 19.3966V18.6451H104.249C103.399 18.6451 103.023 19.0735 103.023 19.6535C103.023 20.3786 103.63 20.7215 104.289 20.7215ZM111.744 14.6899C112.726 14.6899 113.478 15.125 113.748 15.8303H113.821V12.2773H115.284V21.7498H113.86V20.6357H113.788C113.577 21.341 112.74 21.842 111.724 21.842C110.123 21.842 109.081 20.7017 109.081 18.8626V17.6695C109.081 15.8303 110.142 14.6899 111.744 14.6899ZM112.153 15.8897C111.177 15.8897 110.571 16.6148 110.571 17.8804V18.6451C110.571 19.9172 111.184 20.6423 112.186 20.6423C113.175 20.6423 113.821 19.9238 113.821 18.7373V17.6827C113.821 16.6082 113.115 15.8897 112.153 15.8897ZM123.319 14.6636C125.139 14.6636 126.411 15.8435 126.411 17.8013V18.7043C126.411 20.728 125.139 21.8684 123.319 21.8684C121.474 21.8684 120.215 20.7412 120.215 18.7109V17.8079C120.215 15.9029 121.493 14.6636 123.319 14.6636ZM123.326 15.8435C122.284 15.8435 121.691 16.7137 121.691 17.8804V18.6583C121.691 19.825 122.245 20.6885 123.326 20.6885C124.394 20.6885 124.941 19.8316 124.941 18.6583V17.8804C124.941 16.7137 124.367 15.8435 123.326 15.8435ZM128.296 21.7498V14.7822H129.733V16.0346H129.806C129.984 15.4876 130.491 14.6768 131.902 14.6768C133.306 14.6768 134.249 15.4546 134.249 17.0432V21.7498H132.785V17.4716C132.785 16.4104 132.231 15.9226 131.408 15.9226C130.326 15.9226 129.759 16.7531 129.759 17.8804V21.7498H128.296ZM139.911 14.8284V13.0881H141.341V14.8284H142.904V15.9754H141.341V19.6733C141.341 20.4314 141.625 20.6423 142.409 20.6423C142.607 20.6423 142.871 20.6291 142.983 20.6159V21.7366C142.864 21.7564 142.376 21.796 142.047 21.796C140.353 21.796 139.891 21.1895 139.891 19.792V15.9754H138.83V14.8284H139.911ZM144.749 21.7498V12.2773H146.206V16.0346H146.279C146.43 15.5404 146.997 14.6768 148.395 14.6768C149.753 14.6768 150.722 15.4612 150.722 17.0498V21.7498H149.265V17.4782C149.265 16.417 148.678 15.9226 147.847 15.9226C146.799 15.9226 146.206 16.7467 146.206 17.8804V21.7498H144.749ZM155.633 21.8684C153.734 21.8684 152.555 20.7017 152.555 18.7373V17.7947C152.555 15.8171 153.846 14.6636 155.547 14.6636C157.293 14.6636 158.526 15.8765 158.526 17.7947V18.6121H154.004V18.9548C154.004 19.9568 154.598 20.6951 155.625 20.6951C156.39 20.6951 156.918 20.3326 157.017 19.8974H158.447C158.361 20.7017 157.511 21.8684 155.633 21.8684ZM154.004 17.6563H157.095V17.564C157.095 16.5158 156.483 15.8171 155.553 15.8171C154.625 15.8171 154.004 16.5158 154.004 17.564V17.6563Z" fill="white"/>
<path d="M57.3091 45.7504H54.2637L60.4599 27.7548H63.8086L69.9916 45.7504H66.8277L65.2324 40.767H58.9174L57.3091 45.7504ZM62.1474 30.8661H62.0287L59.5899 38.473H64.56L62.1474 30.8661ZM78.3966 45.9481C76.5904 45.9481 75.2193 45.0912 74.481 43.8124H74.3755V50.3779H71.4487V31.8154H74.2965V33.8589H74.4019C75.1666 32.5273 76.5904 31.6308 78.4624 31.6308C81.5869 31.6308 83.815 33.9907 83.815 38.1567V39.396C83.815 43.5355 81.6133 45.9481 78.3966 45.9481ZM77.7241 43.5355C79.5831 43.5355 80.8486 42.0459 80.8486 39.2377V38.2621C80.8486 35.5596 79.6621 34.017 77.6715 34.017C75.628 34.017 74.3491 35.6782 74.3491 38.2489V39.2377C74.3491 41.8744 75.6412 43.5355 77.7241 43.5355ZM93.2745 45.9481C91.4683 45.9481 90.0973 45.0912 89.359 43.8124H89.2536V50.3779H86.3268V31.8154H89.1744V33.8589H89.28C90.0445 32.5273 91.4683 31.6308 93.3405 31.6308C96.465 31.6308 98.6931 33.9907 98.6931 38.1567V39.396C98.6931 43.5355 96.4914 45.9481 93.2745 45.9481ZM92.6022 43.5355C94.4611 43.5355 95.7267 42.0459 95.7267 39.2377V38.2621C95.7267 35.5596 94.5402 34.017 92.5494 34.017C90.5059 34.017 89.2272 35.6782 89.2272 38.2489V39.2377C89.2272 41.8744 90.5191 43.5355 92.6022 43.5355ZM104.758 40.7538H107.685C107.817 42.3096 109.188 43.6411 111.732 43.6411C114.066 43.6411 115.45 42.5469 115.45 40.8462C115.45 39.475 114.527 38.7367 112.602 38.2753L109.649 37.537C107.329 36.9966 105.246 35.6122 105.246 32.6854C105.246 29.2446 108.252 27.3594 111.745 27.3594C115.239 27.3594 118.153 29.2446 118.219 32.6064H115.345C115.213 31.0771 114.039 29.8114 111.706 29.8114C109.649 29.8114 108.252 30.787 108.252 32.4613C108.252 33.6348 109.069 34.4785 110.743 34.8607L113.683 35.5858C116.386 36.2451 118.443 37.5238 118.443 40.5825C118.443 44.1157 115.582 46.1064 111.508 46.1064C106.498 46.1064 104.824 43.1796 104.758 40.7538ZM122.009 31.8154V28.4272H124.883V31.8154H127.599V34.162H124.883V41.5975C124.883 43.1137 125.45 43.5355 127.019 43.5355C127.269 43.5355 127.507 43.5355 127.678 43.5093V45.7504C127.441 45.79 126.887 45.8427 126.294 45.8427C122.906 45.8427 121.97 44.6298 121.97 41.8348V34.162H120.045V31.8154H122.009ZM135.503 31.5781C139.511 31.5781 141.686 34.3993 141.686 38.1963V39.3168C141.686 43.2456 139.524 45.9877 135.503 45.9877C131.482 45.9877 129.293 43.2456 129.293 39.3168V38.1963C129.293 34.4125 131.495 31.5781 135.503 31.5781ZM135.503 33.9247C133.328 33.9247 132.247 35.7045 132.247 38.2357V39.3036C132.247 41.7954 133.314 43.6279 135.503 43.6279C137.691 43.6279 138.746 41.8086 138.746 39.3036V38.2357C138.746 35.6913 137.678 33.9247 135.503 33.9247ZM144.158 45.7504V31.8154H147.085V33.6478H147.19C147.546 32.7778 148.588 31.6176 150.526 31.6176C150.909 31.6176 151.237 31.644 151.515 31.6968V34.2807C151.264 34.2148 150.75 34.1752 150.262 34.1752C147.916 34.1752 147.124 35.6254 147.124 37.4974V45.7504H144.158ZM158.614 45.9877C154.884 45.9877 152.511 43.5223 152.511 39.396V37.9852C152.511 34.0962 154.83 31.5781 158.496 31.5781C162.213 31.5781 164.454 34.1884 164.454 38.1171V39.4486H155.397V39.7783C155.397 42.1249 156.663 43.6806 158.653 43.6806C160.143 43.6806 161.158 42.9423 161.515 41.7426H164.296C163.875 43.9971 162.055 45.9877 158.614 45.9877ZM155.397 37.4052H161.593V37.3788C161.593 35.4013 160.368 33.8457 158.509 33.8457C156.624 33.8457 155.397 35.4013 155.397 37.3788V37.4052Z" fill="white"/>
</g>
<defs>
<clipPath id="clip0_475_18643">
<rect width="180" height="60" fill="white"/>
</clipPath>
</defs>
</svg>
