<svg width="30" height="30" viewBox="0 0 30 30" fill="none" xmlns="http://www.w3.org/2000/svg">
<path d="M9.83582 19.3249L8.75 27.5L14.4855 24.0587C14.6726 23.9465 14.7661 23.8904 14.866 23.8684C14.9543 23.849 15.0457 23.849 15.134 23.8684C15.2339 23.8904 15.3274 23.9465 15.5145 24.0587L21.25 27.5L20.1649 19.3214M20.5324 5.3111C20.7254 5.778 21.096 6.14912 21.5625 6.34287L23.1986 7.0206C23.6656 7.21401 24.0365 7.58498 24.23 8.05192C24.4234 8.51886 24.4234 9.04351 24.23 9.51045L23.5527 11.1454C23.3592 11.6126 23.359 12.1378 23.5534 12.6046L24.2294 14.2391C24.3252 14.4705 24.3746 14.7184 24.3746 14.9687C24.3748 15.219 24.3254 15.467 24.2296 15.6982C24.1339 15.9295 23.9934 16.1397 23.8164 16.3167C23.6393 16.4937 23.4291 16.6341 23.1978 16.7299L21.5629 17.407C21.096 17.6001 20.7249 17.9706 20.5311 18.4372L19.8534 20.0735C19.66 20.5404 19.289 20.9114 18.8221 21.1047C18.3551 21.2982 17.8305 21.2982 17.3636 21.1047L15.7288 20.4275C15.2618 20.2346 14.7374 20.235 14.2708 20.4286L12.6346 21.1054C12.1679 21.2984 11.6438 21.2982 11.1772 21.105C10.7107 20.9116 10.3399 20.5411 10.1464 20.0747L9.46849 18.438C9.27544 17.9711 8.90489 17.6 8.4383 17.4062L6.80219 16.7285C6.33548 16.5352 5.96461 16.1645 5.77114 15.6977C5.57766 15.2311 5.5774 14.7067 5.77041 14.2399L6.44763 12.6049C6.64055 12.1379 6.64016 11.6135 6.44652 11.1468L5.77029 9.50948C5.67441 9.27821 5.62504 9.03032 5.625 8.77996C5.62496 8.52961 5.67425 8.2817 5.77005 8.0504C5.86585 7.81911 6.0063 7.60895 6.18335 7.43195C6.3604 7.25495 6.57059 7.11457 6.8019 7.01885L8.43684 6.34161C8.90331 6.14872 9.2742 5.77862 9.4681 5.31255L10.1458 3.67638C10.3392 3.20945 10.7102 2.83847 11.1771 2.64506C11.644 2.45165 12.1686 2.45165 12.6355 2.64506L14.2705 3.3223C14.7374 3.51522 15.2619 3.51483 15.7285 3.3212L17.3653 2.64611C17.8321 2.4528 18.3566 2.45285 18.8235 2.64621C19.2902 2.83958 19.6613 3.21046 19.8546 3.67727L20.5325 5.31393L20.5324 5.3111Z" stroke="white" stroke-width="1.5" stroke-linecap="round" stroke-linejoin="round"/>
</svg>
