<svg width="30" height="30" viewBox="0 0 30 30" fill="none" xmlns="http://www.w3.org/2000/svg">
<path d="M10 20V7.75C10 6.34987 10 5.6498 10.2725 5.11503C10.5121 4.64461 10.8946 4.26216 11.365 4.02249C11.8998 3.75 12.5999 3.75 14 3.75H23.5C24.9001 3.75 25.6002 3.75 26.135 4.02249C26.6054 4.26216 26.9878 4.64461 27.2275 5.11503C27.5 5.6498 27.5 6.34987 27.5 7.75V16C27.5 17.4001 27.5 18.1002 27.2275 18.635C26.9878 19.1054 26.6054 19.4879 26.135 19.7275C25.6002 20 24.9001 20 23.5 20H10ZM10 20H4.5C3.79988 20 3.44987 20 3.1825 19.8637C2.94725 19.7439 2.75612 19.5528 2.63625 19.3175C2.5 19.0501 2.5 18.7001 2.5 18V14.5784C2.5 14.2727 2.5 14.1199 2.5345 13.976C2.56512 13.8484 2.61562 13.7265 2.68425 13.6146C2.7615 13.4885 2.86962 13.3804 3.08575 13.1642L5.66425 10.5858C5.88038 10.3696 5.9885 10.2615 6.11463 10.1842C6.2265 10.1157 6.34837 10.0652 6.476 10.0345C6.61987 10 6.77275 10 7.07838 10H10M18.75 23.125C18.75 24.8509 20.1491 26.25 21.875 26.25C23.6009 26.25 25 24.8509 25 23.125C25 21.3991 23.6009 20 21.875 20C20.1491 20 18.75 21.3991 18.75 23.125ZM5 23.125C5 24.8509 6.39913 26.25 8.125 26.25C9.85087 26.25 11.25 24.8509 11.25 23.125C11.25 21.3991 9.85087 20 8.125 20C6.39913 20 5 21.3991 5 23.125Z" stroke="white" stroke-width="1.5" stroke-linecap="round" stroke-linejoin="round"/>
</svg>
