<svg width="40" height="40" viewBox="0 0 40 40" fill="none" xmlns="http://www.w3.org/2000/svg">
<path d="M13.3333 23.332C13.3333 23.332 15.8333 26.6654 19.9999 26.6654C24.1666 26.6654 26.6666 23.332 26.6666 23.332M24.9999 14.9987H25.0166M14.9999 14.9987H15.0166M36.6666 19.9987C36.6666 29.2034 29.2046 36.6654 19.9999 36.6654C10.7952 36.6654 3.33325 29.2034 3.33325 19.9987C3.33325 10.7939 10.7952 3.33203 19.9999 3.33203C29.2046 3.33203 36.6666 10.7939 36.6666 19.9987ZM25.8333 14.9987C25.8333 15.4589 25.4601 15.832 24.9999 15.832C24.5398 15.832 24.1666 15.4589 24.1666 14.9987C24.1666 14.5385 24.5398 14.1654 24.9999 14.1654C25.4601 14.1654 25.8333 14.5385 25.8333 14.9987ZM15.8333 14.9987C15.8333 15.4589 15.4602 15.832 14.9999 15.832C14.5397 15.832 14.1666 15.4589 14.1666 14.9987C14.1666 14.5385 14.5397 14.1654 14.9999 14.1654C15.4602 14.1654 15.8333 14.5385 15.8333 14.9987Z" stroke="black" stroke-width="2" stroke-linecap="round" stroke-linejoin="round"/>
</svg>
