<svg width="30" height="30" viewBox="0 0 30 30" fill="none" xmlns="http://www.w3.org/2000/svg">
<path d="M25.625 9.09692L15 14.9998M15 14.9998L4.37496 9.09692M15 14.9998V26.8748M26.25 20.0729V9.92655C26.25 9.49825 26.25 9.2841 26.1869 9.0931C26.1311 8.92412 26.0397 8.76902 25.9192 8.63816C25.7829 8.49023 25.5958 8.38623 25.2213 8.17823L15.9713 3.03935C15.6168 2.8424 15.4395 2.74392 15.2519 2.70531C15.0856 2.67115 14.9144 2.67115 14.7483 2.70531C14.5605 2.74392 14.3832 2.8424 14.0287 3.03935L4.77871 8.17823C4.40431 8.38623 4.21711 8.49023 4.08079 8.63816C3.9602 8.76902 3.86894 8.92412 3.8131 9.0931C3.75 9.2841 3.75 9.49825 3.75 9.92655V20.0729C3.75 20.5013 3.75 20.7154 3.8131 20.9064C3.86894 21.0754 3.9602 21.2305 4.08079 21.3613C4.21711 21.5093 4.40431 21.6133 4.77871 21.8213L14.0287 26.9601C14.3832 27.1571 14.5605 27.2555 14.7483 27.2941C14.9144 27.3284 15.0856 27.3284 15.2519 27.2941C15.4395 27.2555 15.6168 27.1571 15.9713 26.9601L25.2213 21.8213C25.5958 21.6133 25.7829 21.5093 25.9192 21.3613C26.0397 21.2305 26.1311 21.0754 26.1869 20.9064C26.25 20.7154 26.25 20.5013 26.25 20.0729Z" stroke="white" stroke-width="1.5" stroke-linecap="round" stroke-linejoin="round"/>
<path d="M20.625 11.875L9.375 5.625" stroke="white" stroke-width="1.5" stroke-linecap="round" stroke-linejoin="round"/>
</svg>
