<svg width="50" height="50" viewBox="0 0 50 50" fill="none" xmlns="http://www.w3.org/2000/svg">
<path d="M18.7497 23.9587L22.9163 28.1253L32.2913 18.7503M41.6663 25.0003C41.6663 35.2262 30.5122 42.6637 26.4538 45.0312C25.9926 45.3003 25.762 45.4349 25.4365 45.5047C25.1838 45.5589 24.8155 45.5589 24.5628 45.5047C24.2374 45.4349 24.0068 45.3003 23.5455 45.0312C19.4871 42.6637 8.33301 35.2262 8.33301 25.0003V15.0369C8.33301 13.3713 8.33301 12.5385 8.60542 11.8226C8.84607 11.1901 9.23713 10.6258 9.7448 10.1785C10.3195 9.67201 11.0993 9.3796 12.6588 8.79474L23.8293 4.60583C24.2624 4.44341 24.4788 4.3622 24.7018 4.33002C24.8993 4.30145 25.1001 4.30145 25.2976 4.33002C25.5205 4.3622 25.737 4.44341 26.1701 4.60583L37.3405 8.79474C38.9001 9.3796 39.6799 9.67201 40.2545 10.1785C40.7622 10.6258 41.1532 11.1901 41.3938 11.8226C41.6663 12.5385 41.6663 13.3713 41.6663 15.0369V25.0003Z" stroke="#C48D35" stroke-width="2" stroke-linecap="round" stroke-linejoin="round"/>
</svg>
