<svg width="30" height="30" viewBox="0 0 30 30" fill="none" xmlns="http://www.w3.org/2000/svg">
<path d="M3.12442 11.25H26.8744M12.4994 3.75L9.99942 11.25L14.9994 25.625L19.9994 11.25L17.4994 3.75M15.7676 25.3281L26.9659 11.8902C27.1557 11.6624 27.2506 11.5486 27.2869 11.4215C27.3189 11.3094 27.3189 11.1906 27.2869 11.0785C27.2506 10.9514 27.1557 10.8376 26.9659 10.6098L21.5492 4.10981C21.439 3.97755 21.384 3.91142 21.3164 3.86389C21.2565 3.82176 21.1897 3.79047 21.1191 3.77146C21.0392 3.75 20.9532 3.75 20.781 3.75H9.2178C9.04562 3.75 8.95955 3.75 8.87977 3.77146C8.8091 3.79047 8.74231 3.82176 8.68245 3.86389C8.6149 3.91142 8.55978 3.97755 8.44957 4.10981L3.03291 10.6098C2.84312 10.8376 2.74822 10.9514 2.71196 11.0785C2.68 11.1906 2.68 11.3094 2.71196 11.4215C2.74822 11.5486 2.84312 11.6624 3.03291 11.8902L14.2312 25.3281C14.495 25.6448 14.6269 25.803 14.7849 25.8608C14.9234 25.9114 15.0754 25.9114 15.214 25.8608C15.3719 25.803 15.5039 25.6448 15.7676 25.3281Z" stroke="white" stroke-width="1.5" stroke-linecap="round" stroke-linejoin="round"/>
</svg>
