<svg width="141" height="29" viewBox="0 0 141 29" fill="none" xmlns="http://www.w3.org/2000/svg">
<path d="M5.86808e-05 0.000779152H5.32006V26.1208H18.7601V27.8008H5.86808e-05V0.000779152ZM28.6291 7.00078C31.6158 7.00078 33.9491 7.88078 35.6291 9.64078C37.3358 11.3741 38.1891 13.7741 38.1891 16.8408V17.0408H23.7091C23.7091 18.3208 23.8558 19.4808 24.1491 20.5208C24.4691 21.5608 24.9091 22.4541 25.4691 23.2008C26.0558 23.9474 26.7491 24.5341 27.5491 24.9608C28.3758 25.3608 29.2825 25.5608 30.2691 25.5608C31.5225 25.5608 32.6291 25.2274 33.5891 24.5608C34.5491 23.8674 35.2291 22.9608 35.6291 21.8408L37.8691 22.2408C37.5758 23.1474 37.1358 23.9741 36.5491 24.7208C35.9891 25.4408 35.3091 26.0674 34.5091 26.6008C33.7358 27.1074 32.8691 27.5074 31.9091 27.8008C30.9491 28.0674 29.9225 28.2008 28.8291 28.2008C27.2558 28.2008 25.8158 27.9474 24.5091 27.4408C23.2291 26.9341 22.1358 26.2274 21.2291 25.3208C20.3225 24.3874 19.6158 23.2674 19.1091 21.9608C18.6291 20.6274 18.3891 19.1608 18.3891 17.5608C18.3891 15.9608 18.6291 14.5074 19.1091 13.2008C19.6158 11.8941 20.3091 10.7874 21.1891 9.88078C22.0958 8.94745 23.1758 8.24078 24.4291 7.76078C25.6825 7.25411 27.0825 7.00078 28.6291 7.00078ZM28.6691 8.80078C27.2825 8.82745 26.1625 9.42745 25.3091 10.6008C24.4825 11.7741 23.9758 13.3741 23.7891 15.4008H32.9091C32.6958 10.9741 31.2825 8.77411 28.6691 8.80078ZM67.8707 27.8008V13.3608C67.8707 12.0274 67.5907 11.0141 67.0307 10.3208C66.4707 9.62745 65.6574 9.28078 64.5907 9.28078C63.8707 9.28078 63.1774 9.48078 62.5107 9.88078C61.8707 10.2808 61.2974 10.8141 60.7907 11.4808C60.3107 12.1208 59.924 12.8674 59.6307 13.7208C59.364 14.5474 59.2307 15.3874 59.2307 16.2408V27.8008H54.1507V13.3608C54.1507 12.0274 53.8574 11.0141 53.2707 10.3208C52.684 9.62745 51.8574 9.28078 50.7907 9.28078C50.0974 9.28078 49.4307 9.48078 48.7907 9.88078C48.1507 10.2541 47.5907 10.7608 47.1107 11.4008C46.6307 12.0408 46.244 12.7874 45.9507 13.6408C45.6574 14.4674 45.5107 15.3474 45.5107 16.2808V27.8008H40.3907V7.40078H45.5107V8.60078C45.5107 9.34745 45.444 10.0408 45.3107 10.6808C45.1774 11.2941 45.004 11.7341 44.7907 12.0008L44.9907 12.1208C46.564 8.70745 48.9507 7.00078 52.1507 7.00078C52.9774 7.00078 53.7507 7.12078 54.4707 7.36078C55.2174 7.57411 55.8707 7.89411 56.4307 8.32078C57.0174 8.74745 57.5107 9.24078 57.9107 9.80078C58.3107 10.3608 58.5907 10.9874 58.7507 11.6808L58.9907 11.7208C60.4574 8.57411 62.7774 7.00078 65.9507 7.00078C70.644 7.00078 72.9907 9.52078 72.9907 14.5608V27.8008H67.8707ZM75.226 17.5608C75.226 15.9874 75.466 14.5474 75.946 13.2408C76.4527 11.9341 77.146 10.8274 78.026 9.92078C78.9327 8.98745 80.0127 8.26745 81.266 7.76078C82.5193 7.25411 83.9193 7.00078 85.466 7.00078C86.9593 7.00078 88.3193 7.25411 89.546 7.76078C90.7993 8.26745 91.866 8.98745 92.746 9.92078C93.626 10.8274 94.306 11.9341 94.786 13.2408C95.266 14.5474 95.506 15.9874 95.506 17.5608C95.506 19.1608 95.266 20.6141 94.786 21.9208C94.306 23.2274 93.626 24.3474 92.746 25.2808C91.866 26.2141 90.7993 26.9341 89.546 27.4408C88.3193 27.9474 86.9593 28.2008 85.466 28.2008C83.9193 28.2008 82.5193 27.9474 81.266 27.4408C80.0127 26.9341 78.9327 26.2141 78.026 25.2808C77.146 24.3474 76.4527 23.2274 75.946 21.9208C75.466 20.6141 75.226 19.1608 75.226 17.5608ZM80.506 17.5608C80.506 20.4674 80.9327 22.6674 81.786 24.1608C82.6393 25.6541 83.866 26.4008 85.466 26.4008C88.6393 26.4008 90.226 23.4541 90.226 17.5608C90.226 11.6941 88.6393 8.76078 85.466 8.76078C83.866 8.76078 82.6393 9.52078 81.786 11.0408C80.9593 12.5341 80.5327 14.7074 80.506 17.5608ZM111.493 11.7608C110.053 11.4408 108.813 11.2808 107.773 11.2808C105.986 11.2808 104.733 11.7741 104.013 12.7608C103.293 13.7474 102.933 15.3074 102.933 17.4408V27.8008H97.8126V7.40078H102.933V8.36078C102.933 9.16078 102.866 9.89411 102.733 10.5608C102.626 11.2274 102.453 11.7074 102.213 12.0008L102.413 12.1208C104.013 8.70745 106.559 7.00078 110.053 7.00078C110.213 7.00078 110.413 7.00078 110.653 7.00078C110.893 7.00078 111.093 7.01411 111.253 7.04078L111.493 11.7608ZM111.905 22.2408C111.905 20.4541 112.531 19.0408 113.785 18.0008C115.065 16.9341 117.038 16.1608 119.705 15.6808L126.145 14.6008C126.118 12.7074 125.745 11.2674 125.025 10.2808C124.331 9.29411 123.331 8.80078 122.025 8.80078C120.798 8.80078 119.811 9.25411 119.065 10.1608C118.318 11.0674 117.905 12.2941 117.825 13.8408H112.705C112.731 12.8008 112.971 11.8541 113.425 11.0008C113.878 10.1474 114.505 9.42745 115.305 8.84078C116.105 8.25411 117.065 7.80078 118.185 7.48078C119.305 7.16078 120.558 7.00078 121.945 7.00078C124.985 7.00078 127.291 7.65411 128.865 8.96078C130.465 10.2408 131.265 12.1341 131.265 14.6408V23.6008C131.265 24.4808 131.385 25.0674 131.625 25.3608C131.865 25.6541 132.305 25.7341 132.945 25.6008L132.905 26.9208C132.691 27.2408 132.238 27.5341 131.545 27.8008C130.878 28.0674 130.238 28.2008 129.625 28.2008C128.745 28.2008 127.998 27.9341 127.385 27.4008C126.798 26.8674 126.465 26.1741 126.385 25.3208L126.265 23.6008L126.065 23.5608C125.558 25.0008 124.718 26.1341 123.545 26.9608C122.371 27.7874 120.985 28.2008 119.385 28.2008C118.265 28.2008 117.238 28.0541 116.305 27.7608C115.398 27.4674 114.611 27.0674 113.945 26.5608C113.305 26.0274 112.798 25.4008 112.425 24.6808C112.078 23.9341 111.905 23.1208 111.905 22.2408ZM117.185 22.1208C117.185 23.1341 117.518 23.9608 118.185 24.6008C118.851 25.2408 119.731 25.5608 120.825 25.5608C121.571 25.5608 122.265 25.4141 122.905 25.1208C123.545 24.8008 124.105 24.3874 124.585 23.8808C125.065 23.3474 125.438 22.7474 125.705 22.0808C125.998 21.3874 126.145 20.6808 126.145 19.9608V16.0808L123.545 16.7208C119.305 17.7608 117.185 19.5608 117.185 22.1208Z" fill="white"/>
<path d="M135.781 24.0008H140.901V27.8008H135.781V24.0008Z" fill="#C48D35"/>
</svg>
