<svg width="120" height="24" viewBox="0 0 120 24" fill="none" xmlns="http://www.w3.org/2000/svg">
<path d="M-0.00012102 -0.000118971H4.52188V22.2019H15.9459V23.6299H-0.00012102V-0.000118971ZM24.3346 5.94988C26.8732 5.94988 28.8566 6.69788 30.2846 8.19388C31.7352 9.66722 32.4606 11.7072 32.4606 14.3139V14.4839H20.1526C20.1526 15.5719 20.2772 16.5579 20.5266 17.4419C20.7986 18.3259 21.1726 19.0852 21.6486 19.7199C22.1472 20.3545 22.7366 20.8532 23.4166 21.2159C24.1192 21.5559 24.8899 21.7259 25.7286 21.7259C26.7939 21.7259 27.7346 21.4425 28.5506 20.8759C29.3666 20.2865 29.9446 19.5159 30.2846 18.5639L32.1886 18.9039C31.9392 19.6745 31.5652 20.3772 31.0666 21.0119C30.5906 21.6239 30.0126 22.1565 29.3326 22.6099C28.6752 23.0405 27.9386 23.3805 27.1226 23.6299C26.3066 23.8565 25.4339 23.9699 24.5046 23.9699C23.1672 23.9699 21.9432 23.7545 20.8326 23.3239C19.7446 22.8932 18.8152 22.2925 18.0446 21.5219C17.2739 20.7285 16.6732 19.7765 16.2426 18.6659C15.8346 17.5325 15.6306 16.2859 15.6306 14.9259C15.6306 13.5659 15.8346 12.3305 16.2426 11.2199C16.6732 10.1092 17.2626 9.16855 18.0106 8.39788C18.7812 7.60455 19.6992 7.00388 20.7646 6.59588C21.8299 6.16521 23.0199 5.94988 24.3346 5.94988ZM24.3686 7.47988C23.1899 7.50255 22.2379 8.01255 21.5126 9.00988C20.8099 10.0072 20.3792 11.3672 20.2206 13.0899H27.9726C27.7912 9.32722 26.5899 7.45722 24.3686 7.47988ZM57.6899 23.6299V11.3559C57.6899 10.2225 57.4519 9.36122 56.9759 8.77188C56.4999 8.18255 55.8086 7.88788 54.9019 7.88788C54.2899 7.88788 53.7006 8.05788 53.1339 8.39788C52.5899 8.73788 52.1026 9.19122 51.6719 9.75788C51.2639 10.3019 50.9352 10.9365 50.6859 11.6619C50.4592 12.3645 50.3459 13.0785 50.3459 13.8039V23.6299H46.0279V11.3559C46.0279 10.2225 45.7786 9.36122 45.2799 8.77188C44.7812 8.18255 44.0786 7.88788 43.1719 7.88788C42.5826 7.88788 42.0159 8.05788 41.4719 8.39788C40.9279 8.71522 40.4519 9.14588 40.0439 9.68988C39.6359 10.2339 39.3072 10.8685 39.0579 11.5939C38.8086 12.2965 38.6839 13.0445 38.6839 13.8379V23.6299H34.3319V6.28988H38.6839V7.30988C38.6839 7.94455 38.6272 8.53388 38.5139 9.07788C38.4006 9.59922 38.2532 9.97322 38.0719 10.1999L38.2419 10.3019C39.5792 7.40055 41.6079 5.94988 44.3279 5.94988C45.0306 5.94988 45.6879 6.05188 46.2999 6.25588C46.9346 6.43722 47.4899 6.70922 47.9659 7.07188C48.4646 7.43455 48.8839 7.85388 49.2239 8.32988C49.5639 8.80588 49.8019 9.33855 49.9379 9.92788L50.1419 9.96188C51.3886 7.28722 53.3606 5.94988 56.0579 5.94988C60.0472 5.94988 62.0419 8.09188 62.0419 12.3759V23.6299H57.6899ZM63.9419 14.9259C63.9419 13.5885 64.1459 12.3645 64.5539 11.2539C64.9846 10.1432 65.5739 9.20255 66.3219 8.43188C67.0926 7.63855 68.0106 7.02655 69.0759 6.59588C70.1413 6.16521 71.3313 5.94988 72.6459 5.94988C73.9153 5.94988 75.0713 6.16521 76.1139 6.59588C77.1793 7.02655 78.0859 7.63855 78.8339 8.43188C79.5819 9.20255 80.1599 10.1432 80.5679 11.2539C80.9759 12.3645 81.1799 13.5885 81.1799 14.9259C81.1799 16.2859 80.9759 17.5212 80.5679 18.6319C80.1599 19.7425 79.5819 20.6945 78.8339 21.4879C78.0859 22.2812 77.1793 22.8932 76.1139 23.3239C75.0713 23.7545 73.9153 23.9699 72.6459 23.9699C71.3313 23.9699 70.1413 23.7545 69.0759 23.3239C68.0106 22.8932 67.0926 22.2812 66.3219 21.4879C65.5739 20.6945 64.9846 19.7425 64.5539 18.6319C64.1459 17.5212 63.9419 16.2859 63.9419 14.9259ZM68.4299 14.9259C68.4299 17.3965 68.7926 19.2665 69.5179 20.5359C70.2433 21.8052 71.2859 22.4399 72.6459 22.4399C75.3433 22.4399 76.6919 19.9352 76.6919 14.9259C76.6919 9.93922 75.3433 7.44588 72.6459 7.44588C71.2859 7.44588 70.2433 8.09188 69.5179 9.38388C68.8153 10.6532 68.4526 12.5005 68.4299 14.9259ZM94.7685 9.99588C93.5445 9.72388 92.4905 9.58788 91.6065 9.58788C90.0878 9.58788 89.0225 10.0072 88.4105 10.8459C87.7985 11.6845 87.4925 13.0105 87.4925 14.8239V23.6299H83.1405V6.28988H87.4925V7.10588C87.4925 7.78588 87.4358 8.40922 87.3225 8.97588C87.2318 9.54255 87.0845 9.95055 86.8805 10.1999L87.0505 10.3019C88.4105 7.40055 90.5752 5.94988 93.5445 5.94988C93.6805 5.94988 93.8505 5.94988 94.0545 5.94988C94.2585 5.94988 94.4285 5.96121 94.5645 5.98388L94.7685 9.99588ZM95.1189 18.9039C95.1189 17.3852 95.6515 16.1839 96.7169 15.2999C97.8049 14.3932 99.4822 13.7359 101.749 13.3279L107.223 12.4099C107.2 10.8005 106.883 9.57655 106.271 8.73788C105.682 7.89922 104.832 7.47988 103.721 7.47988C102.678 7.47988 101.84 7.86522 101.205 8.63588C100.57 9.40655 100.219 10.4492 100.151 11.7639H95.7989C95.8215 10.8799 96.0255 10.0752 96.4109 9.34988C96.7962 8.62455 97.3289 8.01255 98.0089 7.51388C98.6889 7.01522 99.5049 6.62988 100.457 6.35788C101.409 6.08588 102.474 5.94988 103.653 5.94988C106.237 5.94988 108.198 6.50522 109.535 7.61588C110.895 8.70388 111.575 10.3132 111.575 12.4439V20.0599C111.575 20.8079 111.677 21.3065 111.881 21.5559C112.085 21.8052 112.459 21.8732 113.003 21.7599L112.969 22.8819C112.788 23.1539 112.402 23.4032 111.813 23.6299C111.246 23.8565 110.702 23.9699 110.181 23.9699C109.433 23.9699 108.798 23.7432 108.277 23.2899C107.778 22.8365 107.495 22.2472 107.427 21.5219L107.325 20.0599L107.155 20.0259C106.724 21.2499 106.01 22.2132 105.013 22.9159C104.016 23.6185 102.837 23.9699 101.477 23.9699C100.525 23.9699 99.6522 23.8452 98.8589 23.5959C98.0882 23.3465 97.4195 23.0065 96.8529 22.5759C96.3089 22.1225 95.8782 21.5899 95.5609 20.9779C95.2662 20.3432 95.1189 19.6519 95.1189 18.9039ZM99.6069 18.8019C99.6069 19.6632 99.8902 20.3659 100.457 20.9099C101.024 21.4539 101.772 21.7259 102.701 21.7259C103.336 21.7259 103.925 21.6012 104.469 21.3519C105.013 21.0799 105.489 20.7285 105.897 20.2979C106.305 19.8445 106.622 19.3345 106.849 18.7679C107.098 18.1785 107.223 17.5779 107.223 16.9659V13.6679L105.013 14.2119C101.409 15.0959 99.6069 16.6259 99.6069 18.8019Z" fill="black"/>
<path d="M115.414 20.3999H119.766V23.6299H115.414V20.3999Z" fill="#C48D35"/>
</svg>
